<?xml version="1.0" encoding="utf-8"?>
<!-- Generator: Adobe Illustrator 21.1.0, SVG Export Plug-In . SVG Version: 6.00 Build 0)  -->
<svg version="1.1" id="Layer_1" xmlns="http://www.w3.org/2000/svg" xmlns:xlink="http://www.w3.org/1999/xlink" x="0px" y="0px"
	 viewBox="0 0 300 55" style="enable-background:new 0 0 300 55;" xml:space="preserve">
<style type="text/css">
	.st0{fill:#51535C;}
	.st1{fill:#E7C7C6;}
	.st2{fill:#2A2A2B;}
</style>
<g>
	<g>
		<circle class="st0" cx="189.8" cy="27.5" r="26.9"/>
		<g id="XMLID_30_">
			<g id="XMLID_37_">
				<g id="XMLID_38_">
					<path id="XMLID_39_" class="st1" d="M177.5,29.4c-1.1,0-2.1-0.9-2.2-2.1c-0.1-1.2,0.8-2.3,2-2.4l24.7-2.3
						c1.2-0.1,2.3,0.8,2.4,2c0.1,1.2-0.8,2.3-2,2.4l-24.7,2.3C177.6,29.4,177.5,29.4,177.5,29.4z"/>
				</g>
			</g>
			<g id="XMLID_34_">
				<g id="XMLID_35_">
					<path id="XMLID_36_" class="st1" d="M198.9,41c-0.7,0-1.3-0.3-1.8-0.9l-16-22.4c-0.7-1-0.5-2.4,0.5-3.2c1-0.7,2.3-0.5,3.1,0.5
						l16,22.4c0.7,1,0.5,2.4-0.5,3.2C199.8,40.8,199.4,41,198.9,41z"/>
				</g>
			</g>
			<g id="XMLID_31_">
				<g id="XMLID_32_">
					<path id="XMLID_33_" class="st1" d="M182.9,41c-0.4,0-0.7-0.1-1.1-0.3c-1-0.6-1.4-2-0.8-3.1l12.4-22.4c0.6-1.1,1.9-1.5,3-0.8
						c1,0.6,1.4,2,0.8,3.1l-12.4,22.4C184.4,40.6,183.7,41,182.9,41z"/>
				</g>
			</g>
		</g>
	</g>
	<g>
		<path class="st2" d="M3.1,52.2c-1.5,0-2.6-1.2-2.6-2.6V5.9c0-1.5,1.2-2.6,2.6-2.6h7.2c8.5,0,12.3,4.6,12.3,14
			c0,6.8-3.1,10.5-3.1,10.5c1.9,2.3,3.1,6,3.1,10.5c0,9.4-3.8,14-12.3,14H3.1z M7.8,10.4v13.7h2.5c3.6,0,5-2,5-6.8
			c0-4.9-1.5-6.8-5-6.8H7.8z M7.8,31.3V45h2.5c3.6,0,5-2,5-6.8c0-4.9-1.5-6.9-5-6.9H7.8z"/>
		<path class="st2" d="M28.1,17.4c0-9.2,4-14.2,11.9-14.2c8,0,11.9,4.9,11.9,14.2V38c0,5.7-1.5,9.1-3.8,11.3
			c-2.4,2.3-5.4,2.9-8.1,2.9c-2.6,0-5.7-0.6-8.1-2.9c-2.3-2.3-3.8-5.6-3.8-11.3V17.4z M35.4,38c0,4.8,1.5,7,4.6,7
			c3.1,0,4.6-2.1,4.6-7V17.4c0-4.9-1.5-7-4.6-7c-3.2,0-4.6,2.3-4.6,7V38z"/>
		<path class="st2" d="M55.1,5.8c0-1.5,1.2-2.6,2.6-2.6h19c1.5,0,2.6,1.2,2.6,2.6v2c0,1.5-1.2,2.6-2.6,2.6h-6v39.1
			c0,1.5-1.2,2.6-2.6,2.6h-2c-1.5,0-2.6-1.2-2.6-2.6V10.4h-5.9c-1.5,0-2.6-1.2-2.6-2.6V5.8z"/>
		<path class="st2" d="M82.8,5.8c0-1.5,1.2-2.6,2.6-2.6h19c1.5,0,2.6,1.2,2.6,2.6v2c0,1.5-1.2,2.6-2.6,2.6h-6v39.1
			c0,1.5-1.2,2.6-2.6,2.6h-2c-1.5,0-2.6-1.2-2.6-2.6V10.4h-5.9c-1.5,0-2.6-1.2-2.6-2.6V5.8z"/>
		<path class="st2" d="M131.6,49.6c0,1.5-1.2,2.6-2.6,2.6h-15.5c-1.5,0-2.6-1.2-2.6-2.6V5.9c0-1.5,1.2-2.6,2.6-2.6h2.1
			c1.4,0,2.5,1.2,2.5,2.6V45H129c1.5,0,2.6,1.2,2.6,2.6V49.6z"/>
		<path class="st2" d="M154,3.3c1.5,0,2.6,1.2,2.6,2.6v2c0,1.5-1.2,2.6-2.6,2.6h-11.1v13.7h9.2c1.5,0,2.6,1.2,2.6,2.6v2
			c0,1.5-1.2,2.6-2.6,2.6h-9.2V45H154c1.5,0,2.6,1.2,2.6,2.6v2c0,1.5-1.2,2.6-2.6,2.6h-15.7c-1.5,0-2.6-1.2-2.6-2.6V5.9
			c0-1.5,1.2-2.6,2.6-2.6H154z"/>
	</g>
	<g>
		<path class="st2" d="M224.2,17.5c0-5.5,1.6-9.1,3.9-11.3c2.4-2.2,5.3-2.8,8-2.8c2.7,0,5.6,0.7,8,2.8c2.3,2.2,3.8,5.8,3.8,11.3v1
			c0,1.5-1.2,2.6-2.5,2.6h-2.1c-1.5,0-2.6-1.2-2.6-2.6v-1c0-4.9-1.6-7-4.6-7c-3,0-4.6,2.1-4.6,7V38c0,4.9,1.5,7,4.6,7
			c1.4,0,2.7-0.6,3.3-1.3c0.9-1.2,1.2-3.1,1.2-5.7v-1c0-1.5,1.2-2.6,2.6-2.6h2.1c1.4,0,2.5,1.2,2.5,2.6v1c0,5.7-1.5,9.1-3.8,11.3
			c-2.4,2.3-5.4,2.9-8,2.9c-2.8,0-5.7-0.6-8.1-2.9c-2.2-2.2-3.8-5.6-3.8-11.3V17.5z"/>
		<path class="st2" d="M268,38.9h-7.4L258,50.2c-0.3,1.1-1.5,2-2.5,2h-2.1c-1.7,0-2.9-1.5-2.5-3.1l3.5-15.4l6.6-28.4
			c0.3-1.1,1.5-2,2.5-2h1.6c1.1,0,2.3,0.9,2.5,2l10,43.7c0.4,1.7-0.8,3.2-2.5,3.2H273c-1.1,0-2.2-0.9-2.5-2L268,38.9z M262.2,31.7
			h4.1c-0.8-3.5-0.7-5.4-2-11.6L262.2,31.7z"/>
		<path class="st2" d="M275.3,5.9c0-1.5,1.2-2.6,2.6-2.6h19c1.5,0,2.6,1.2,2.6,2.6v2c0,1.5-1.2,2.6-2.6,2.6h-5.9v39
			c0,1.5-1.2,2.6-2.6,2.6h-2c-1.5,0-2.6-1.2-2.6-2.6v-39h-5.9c-1.5,0-2.6-1.2-2.6-2.6V5.9z"/>
	</g>
</g>
</svg>
