<svg xmlns="http://www.w3.org/2000/svg" viewBox="0 0 480 120"><defs><style>.cls-1{fill:#4f525b;}.cls-2{fill:#f3c9c8;}.cls-3{fill:#fffffb;}</style></defs><title>bottle-cat-logo-mid</title><g id="lettering"><circle class="cls-1" cx="299.14" cy="60" r="40"/><g id="_Group_" data-name="&lt;Group&gt;"><g id="_Group_2" data-name="&lt;Group&gt;"><g id="_Group_3" data-name="&lt;Group&gt;"><path id="_Path_" data-name="&lt;Path&gt;" class="cls-2" d="M280.77,62.88a3.28,3.28,0,0,1-3.22-3.05,3.32,3.32,0,0,1,2.94-3.63l36.72-3.35a3.35,3.35,0,0,1,.57,6.67l-36.72,3.35Z"/></g></g><g id="_Group_4" data-name="&lt;Group&gt;"><g id="_Group_5" data-name="&lt;Group&gt;"><path id="_Path_2" data-name="&lt;Path&gt;" class="cls-2" d="M312.64,80A3.2,3.2,0,0,1,310,78.64l-23.77-33.3a3.42,3.42,0,0,1,.68-4.68,3.18,3.18,0,0,1,4.53.71l23.77,33.3a3.42,3.42,0,0,1-.68,4.68A3.16,3.16,0,0,1,312.64,80Z"/></g></g><g id="_Group_6" data-name="&lt;Group&gt;"><g id="_Group_7" data-name="&lt;Group&gt;"><path id="_Path_3" data-name="&lt;Path&gt;" class="cls-2" d="M288.86,80a3.11,3.11,0,0,1-1.6-.44A3.4,3.4,0,0,1,286,75l18.37-33.3a3.17,3.17,0,0,1,4.42-1.25A3.4,3.4,0,0,1,310,45l-18.37,33.3A3.22,3.22,0,0,1,288.86,80Z"/></g></g></g><path class="cls-3" d="M21.88,96.68A3.87,3.87,0,0,1,18,92.8V27.88A3.87,3.87,0,0,1,21.88,24H32.55c12.62,0,18.23,6.9,18.23,20.81,0,10-4.64,15.53-4.64,15.53,2.8,3.45,4.64,9,4.64,15.53,0,13.91-5.61,20.81-18.23,20.81Zm6.9-62V54.95h3.77C37.84,54.95,40,52,40,44.81s-2.16-10.14-7.44-10.14Zm0,30.95V86h3.77C37.84,86,40,83.09,40,75.87s-2.16-10.25-7.44-10.25Z"/><path class="cls-3" d="M59,45c0-13.59,5.93-21,17.69-21s17.69,7.33,17.69,21V75.54c0,8.52-2.26,13.48-5.61,16.82-3.56,3.45-8.09,4.31-12.08,4.31s-8.41-.86-12-4.31C61.34,89,59,84.06,59,75.54ZM69.75,75.54C69.75,82.66,72,86,76.66,86s6.9-3.13,6.9-10.46V45c0-7.23-2.26-10.35-6.9-10.35S69.75,38,69.75,45Z"/><path class="cls-3" d="M99.08,27.77A3.87,3.87,0,0,1,103,23.89h28.25a3.87,3.87,0,0,1,3.88,3.88v3a3.87,3.87,0,0,1-3.88,3.88h-8.84v58a3.87,3.87,0,0,1-3.88,3.88h-2.91a3.87,3.87,0,0,1-3.88-3.88v-58H103a3.87,3.87,0,0,1-3.88-3.88Z"/><path class="cls-3" d="M140.17,27.77A3.87,3.87,0,0,1,144,23.89H172.3a3.87,3.87,0,0,1,3.88,3.88v3a3.87,3.87,0,0,1-3.88,3.88h-8.84v58a3.87,3.87,0,0,1-3.88,3.88h-2.91a3.87,3.87,0,0,1-3.88-3.88v-58H144a3.87,3.87,0,0,1-3.88-3.88Z"/><path class="cls-3" d="M212.74,92.8a3.87,3.87,0,0,1-3.88,3.88h-23A3.87,3.87,0,0,1,182,92.8V27.88A3.87,3.87,0,0,1,185.89,24H189a3.84,3.84,0,0,1,3.77,3.88V86h16.07a3.87,3.87,0,0,1,3.88,3.88Z"/><path class="cls-3" d="M246,24a3.87,3.87,0,0,1,3.88,3.88v2.91A3.87,3.87,0,0,1,246,34.67h-16.5V54.95H243a3.87,3.87,0,0,1,3.88,3.88v2.91A3.87,3.87,0,0,1,243,65.62H229.45V86H246a3.87,3.87,0,0,1,3.88,3.88V92.8A3.87,3.87,0,0,1,246,96.68H222.66a3.87,3.87,0,0,1-3.88-3.88V27.88A3.87,3.87,0,0,1,222.66,24Z"/><path class="cls-3" d="M350.14,45.1c0-8.18,2.37-13.57,5.81-16.8a19,19,0,0,1,23.8,0c3.45,3.23,5.71,8.61,5.71,16.8v1.51a3.84,3.84,0,0,1-3.77,3.88h-3.12a3.86,3.86,0,0,1-3.88-3.88V45.1c0-7.21-2.37-10.34-6.78-10.34S361,37.89,361,45.1V75.58C361,82.79,363.27,86,367.9,86a7,7,0,0,0,5-1.94c1.29-1.72,1.83-4.63,1.83-8.51V74.07a3.86,3.86,0,0,1,3.88-3.88h3.12a3.84,3.84,0,0,1,3.77,3.88v1.51c0,8.51-2.26,13.46-5.6,16.8-3.55,3.45-8.08,4.31-12,4.31-4.09,0-8.51-.86-12.06-4.31-3.34-3.34-5.71-8.29-5.71-16.8Z"/><path class="cls-3" d="M415.17,76.87h-11l-3.77,16.8a4.25,4.25,0,0,1-3.77,3h-3.12a3.73,3.73,0,0,1-3.77-4.63l5.17-22.83,9.8-42.1a4.25,4.25,0,0,1,3.77-3h2.37a4.14,4.14,0,0,1,3.77,3l14.86,64.82a3.81,3.81,0,0,1-3.77,4.74H422.6a4.25,4.25,0,0,1-3.77-3Zm-8.51-10.66h6c-1.18-5.17-1-8.08-3-17.23Z"/><path class="cls-3" d="M426,27.88A3.86,3.86,0,0,1,429.92,24h28.21A3.86,3.86,0,0,1,462,27.88v3a3.86,3.86,0,0,1-3.88,3.88H449.3V92.7a3.86,3.86,0,0,1-3.88,3.88h-2.91a3.86,3.86,0,0,1-3.88-3.88V34.77h-8.72A3.86,3.86,0,0,1,426,30.89Z"/></g></svg>