<svg xmlns="http://www.w3.org/2000/svg" viewBox="0 0 480 120"><defs><style>.cls-1{fill:#4f525b;}.cls-2{fill:#f3c9c8;}.cls-3{fill:#fffffb;}</style></defs><title>bottle-cat-logo-left</title><g id="lettering"><circle class="cls-1" cx="50" cy="60" r="40"/><g id="_Group_" data-name="&lt;Group&gt;"><g id="_Group_2" data-name="&lt;Group&gt;"><g id="_Group_3" data-name="&lt;Group&gt;"><path id="_Path_" data-name="&lt;Path&gt;" class="cls-2" d="M31.64,62.88a3.28,3.28,0,0,1-3.22-3.05,3.32,3.32,0,0,1,2.94-3.63l36.72-3.35a3.35,3.35,0,0,1,.57,6.67L31.93,62.87Z"/></g></g><g id="_Group_4" data-name="&lt;Group&gt;"><g id="_Group_5" data-name="&lt;Group&gt;"><path id="_Path_2" data-name="&lt;Path&gt;" class="cls-2" d="M63.5,80a3.2,3.2,0,0,1-2.61-1.36L37.12,45.34a3.42,3.42,0,0,1,.68-4.68,3.18,3.18,0,0,1,4.53.71l23.77,33.3a3.42,3.42,0,0,1-.68,4.68A3.16,3.16,0,0,1,63.5,80Z"/></g></g><g id="_Group_6" data-name="&lt;Group&gt;"><g id="_Group_7" data-name="&lt;Group&gt;"><path id="_Path_3" data-name="&lt;Path&gt;" class="cls-2" d="M39.72,80a3.11,3.11,0,0,1-1.6-.44A3.4,3.4,0,0,1,36.91,75L55.28,41.7a3.17,3.17,0,0,1,4.42-1.25A3.4,3.4,0,0,1,60.91,45L42.54,78.31A3.22,3.22,0,0,1,39.72,80Z"/></g></g></g><path class="cls-3" d="M108.88,96.68A3.87,3.87,0,0,1,105,92.8V27.88A3.87,3.87,0,0,1,108.88,24h10.68c12.62,0,18.23,6.9,18.23,20.81,0,10-4.64,15.53-4.64,15.53,2.8,3.45,4.64,9,4.64,15.53,0,13.91-5.61,20.81-18.23,20.81Zm6.9-62V54.95h3.77c5.28,0,7.44-2.91,7.44-10.14s-2.16-10.14-7.44-10.14Zm0,30.95V86h3.77c5.28,0,7.44-2.91,7.44-10.14s-2.16-10.25-7.44-10.25Z"/><path class="cls-3" d="M146,45c0-13.59,5.93-21,17.69-21s17.69,7.33,17.69,21V75.54c0,8.52-2.26,13.48-5.61,16.82-3.56,3.45-8.09,4.31-12.08,4.31s-8.41-.86-12-4.31C148.35,89,146,84.06,146,75.54Zm10.78,30.52c0,7.12,2.26,10.46,6.9,10.46s6.9-3.13,6.9-10.46V45c0-7.23-2.26-10.35-6.9-10.35S156.76,38,156.76,45Z"/><path class="cls-3" d="M186.09,27.77A3.87,3.87,0,0,1,190,23.89h28.25a3.87,3.87,0,0,1,3.88,3.88v3a3.87,3.87,0,0,1-3.88,3.88h-8.84v58a3.87,3.87,0,0,1-3.88,3.88h-2.91a3.87,3.87,0,0,1-3.88-3.88v-58H190a3.87,3.87,0,0,1-3.88-3.88Z"/><path class="cls-3" d="M227.17,27.77a3.87,3.87,0,0,1,3.88-3.88h28.25a3.87,3.87,0,0,1,3.88,3.88v3a3.87,3.87,0,0,1-3.88,3.88h-8.84v58a3.87,3.87,0,0,1-3.88,3.88h-2.91a3.87,3.87,0,0,1-3.88-3.88v-58h-8.74a3.87,3.87,0,0,1-3.88-3.88Z"/><path class="cls-3" d="M299.74,92.8a3.87,3.87,0,0,1-3.88,3.88h-23A3.87,3.87,0,0,1,269,92.8V27.88A3.87,3.87,0,0,1,272.89,24H276a3.84,3.84,0,0,1,3.77,3.88V86h16.07a3.87,3.87,0,0,1,3.88,3.88Z"/><path class="cls-3" d="M333,24a3.87,3.87,0,0,1,3.88,3.88v2.91A3.87,3.87,0,0,1,333,34.67h-16.5V54.95H330a3.87,3.87,0,0,1,3.88,3.88v2.91A3.87,3.87,0,0,1,330,65.62H316.46V86H333a3.87,3.87,0,0,1,3.88,3.88V92.8A3.87,3.87,0,0,1,333,96.68H309.66a3.87,3.87,0,0,1-3.88-3.88V27.88A3.87,3.87,0,0,1,309.66,24Z"/><path class="cls-3" d="M350,45.1c0-8.18,2.37-13.57,5.81-16.8a19,19,0,0,1,23.8,0c3.45,3.23,5.71,8.61,5.71,16.8v1.51a3.84,3.84,0,0,1-3.77,3.88h-3.12a3.86,3.86,0,0,1-3.88-3.88V45.1c0-7.21-2.37-10.34-6.78-10.34s-6.89,3.12-6.89,10.34V75.58c0,7.22,2.26,10.45,6.89,10.45a7,7,0,0,0,5-1.94c1.29-1.72,1.83-4.63,1.83-8.51V74.07a3.86,3.86,0,0,1,3.88-3.88h3.12a3.84,3.84,0,0,1,3.77,3.88v1.51c0,8.51-2.26,13.46-5.6,16.8-3.55,3.45-8.08,4.31-12,4.31-4.09,0-8.51-.86-12.06-4.31C352.37,89,350,84.08,350,75.58Z"/><path class="cls-3" d="M415,76.87h-11l-3.77,16.8a4.25,4.25,0,0,1-3.77,3h-3.12a3.73,3.73,0,0,1-3.77-4.63l5.17-22.83,9.8-42.1a4.25,4.25,0,0,1,3.77-3h2.37a4.14,4.14,0,0,1,3.77,3l14.86,64.82a3.81,3.81,0,0,1-3.77,4.74h-3.12a4.25,4.25,0,0,1-3.77-3Zm-8.51-10.66h6c-1.18-5.17-1-8.08-3-17.23Z"/><path class="cls-3" d="M425.9,27.88A3.86,3.86,0,0,1,429.78,24H458a3.86,3.86,0,0,1,3.88,3.88v3A3.86,3.86,0,0,1,458,34.77h-8.83V92.7a3.86,3.86,0,0,1-3.88,3.88h-2.91a3.86,3.86,0,0,1-3.88-3.88V34.77h-8.72a3.86,3.86,0,0,1-3.88-3.88Z"/></g></svg>