<svg xmlns="http://www.w3.org/2000/svg" viewBox="0 0 480 120"><defs><style>.cls-1{fill:#4f525b;}.cls-2{fill:#f3c9c8;}.cls-3{fill:#ee943c;}.cls-4{fill:#c08055;}.cls-5{fill:#3f403e;}.cls-6{fill:#ea9d9d;}.cls-7{fill:#fffbec;}.cls-8{fill:#ffcaca;}</style></defs><title>butthole-slide</title><g id="lettering"><circle class="cls-1" cx="67.5" cy="60" r="40"/><g id="_Group_" data-name="&lt;Group&gt;"><g id="_Group_2" data-name="&lt;Group&gt;"><g id="_Group_3" data-name="&lt;Group&gt;"><path id="_Path_" data-name="&lt;Path&gt;" class="cls-2" d="M49.14,62.88a3.28,3.28,0,0,1-3.22-3.05,3.32,3.32,0,0,1,2.94-3.63l36.72-3.35a3.35,3.35,0,0,1,.57,6.67L49.43,62.87Z"/></g></g><g id="_Group_4" data-name="&lt;Group&gt;"><g id="_Group_5" data-name="&lt;Group&gt;"><path id="_Path_2" data-name="&lt;Path&gt;" class="cls-2" d="M81,80a3.2,3.2,0,0,1-2.61-1.36L54.62,45.34a3.42,3.42,0,0,1,.68-4.68,3.18,3.18,0,0,1,4.53.71l23.77,33.3a3.42,3.42,0,0,1-.68,4.68A3.16,3.16,0,0,1,81,80Z"/></g></g><g id="_Group_6" data-name="&lt;Group&gt;"><g id="_Group_7" data-name="&lt;Group&gt;"><path id="_Path_3" data-name="&lt;Path&gt;" class="cls-2" d="M57.22,80a3.11,3.11,0,0,1-1.6-.44A3.4,3.4,0,0,1,54.41,75L72.78,41.7a3.17,3.17,0,0,1,4.42-1.25A3.4,3.4,0,0,1,78.41,45L60,78.31A3.22,3.22,0,0,1,57.22,80Z"/></g></g></g></g><g id="Layer_5" data-name="Layer 5"><circle class="cls-3" cx="182.5" cy="60" r="40"/><g id="_Group_8" data-name="&lt;Group&gt;"><g id="_Group_9" data-name="&lt;Group&gt;"><g id="_Group_10" data-name="&lt;Group&gt;"><path id="_Path_4" data-name="&lt;Path&gt;" class="cls-4" d="M164.14,62.88a3.28,3.28,0,0,1-3.22-3.05,3.32,3.32,0,0,1,2.94-3.63l36.72-3.35a3.35,3.35,0,0,1,.57,6.67l-36.72,3.35Z"/></g></g><g id="_Group_11" data-name="&lt;Group&gt;"><g id="_Group_12" data-name="&lt;Group&gt;"><path id="_Path_5" data-name="&lt;Path&gt;" class="cls-4" d="M196,80a3.2,3.2,0,0,1-2.61-1.36l-23.77-33.3a3.42,3.42,0,0,1,.68-4.68,3.18,3.18,0,0,1,4.53.71l23.77,33.3a3.42,3.42,0,0,1-.68,4.68A3.16,3.16,0,0,1,196,80Z"/></g></g><g id="_Group_13" data-name="&lt;Group&gt;"><g id="_Group_14" data-name="&lt;Group&gt;"><path id="_Path_6" data-name="&lt;Path&gt;" class="cls-4" d="M172.22,80a3.11,3.11,0,0,1-1.6-.44A3.4,3.4,0,0,1,169.41,75l18.37-33.3a3.17,3.17,0,0,1,4.42-1.25A3.4,3.4,0,0,1,193.41,45L175,78.31A3.22,3.22,0,0,1,172.22,80Z"/></g></g></g><circle class="cls-5" cx="297.5" cy="60" r="40"/><g id="_Group_15" data-name="&lt;Group&gt;"><g id="_Group_16" data-name="&lt;Group&gt;"><g id="_Group_17" data-name="&lt;Group&gt;"><path id="_Path_7" data-name="&lt;Path&gt;" class="cls-6" d="M279.14,62.88a3.28,3.28,0,0,1-3.22-3.05,3.32,3.32,0,0,1,2.94-3.63l36.72-3.35a3.35,3.35,0,0,1,.57,6.67l-36.72,3.35Z"/></g></g><g id="_Group_18" data-name="&lt;Group&gt;"><g id="_Group_19" data-name="&lt;Group&gt;"><path id="_Path_8" data-name="&lt;Path&gt;" class="cls-6" d="M311,80a3.2,3.2,0,0,1-2.61-1.36l-23.77-33.3a3.42,3.42,0,0,1,.68-4.68,3.18,3.18,0,0,1,4.53.71l23.77,33.3a3.42,3.42,0,0,1-.68,4.68A3.16,3.16,0,0,1,311,80Z"/></g></g><g id="_Group_20" data-name="&lt;Group&gt;"><g id="_Group_21" data-name="&lt;Group&gt;"><path id="_Path_9" data-name="&lt;Path&gt;" class="cls-6" d="M287.22,80a3.11,3.11,0,0,1-1.6-.44A3.4,3.4,0,0,1,284.41,75l18.37-33.3a3.17,3.17,0,0,1,4.42-1.25A3.4,3.4,0,0,1,308.41,45L290,78.31A3.22,3.22,0,0,1,287.22,80Z"/></g></g></g><circle class="cls-7" cx="412.5" cy="60" r="40"/><g id="_Group_22" data-name="&lt;Group&gt;"><g id="_Group_23" data-name="&lt;Group&gt;"><g id="_Group_24" data-name="&lt;Group&gt;"><path id="_Path_10" data-name="&lt;Path&gt;" class="cls-8" d="M394.14,62.88a3.28,3.28,0,0,1-3.22-3.05,3.32,3.32,0,0,1,2.94-3.63l36.72-3.35a3.35,3.35,0,0,1,.57,6.67l-36.72,3.35Z"/></g></g><g id="_Group_25" data-name="&lt;Group&gt;"><g id="_Group_26" data-name="&lt;Group&gt;"><path id="_Path_11" data-name="&lt;Path&gt;" class="cls-8" d="M426,80a3.2,3.2,0,0,1-2.61-1.36l-23.77-33.3a3.42,3.42,0,0,1,.68-4.68,3.18,3.18,0,0,1,4.53.71l23.77,33.3a3.42,3.42,0,0,1-.68,4.68A3.16,3.16,0,0,1,426,80Z"/></g></g><g id="_Group_27" data-name="&lt;Group&gt;"><g id="_Group_28" data-name="&lt;Group&gt;"><path id="_Path_12" data-name="&lt;Path&gt;" class="cls-8" d="M402.22,80a3.11,3.11,0,0,1-1.6-.44A3.4,3.4,0,0,1,399.41,75l18.37-33.3a3.17,3.17,0,0,1,4.42-1.25A3.4,3.4,0,0,1,423.41,45L405,78.31A3.22,3.22,0,0,1,402.22,80Z"/></g></g></g></g></svg>