<svg xmlns="http://www.w3.org/2000/svg" viewBox="0 0 1825 1280"><defs><style>.cls-1{fill:#4f525b;}.cls-2{fill:#2a2a2b;}.cls-3{fill:#86898e;}.cls-4{fill:#fffffb;}.cls-5{fill:#f5d1d2;}.cls-6{fill:#343435;}.cls-7{fill:#e95d6f;}.cls-8{fill:#fffbec;}.cls-9{fill:#e8e7e2;}.cls-10{fill:#545454;}</style></defs><title>cats_slide_01-BATT</title><g id="꼬리"><path class="cls-1" d="M998,1303.52a38.49,38.49,0,0,1-34.14-20.66c-38-72.52-100.22-92.5-194.47-122.75-23.66-7.59-48.13-15.45-74.4-24.86-38.39-13.75-71.11-40.19-97.25-78.58-19.49-28.62-35.32-64-47-105.11-19.36-67.91-21.15-129-21.21-131.56a38.5,38.5,0,0,1,77-2h0c0,.55,1.73,55.2,18.7,113.9,25.73,89,66.3,120.32,95.8,130.89,25.06,9,48.91,16.63,72,24,100.11,32.13,186.57,59.87,239.16,160.36A38.51,38.51,0,0,1,998,1303.52Z"/><path class="cls-2" d="M996.27,1293.28c-12.39-.23-19.39-7-25-17.18a203.44,203.44,0,0,0-20.35-30.6c-14.63-17.9-32.38-32.54-52.12-44.47-20.92-12.63-43.68-21.84-66.59-30.17-27.45-10-55.42-18.52-83.19-27.53-28.92-9.39-59.16-17.6-85.14-33.85-23.74-14.85-43.2-36-58.75-59.08-34.7-51.61-51.39-114.47-60-175.38q-2.49-17.52-4-35.16-.47-5.73-.81-11.47c-.08-1.3-.14-2.6-.21-3.9-.16-3.18,0,2,0-.74-.18-8.93,2.07-16.85,8.19-23.52a29.29,29.29,0,0,1,28.54-8.59,24.9,24.9,0,0,1,18.4,18.9c.35,1.54.54,3.09.75,4.66s.13,1.4.07.26c.07,1.27.1,2.55.16,3.82q.17,3.83.44,7.65a521.75,521.75,0,0,0,11.07,76.74c11.37,51.6,30.59,106.73,70.48,143.49a120.25,120.25,0,0,0,38,24.05c30.36,11.64,61.7,20.87,92.63,30.88,24.2,7.83,48.26,15.82,71.59,25.53,21.62,9,44.51,20.32,62.88,32.89a240.27,240.27,0,0,1,53.42,49.36,249.38,249.38,0,0,1,22.05,32.89c5.77,10.34,9.74,20.11,5,31.74a30.31,30.31,0,0,1-27.45,18.76c-14.27.31-8.72,20.75,3.52,20.48,30.94-.66,54.11-29.88,45.37-60.16-2.15-7.43-6-14-9.9-20.7s-7.95-13.29-12.34-19.67a265.32,265.32,0,0,0-26.61-32.53c-36.38-38.19-83.68-61.93-132.5-80.18-26.47-9.9-53.47-18.32-80.37-27-17.14-5.52-34.26-11.11-51.27-17-3.63-1.27-7.24-2.59-10.87-3.85,3.28,1.13-1.53-.64-2.58-1.09a100.71,100.71,0,0,1-9.37-4.67c-1.58-.89-3.13-1.84-4.68-2.8-1.1-.68-1.78-1.19-.2-.1-.91-.63-1.83-1.26-2.73-1.91a121.59,121.59,0,0,1-10-8.08q-2.5-2.24-4.88-4.6c-.83-.82-1.64-1.65-2.44-2.48,1.63,1.68-1-1.14-1.42-1.58-3.43-3.83-6.66-7.84-9.71-12-16.07-21.8-26.91-47.28-35.25-73.43-9.83-30.84-15.72-63.09-19.1-95.25q-1.27-12.1-1.93-24.24c-.14-2.67.08,2,0,.39-.09-2.31-.14-4.62-.44-6.92a51.07,51.07,0,0,0-7.77-20.41c-15.94-25.26-52.24-30.74-74.5-10.91A46.35,46.35,0,0,0,519,817.42c.09,5.29.44,10.6.81,15.88,4.24,60.94,17.1,123,42.25,178.84,24.95,55.39,65.33,106.47,123.08,129.62,57.23,22.94,118.41,35.76,174.66,60.71a284.18,284.18,0,0,1,31.76,16.34,140.48,140.48,0,0,1,12.5,8.27q7,5.07,13.41,10.77a143.37,143.37,0,0,1,22,24.06,182.6,182.6,0,0,1,10.31,15.44c3,5,6,11.79,10,16.83a52.26,52.26,0,0,0,40,19.58,8.64,8.64,0,0,0,8.63-10.21A12.87,12.87,0,0,0,996.27,1293.28Z"/></g><g id="오른쪽_손_뒤" data-name="오른쪽 손 뒤"><path class="cls-1" d="M900.33,743.68,883.92,749s4.75,80.63-14.92,96.63S793,933,803,999s137.33,47,160.67-11.67C963.67,987.34,937,803.68,900.33,743.68Z"/><path class="cls-2" d="M895.83,735.33l-16.42,5.37c-4.38,1.43-6.83,4.5-6.57,9.08.1,1.69.16,3.39.23,5.08q0,1.25.08,2.51c0,.55.09,3.6,0,1.25q.08,4,.1,7.93a323,323,0,0,1-1.85,38.17,144.57,144.57,0,0,1-3.34,19.11c-.34,1.35-.71,2.7-1.12,4-.55,1.78-.22.65-.09.28-.24.67-.48,1.34-.74,2a51.74,51.74,0,0,1-3.27,6.65c-1.22,2.15.67-.24-1,1.36-.61.58-1.19,1.17-1.81,1.73-1.62,1.45-3.29,2.85-4.85,4.36a161.65,161.65,0,0,0-11.59,12.66c-21.8,26.17-39.36,56.82-48.12,89.86-7.21,27.2-10,63.77,13.4,84.18,19.42,16.94,47.36,20.56,72.17,17.72,26.34-3,52.83-12.72,73-30.29a83.89,83.89,0,0,0,12.69-14c3.38-4.65,8.54-11.76,8-17.72-.27-3-.91-6.08-1.39-9.08q-4.71-30.1-10.47-60c-5.48-28.67-11.6-57.24-19-85.48-6.89-26.42-14.56-53.18-26.22-77.94a144.5,144.5,0,0,0-7.11-13.37c-2.95-4.86-9.37-7-14.77-5.37-4.66,1.38-8.69,6.48-5.75,11.32,8.71,14.36,14.6,30.27,19.61,45.41,6.66,20.11,12.1,40.62,17,61.22,8.84,36.89,16,74.19,22.21,111.62,1.28,7.71,2.53,15.43,3.66,23.17l.68-4.63a55.44,55.44,0,0,1-9.9,16.11,79.22,79.22,0,0,1-7.27,7.18,55.19,55.19,0,0,1-7.94,6c-3,2-6.15,3.84-9.35,5.53q-2.22,1.17-4.49,2.25-1.37.65-2.75,1.27l-1.86.81q1.34-.56-.36.14a136.61,136.61,0,0,1-22.51,6.77l-2,.4c-3.29.65,2.08-.31-1.22.23q-3,.48-6,.83-5.45.62-10.94.77c-2,0-3.91,0-5.87,0-3.21,0,2.33.24-.85,0-.63-.06-1.27-.08-1.91-.14A93.53,93.53,0,0,1,847,1030c-.89-.18-1.77-.4-2.66-.59-2.95-.62,2.28.78-.55-.16-1.39-.46-2.8-.85-4.19-1.34-1.63-.58-3.21-1.25-4.8-1.91-.52-.22-1-.47-1.54-.71,2.6,1.23-.7-.4-1.18-.68q-2-1.13-3.82-2.42c-.56-.39-1.1-.8-1.65-1.2-2.19-1.6,1.56,1.45-.46-.35-1.1-1-2.17-2-3.18-3.07q-.69-.73-1.34-1.49c-.28-.33-2.31-3.07-1-1.16a45.18,45.18,0,0,1-4.34-7.91c-1.09-2.52.49,1.7-.37-.95q-.27-.83-.51-1.66a50.61,50.61,0,0,1-1.33-6.15,105.55,105.55,0,0,1,.25-31.75c3.17-21.54,11.43-41.92,22-60.87a230.86,230.86,0,0,1,31-43.81c3.72-4.07,7.89-7.54,11.79-11.4,4.88-4.82,7.52-11.22,9.58-17.62,5.32-16.56,6.34-34.46,6.75-51.74.26-10.91.19-21.88-.45-32.77l-6.57,9.08L904.84,752c4.81-1.57,8.4-6.32,5.75-11.32S900.91,733.67,895.83,735.33Z"/></g><g id="몸"><path class="cls-1" d="M933,1299s-26-57.82,14-219.91c37.69-152.73-154.4-637.28-348.71-736.3-9.37-4.77-7.21-18.75,3.14-20.59L687,307s26.67-82,114-119.33l-35.83-63.62a11,11,0,0,1,12-16.12C915.32,139.71,1612.73,345.6,1825,1299Z"/></g><g id="배부분"><path class="cls-3" d="M1441,953.08c-33.7-66.05-68.84-131.59-108.93-194-25.22-39.29-52.69-79.13-85.3-113.46-43.4-45.68-96.85-85-163.1-70-55.11,12.47-103.4,58.43-107.21,116.61C975,714.8,976.89,737.54,979,760c9,96,78,232,66,364s25,175,25,175h449S1542,1151,1441,953.08Z"/></g><g id="몸_stroke" data-name="몸 stroke"><path class="cls-2" d="M942.74,1293.39c-.41-.92-1.34-4-.32-.7-.79-2.54-1.54-5.07-2.15-7.66a193.52,193.52,0,0,1-4.51-32.48c-3.11-47.9,4.38-96.47,14.29-143.18,4.1-19.32,9.78-38.23,11.33-58a313.63,313.63,0,0,0-.09-46.44C958.64,967,951.23,929.47,942,892.65c-22.92-91.56-57.61-180.62-99.68-265-40.77-81.79-89.4-162.53-153.46-228.36a399.06,399.06,0,0,0-42.19-38c-6.75-5.2-13.71-10.14-20.89-14.72q-5.16-3.29-10.48-6.31c-3.34-1.9-8.79-3.48-11.28-6.49-1.14-1.38-.57-2.67-1.23-3.88-2.9-5.32.85-.58.27-1,2,1.47-4.43,1.34-3.25,1.9.62.29,2.77-.49,3.46-.61l20.14-3.58,51.81-9.2,10.17-1.81a14.9,14.9,0,0,0,12-10.08c-1.58,4.82.67-1.64,1.17-2.9,1.71-4.24,3.61-8.4,5.65-12.5a202.08,202.08,0,0,1,24.64-38.29,193.81,193.81,0,0,1,45.79-41.49q7.62-4.89,15.66-9.1c5.88-3.08,14.17-5.29,18.34-10.54,4.36-5.49,1.75-9.36-1-14.22l-21.72-38.56-9.23-16.39a32.89,32.89,0,0,1-1.7-3c-.2-.47-.68-3.36-.7-3.38-1-.72,3.15-.36-.6.26-.49.08-2.28,1.33-2.52.86.36.7,5.39,1.26,6.26,1.47q3.55.85,7.09,1.74,7.9,2,15.76,4.1c29.15,7.88,57.93,17.14,86.32,27.44q58.77,21.32,115.23,48.43A1325.54,1325.54,0,0,1,1137,274a1385.76,1385.76,0,0,1,147.37,106.87A1413,1413,0,0,1,1433.43,524.5,1472,1472,0,0,1,1573.88,709a1641.46,1641.46,0,0,1,124,231.77c40.29,92,72.58,187.3,98,284.42q10.07,38.56,18.72,77.47l14.59-12.33H973.45c-11.59,0-23.19-.09-34.78,0h-1.5c-5.42,0-11.43,2.78-13.78,8-2,4.3.16,9.39,5.42,9.39h855.73c11.59,0,23.19.09,34.78,0h1.5c5.73,0,16.26-4.87,14.59-12.33-21.12-94.64-48.31-188-82.55-278.7a1726.44,1726.44,0,0,0-107.18-231.8,1539.71,1539.71,0,0,0-124.9-189.91,1456.62,1456.62,0,0,0-136.16-153.2,1398.83,1398.83,0,0,0-138.22-118.38,1378.7,1378.7,0,0,0-133.86-88.62A1366,1366,0,0,0,988.9,171q-50.62-22.88-103.1-41.29C860.54,120.88,835,112.9,809.13,106,799.6,103.52,788.84,99.46,779,99c-12-.57-25.07,9.15-25.61,21.66-.22,5.09,2.05,9,4.42,13.18l19.77,35.1,9.11,16.18,2.91,5.17c.87,1.54.82,3,.63.93l2.19-6.55-.47.51,7.12-5c-51.54,22.6-94.24,63.87-117.31,115.41a132.73,132.73,0,0,0-5.06,13l12-10.08-83.08,14.75c-8.88,1.58-17.46,5.49-21.61,14.09-2.48,5.15-3,11.6,0,16.7,2.6,4.55,7.33,6.64,11.47,8.88a273.2,273.2,0,0,1,43.61,30c31.85,26.34,59.22,57.81,83.94,90.82,28.33,37.83,53.35,78.12,76.07,119.53,47,85.6,85.33,176.73,112.45,270.57,11.36,39.31,20.84,79.35,26.14,120,4,30.48,6.35,61,.4,90.95s-13.53,59.07-17.87,89.21a533.09,533.09,0,0,0-5.8,72.41c-.14,21.41.13,45.73,8.12,66,.29.75.52,1.52.85,2.25C927.37,1313.84,947,1302.94,942.74,1293.39Z"/><path class="cls-2" d="M680.81,297.94A106.68,106.68,0,0,0,679,338.08c.71,4.89,3.79,10,9.17,10.57a7.6,7.6,0,0,0,8.13-8.56,92.56,92.56,0,0,1,1.53-35.35c2.47-10.36-14.06-19.11-17-6.8Z"/><path class="cls-2" d="M800.43,196.67c5.45-2.5,11.56-3.51,17.45-4.4,5.62-.85,12-1.77,17.36-1.24,4.25.42,5.48-2,2.82-5.31a23.24,23.24,0,0,0-14-7.47c-7.07-.7-14.28.06-21.28,1.11-3.72.56-7.58,1.17-11.35,2.09-3.13.76-6,10.39-4.57,11.34,3.2,2.17,9.53,5.75,13.61,3.88Z"/></g><g id="오른쪽_손_중간" data-name="오른쪽 손 중간"><path class="cls-1" d="M839.67,974s2.33-47.67,40-124,64.33-81.67,73.67-82,23,8.33,22.6,21.33C975.53,802.6,958,818,956,824c-7.24,21.67,14.83,13.33-.33,36.8"/><path class="cls-2" d="M848.29,977.21c0-.88.14-1.75.22-2.63,0-.5.1-1,.16-1.5-.16,1.52-.08.63,0-.26.22-1.57.42-3.14.67-4.7a275.09,275.09,0,0,1,6.35-29.32A449.06,449.06,0,0,1,898.4,835.37c7.6-13.46,16-26.65,26.27-38.27,5.94-6.74,11.89-12.48,19.16-16.63a51,51,0,0,1,7.59-3.44c2.13-.79-1.07,0,1.47-.39.91-.16,1.81-.35,2.72-.45,8.89-1,13.81,5.93,10.42,14.91-5.14,13.63-20.45,22.05-20.16,37.76.11,6,3.16,11,6.81,15.52,1,1.22-.41-.56-.45-.71.36,1.32,1.25.54.1-.14.55.33-.43,1.41.07-.31-.16.54.18,1.37.05,2-.49,2.21-2.72,6.47-4.4,9.13-2.49,3.94.41,8.59,3.53,11.26,2.29,2,9.21,5.62,11.68,1.72,3.83-6.06,7.8-12.84,5.91-20.24a22.33,22.33,0,0,0-3.95-7.54c-.49-.67-1-1.35-1.51-2-.41-.47-1.29-1.73.22.41a5.67,5.67,0,0,1-.91-1.56c.6,2.3.1-1.36.15.09a16.36,16.36,0,0,1,.21-3.84c.68-3.61,1.16-4.29,3.19-7,4.54-6.12,9.62-11.8,13.35-18.5,4.21-7.56,6.13-15.68,2.85-24-3.47-8.84-10.79-15.76-19.28-19.79a31.5,31.5,0,0,0-23.84-1.56c-18.93,5.9-33.16,24.45-43.78,40.06-23.11,34-40.42,73.16-52.7,112.27-5.7,18.17-11.17,37.58-12.15,56.74-.4,7.8,16.71,17,17.24,6.4Z"/></g><g id="눈"><path class="cls-4" d="M843.67,391.68c42,48.69,13,108.33-38,90s-64.57-92.14-44-114.67C782.67,344,818.67,362.68,843.67,391.68Z"/><path class="cls-2" d="M826.17,406.77c18.41,21.35,5.7,47.51-16.67,39.47s-28.33-40.42-19.3-50.29C798.57,386.82,815.21,394,826.17,406.77Z"/><path class="cls-4" d="M875.67,364.34c41,47.3,107.67,33,102-20.33s-55.86-77-89.93-71.67S845,329,875.67,364.34Z"/><path class="cls-2" d="M906,348.46c18.33,21.33,43.41,6.38,37.68-15.76-5.47-21.15-31.32-38.14-44.11-30.41S893.43,333.83,906,348.46Z"/></g><g id="코"><path class="cls-5" d="M889.51,452.85c-.4,2.12,12.4,6.3,14.57,4.86s3-15.5,1.24-16.22S889.92,450.68,889.51,452.85Z"/></g><g id="입"><path class="cls-6" d="M943.11,479.39c-10-5.48-26.16-12.19-28-10.43-1.33,1.27,3.25,15.86,9.15,26.78C924.25,495.62,923.75,480.57,943.11,479.39Z"/><path class="cls-7" d="M950.89,485.05c-.29-1.13-3.45-3.28-7.79-5.66-19.35,1.18-18.86,16.23-18.85,16.35,3.65,6.76,7.81,12.11,11.39,12C945,507.51,951.85,488.78,950.89,485.05Z"/></g><g id="왼쪽_손" data-name="왼쪽 손"><path class="cls-1" d="M1564,738s15,155-63,180-134-34-164-80-70-66-115-56c0,0-7.4,35-28.2,37s-24.13-8-24.13-8-19.33,8.67-31.33-1.33c0,0,0,22.67-20.33,25.33s-42.33-8.33-34-62.67,54.67-92.67,143-96,188.57,32,235.67,66.67c14.6,10.74,20,4.67,20,4.67"/><path class="cls-2" d="M1553.62,741.49a343.36,343.36,0,0,1,.63,50.47c-1.58,30.36-6.07,62.23-20.54,89.4a85.89,85.89,0,0,1-11.85,17.07c-1.94,2.2,1.27-1.24-.78.84q-.94,1-1.91,1.88c-1.29,1.22-2.63,2.39-4,3.52-.34.28-1.61,1.23.07,0q-1.07.8-2.16,1.56c-.73.51-1.49,1-2.23,1.48l-1.53.94q2-1.11.25-.16c-1.64.79-3.24,1.63-4.9,2.38,2.53-1.15-2.45.86-3.31,1.14a106.18,106.18,0,0,1-17.52,4,98.24,98.24,0,0,1-34-1c-41.54-8.55-74.13-40.63-97.58-74.3-7.59-10.9-14.76-21.84-23.83-31.63a120.41,120.41,0,0,0-30-23.94c-22.56-12.41-48.33-15.21-73.37-9.81-5.21,1.12-12.16,4.42-13.4,10.2q-.08.39-.18.78c-.07.27-.13.55-.2.82-.37,1.43.45-1.56,0,.17-.69,2.41-1.46,4.79-2.34,7.14a74.64,74.64,0,0,1-4,8.91,35.43,35.43,0,0,1-2.28,3.77c-.48.69-1,1.35-1.49,2,0,0-1.89,2.2-.95,1.21-.56.59-1.17,1.14-1.79,1.67-.9.78,1.1-.7-.53.37,2.92-1.91-2,1.1,1.1-.47-1.6.81.39.05-.64.19a27.53,27.53,0,0,1-11.87-.8c-3.38-1.09-5.73-2.56-6.67-5.22-1.53-4.32-10.28-.91-12.5.07,2.92-1.28,1.7-.66-.26,0-.31.1-3,.88-2.06.64.83-.21-2.4.46-2.85.53a18.73,18.73,0,0,1-14.66-3.68c-5.07-3.92-19.43,3.21-19.48,9.56a24.87,24.87,0,0,1-2.44,10.78,13.9,13.9,0,0,1-1.66,2.87c-1.35,1.84,0-1-.9,1.07-.7,1.56-.77,0,.59-.21-2.07.36-.64.35,0,.16-.82.23-1.7.32-2.54.46-2.33.39,2-.07-.36,0-.93,0-1.85.09-2.78.09-.6,0-3.74-.23-2.07,0a29.68,29.68,0,0,1-3.71-.68,16.31,16.31,0,0,1-6.3-2.7c-5.13-3.32-8.27-8.42-10.29-14.1-3.11-8.73-3.26-18.33-2.72-27.48a120.66,120.66,0,0,1,4.61-28.1c4.3-14,12.28-27.71,22-37.26,12-11.8,24.94-18.9,40.6-24.3,20.82-7.18,43-10,64.92-10.56,50.19-1.35,100.76,8.88,147.94,25.55,22.91,8.09,45.38,17.94,66.16,30.61,8.81,5.37,17.39,13.76,27.54,16.31,9.05,2.27,18.75-1.38,25-8,3.2-3.4.72-6.88-3.4-6.92-5.48,0-10.67,3.16-14.28,7,2.18-2.32,3.61-3.73,7-4.8l1.62-.43q2.11-.13.46-.07c-1.08-.63.19.15-1.35-.26-5.08-1.33-9.17-4.89-13.39-7.84a245,245,0,0,0-25.63-15.45,416.07,416.07,0,0,0-66.89-27.76c-51-16.45-106-25.62-159.64-20.68-42.87,3.95-87.43,17.47-117,50.49a105.2,105.2,0,0,0-23.32,44.64c-4.6,18.26-7.34,42,1.4,59.48,16.16,32.34,71.38,15.94,71.61-18.86l-19.48,9.56c12.11,9.36,29.86,5.86,42.83.14l-12.5.07c1.77,5,8.19,7.88,12.84,9.08a45,45,0,0,0,37-7c12.59-9.17,19.76-24.57,23-39.5l-13.4,10.2c21.45-4.63,43.23-1.69,62.39,9.18a120.29,120.29,0,0,1,27.79,22.17c8.54,9,15.17,19.35,22.21,29.53,24.32,35.22,57.77,68.31,100.75,78.26,40.65,9.42,88.76-2.12,113.6-37.33,18.89-26.78,25.62-60.83,28.41-92.91,1.82-20.86,2.25-42.23.25-63.11-.81-8.44-21.44-.2-20.75,7Z"/><path class="cls-2" d="M1120.52,758.06c-12,18.26-5.24,45.15,12.41,57.16,2.41,1.64,7.69-1.25,10-2.3.6-.28,9.37-5.31,8.18-6.13-17.26-11.75-24.44-37.87-12.59-55.84,1.45-2.2-7.09.46-7.43.59-3.44,1.36-8.38,3.26-10.54,6.52Z"/><path class="cls-2" d="M1154.78,770.93a64.77,64.77,0,0,0,5.07,44.08c3.67,7.17,25.16,1.33,20.63-7.52-5.67-11.09-6.71-25.35-3.76-37.42,2.24-9.19-20-7.3-21.94.85Z"/><path class="cls-2" d="M1207.17,793.34c.66-.49,1.38-.89,2.06-1.35-2.48,1.65-.39.21.19-.07,1.13-.55,2.24-1.14,3.4-1.64a52.7,52.7,0,0,1,18.84-3.75,17,17,0,0,0,12.34-6.15c1.59-1.88,4.11-7.53-.66-7.46-14.27.2-29.78,3.78-41.5,12.42-2.34,1.72-7.85,6-5.66,9.55,2.08,3.34,9-.07,11-1.54Z"/></g><g id="오락기_콘솔_-_BW" data-name="오락기 콘솔 - BW"><polygon class="cls-6" points="981.24 827.77 972.13 830 964.44 802.8 975.49 800.09 981.24 827.77"/><path class="cls-4" d="M964.43,785.83c15.92-5.71,27.84,6.51,25.85,13.14s-6.95,3.2-18.84,6.57c-12.2,3.46-13.23,7.62-19.54,3.94S948.31,791.61,964.43,785.83Z"/><rect class="cls-6" x="1132.68" y="855.23" width="34.81" height="17.45" rx="5" ry="5" transform="translate(354.69 -334.57) rotate(19.52)"/><rect class="cls-6" x="1084.07" y="842.48" width="34.87" height="17.48" rx="5" ry="5" transform="translate(155.55 -170.08) rotate(9.5)"/><rect class="cls-6" x="1017.17" y="824.27" width="10.93" height="14.01" rx="3.5" ry="3.5" transform="translate(131.58 -139.72) rotate(8.35)"/><rect class="cls-4" x="1108.55" y="844.09" width="32.7" height="16.4" rx="5" ry="5" transform="translate(283.42 -280.72) rotate(16.25)"/><rect class="cls-6" x="1033.86" y="827.51" width="10.93" height="14.01" rx="3.5" ry="3.5" transform="translate(198.03 -199.33) rotate(12.1)"/><path id="콘솔_본체" data-name="콘솔 본체" class="cls-8" d="M1196.67,889.68c6.11,14.43-36,84.67-54.67,91.67s-46.18,4.44-45.67-13.67c.67-23.69-9-63.5-27.33-70.33-20-7.44-44-10-54.67-3.67-13.36,7.93-8,50.39-24.67,61.36s-49.67.3-60.33-40-13.67-67-4-79.67,53.33-11.67,95-5.33S1189.33,872.34,1196.67,889.68Z"/><path id="콘솔_그림자_좌" data-name="콘솔 그림자 좌" class="cls-9" d="M1157,925.34c0-4.67-76.94-26.66-95.91-30.63h0c2.68.79,5.33,1.67,7.91,2.63,7.49,2.79,13.52,11.08,18,21.52h0C1110,911.72,1157,930,1157,925.34Z"/><path id="콘솔_그림자_우" data-name="콘솔 그림자 우" class="cls-9" d="M967.5,878.51c-4.25,3.75,37.73,34.35,37.73,34.35h0c1.87-8.84,4.25-16.3,9.11-19.18,6.49-3.86,17.95-4.41,30.42-2.58h0S971.75,874.76,967.5,878.51Z"/><path class="cls-10" d="M1037.33,850c-7.19,5.07-8.67,19-5,23.67s24.33,10,29.33,7.33,9.67-19,6-25.33S1043,846,1037.33,850Z"/><path class="cls-6" d="M1038.56,853.71c-5.89,4.16-7.1,15.57-4.1,19.4s19.94,8.2,24,6,7.92-15.57,4.92-20.76S1043.21,850.43,1038.56,853.71Z"/><path class="cls-10" d="M1040.09,856.89c-4.42,3.12-5.33,11.68-3.07,14.55s15,6.15,18,4.51,5.94-11.68,3.69-15.58S1043.58,854.43,1040.09,856.89Z"/><path class="cls-10" d="M1158.24,903.71a6,6,0,0,1-3.09-.86c-29.87-18-53.38-21.16-53.62-21.19a6,6,0,0,1,1.47-11.91c1.05.13,26.12,3.38,58.34,22.82a6,6,0,0,1-3.11,11.14Z"/><path class="cls-10" d="M1000.51,858.29a6,6,0,0,1-1.33-.15c-34.34-7.79-55.15-1.48-55.35-1.41a6,6,0,0,1-3.66-11.43c1-.31,23.83-7.45,61.67,1.14a6,6,0,0,1-1.32,11.85Z"/></g><g id="오른쪽_손_앞" data-name="오른쪽 손 앞"><path class="cls-1" d="M914.33,830,940,874l-4.27,77.33S873.67,881.33,914.33,830Z"/><path class="cls-1" d="M932,992.68s-1-16.67,10-20,22.33-1,31-6.67,12.33-14,11.67-17.67c0,0,19.33-3.33,23.67-18.67s-1.33-23-6.67-24.33c0,0,8.07-2.33,8.2-18.33s-11.2-15-21.2-16-64-9.33-67.33-33.67"/><path class="cls-2" d="M941.29,989.38c.21,4,.09-.69.21-2a14.64,14.64,0,0,1,1.46-6.23c-.34.71,1.87-2,.34-.77-1.26,1,1-.23,2-.45,4.78-1.07,9.76-1.09,14.6-1.73,9.84-1.29,18.77-5.3,25.52-12.71,5-5.54,9.44-12.67,8.57-20.45L983.8,956.6c11.39-2,23.06-8.24,29.55-18,7.42-11.17,10.4-36.07-6.33-41L1003.24,913c9.68-3,14.75-13.81,15.77-23.13.75-6.84.27-14.55-4.51-19.9-3.77-4.22-9.13-5.79-14.58-6.54-17.66-2.43-33.58-4.21-50.1-11.44a49.9,49.9,0,0,1-13.18-8c-3.39-2.94-5.35-5.84-6-10-1.71-10.58-20.13-3-18.57,6.6,3.07,19,26.17,27.7,42.27,32.34a201.29,201.29,0,0,0,25.59,5.6c2.68.41,5.36.72,8.07.94,2.16.18,4.35.29,6.49.65a9,9,0,0,1,3.71,1.34c3.25,2.58,2.7,10.22,1.42,14.46a14.22,14.22,0,0,1-.76,2c.39-.81,0-.1-.19.29-.63,1.3,1-.71-.58.66.81-.69,1.85-1.24.49-.47-1,.57,2.82-1.17,1.54-.76-5.53,1.74-12.48,12.88-3.78,15.46,1.33.39,1.36.2,2.23,1.39a9.87,9.87,0,0,1,1.78,4.81c.66,4.74-.57,11.28-3.34,14.55a19.13,19.13,0,0,1-7.35,4.85c-1.4.55-2.91.85-4.29,1.42s2.5-.48.19-.07c-5.59,1-10.83,5.46-10.15,11.56-.1-.85.09-.85-.1,0,.27-1.19-.17.54-.34.92a12.83,12.83,0,0,1-1.73,3,14.55,14.55,0,0,1-7.28,5.38c-8.8,2.67-18.34,1.19-27.06,4.72-12.24,5-16.8,18.08-16.16,30.36.26,5,7.36,5.61,10.86,4.37,4.86-1.71,8-5.88,7.71-11Z"/><path class="cls-2" d="M940.35,906a193.13,193.13,0,0,0,26,6.17c13.54,2.35,28.95,4,42.12-.89,4.22-1.56,2.16-5.77-.33-8-3.06-2.73-9-5.49-13.24-3.93-11.11,4.11-23.86,2.28-35.23.23a158.32,158.32,0,0,1-20-5c-2.9-.93-8.85-1.34-9,3s6.56,7.38,9.71,8.39Z"/><path class="cls-2" d="M936.16,945.65a195.86,195.86,0,0,0,20.57,7c10.27,2.92,21.79,5.54,32.43,3.2a6.1,6.1,0,0,0,4-9.4,12.76,12.76,0,0,0-13-5.56c-6.57,1.44-16.17-1.19-24-3.48-3.3-1-5.77-1.79-9.77-3.27-1.53-.56-3.06-1.14-4.57-1.76-3.87-1.58-10-1.81-12,2.71s2.65,9.06,6.35,10.58Z"/><path class="cls-2" d="M913.95,956a6.14,6.14,0,0,1-3.77-.94,13.9,13.9,0,0,1,1.7.86c-2.14-1.57.48.38.91.67.66.44,1.31.9,2,1.35a129.1,129.1,0,0,0,12.31,7.77c12.22,6.58,25.81,8.6,39.51,7.37,4.26-.38,4.76-4.28,2.23-7-3.29-3.55-8.88-4.7-13.48-4.28a35.72,35.72,0,0,1-15.66-1.87,45.72,45.72,0,0,1-9-5c-7.38-5-14.32-10.17-23.6-10.52-3.47-.13-7.49,1.77-5.58,5.7s8.45,5.77,12.47,5.92Z"/></g><g id="오락기_콘솔_줄" data-name="오락기 콘솔 줄"><path class="cls-6" d="M1007.67,1290a6,6,0,0,1-5.47-3.61c-23.9-54.12-36.68-110-38-166.22a427.94,427.94,0,0,1,18.65-134.31c22.84-75.22,58-120.83,59.48-122.73a5.91,5.91,0,0,1,8.43-1,6.24,6.24,0,0,1,.95,8.63h0c-.35.45-35.43,46-57.55,119.19a415.26,415.26,0,0,0-18,130.22c1.29,54.42,13.71,108.63,36.9,161.13a6.2,6.2,0,0,1-3,8.13A5.86,5.86,0,0,1,1007.67,1290Z"/></g></svg>