<svg xmlns="http://www.w3.org/2000/svg" xmlns:xlink="http://www.w3.org/1999/xlink" viewBox="0 0 1825 1280"><defs><style>.cls-1{fill:none;}.cls-2{fill:#3f403e;}.cls-3{fill:#2a2a2a;}.cls-4{font-size:151.1px;font-family:KomikaTitle, Komika Title;}.cls-4,.cls-6{fill:#2a2a2b;}.cls-5{fill:#ffde5b;}.cls-7{fill:#fffbec;}.cls-8{fill:#f3b056;}.cls-9{isolation:isolate;}.cls-10{clip-path:url(#clip-path);}.cls-11{fill:#aa3829;}.cls-12{clip-path:url(#clip-path-2);}.cls-13{fill:#fffffb;}.cls-14{clip-path:url(#clip-path-3);}.cls-15{clip-path:url(#clip-path-4);}.cls-16{clip-path:url(#clip-path-5);}.cls-17{clip-path:url(#clip-path-6);}.cls-18{clip-path:url(#clip-path-7);}.cls-19{clip-path:url(#clip-path-8);}.cls-20{fill:#ef6a7e;}.cls-21{fill:#343435;}.cls-22{fill:#ea9d9d;}</style><clipPath id="clip-path"><polygon class="cls-1" points="315.27 1031.9 281.46 756.4 717.79 712.9 710.71 1027.54 315.27 1031.9"/></clipPath><clipPath id="clip-path-2"><path class="cls-1" d="M447.33,997.81a3.94,3.94,0,0,1-.66,0,4.11,4.11,0,0,1-.65-.15,4.22,4.22,0,0,1-1.19-.6L322.27,907.28a4.21,4.21,0,0,1-1.07-1.14,4.28,4.28,0,0,1-.57-1.4,4.06,4.06,0,0,1,0-1.49,3.69,3.69,0,0,1,.53-1.4l44-69.19a3.86,3.86,0,0,1,.56-.69,3.72,3.72,0,0,1,.68-.53,3.67,3.67,0,0,1,.78-.35,3.72,3.72,0,0,1,1.53-.15,3.82,3.82,0,0,1,.66.13,3.91,3.91,0,0,1,.64.25,4,4,0,0,1,.59.36l128,93.51a4.09,4.09,0,0,1,1.09,1.19,4,4,0,0,1,.53,1.46,4,4,0,0,1-.06,1.54,3.91,3.91,0,0,1-.68,1.44l-49.2,65.56a3.5,3.5,0,0,1-.57.6,3.56,3.56,0,0,1-.69.45,3.71,3.71,0,0,1-.78.29,3.91,3.91,0,0,1-.85.11"/></clipPath><clipPath id="clip-path-3"><polyline class="cls-1" points="359.06 979.42 332.16 755.62 533.14 731.31 542.37 977.4 359.06 979.42"/></clipPath><clipPath id="clip-path-4"><path class="cls-1" d="M438.46,958.53h-.28l-.28,0-.28,0-.27-.06-.27-.08-.26-.1-.25-.12-.24-.14-.24-.15-.23-.16-.21-.18-.2-.19-.19-.21-.18-.22-.16-.24-.14-.25-74.32-137.7q-.1-.19-.18-.38t-.15-.39q-.06-.2-.11-.4t-.07-.4q0-.2,0-.41t0-.4q0-.2,0-.4t.07-.39q0-.19.11-.38t.14-.37q.08-.18.17-.35t.2-.33q.11-.16.24-.31l.27-.28.3-.26.33-.22,74-45.15.1-.06.1-.06.1-.05.1,0,.1,0,.1,0,.1,0,.1,0,.11,0,.11,0,.1,0,.1,0,.11,0,.11,0,.11,0h.11l.31,0h.31l.3,0,.3,0,.29.07.29.1.28.12.26.14.26.16.25.18.24.2.22.22.21.23.19.25.17.26.16.28,75.83,147.19.09.18.08.19.07.19.06.2.05.19,0,.19q0,.1,0,.19t0,.19,0,.2,0,.2,0,.2,0,.2,0,.19l0,.19-.05.2-.06.2-.07.19-.08.18-.09.18-.1.17-.11.17-.11.16-.12.16-.13.15-.14.15-.14.14-.15.13-.15.12-.17.12-.17.11-.18.1-.18.09-75.49,36-.09,0-.09,0-.09,0-.09,0-.09,0-.09,0-.09,0-.09,0-.1,0-.1,0-.1,0h-.5"/></clipPath><clipPath id="clip-path-5"><polyline class="cls-1" points="433.72 967.56 423.38 750.51 595.29 742.48 585.05 970.08 433.72 967.56"/></clipPath><clipPath id="clip-path-6"><path class="cls-1" d="M537.64,951.9h-.48l-.16,0-83.47-13.41-.19,0-.19,0-.19-.05-.18-.06-.18-.07-.17-.08-.17-.09-.17-.09-.17-.1-.16-.11-.15-.11-.15-.12-.14-.13-.14-.14-.13-.14-.12-.15-.12-.16-.11-.16-.1-.16-.09-.17-.08-.17-.07-.17-.06-.17-.05-.18,0-.18,0-.18q0-.09,0-.19t0-.19,0-.18,0-.18,0-.19,0-.19l20.28-160.35q0-.21.07-.41t.11-.4q.06-.2.14-.38t.17-.37q.09-.18.19-.35t.22-.33l.24-.3.27-.28.29-.26.31-.23.33-.2.34-.17.36-.14.38-.11.39-.07.4,0h.51l.18,0,93.16,11.83.22,0,.22,0,.21.05.21.07.2.08.2.09.19.1.19.11.18.11.18.12.17.13.16.14.15.15.15.16.14.17.13.18.12.19.11.19.1.2.09.2.08.2.07.21.06.21,0,.22,0,.22q0,.11,0,.22t0,.22,0,.22,0,.23,0,.23,0,.23,0,.23l-30.38,162q0,.17-.08.34t-.11.33q-.06.16-.14.31t-.17.3l-.2.28-.22.26-.24.24-.26.22-.28.2-.3.18-.31.15-.33.12-.34.1-.35.07-.36,0h-.37"/></clipPath><clipPath id="clip-path-7"><polyline class="cls-1" points="474.06 1015.09 467.32 782.5 716.19 784.01 676.28 1027.92 474.06 1015.09"/></clipPath><clipPath id="clip-path-8"><path class="cls-1" d="M567.61,1001.74h-.14l-.14,0-.14,0-.14,0-.14,0-.14,0-.14,0-.14,0-.13,0-.13,0-.13-.05-.12-.05-.13-.06-.12-.07-.12-.07-.12-.08L496,955.65l-.17-.11-.16-.12-.15-.13-.14-.13-.14-.14-.13-.14-.12-.15-.12-.15-.1-.16-.1-.16-.09-.17-.09-.17-.07-.17-.06-.18-.06-.18,0-.18,0-.19q0-.09,0-.19t0-.18,0-.18,0-.19,0-.18,0-.18,0-.18l0-.18,0-.17.05-.17.06-.17.07-.17.08-.16.09-.16.1-.16,94.92-137.11.19-.25.2-.24.21-.22.22-.21.23-.2L591,812l.25-.16.26-.15.27-.14.28-.12.28-.1.28-.08.29-.06.29,0,.3,0h.64l.17,0,.16,0,.16,0,.16,0,.16,0,.16,0,.16.06.15.06.15.07.15.07.14.08.14.08.14.09.14.09,77.83,55.81.18.13.17.14.15.15.14.16.14.16.13.17.12.17.11.18.1.19.09.19.08.2.07.2.05.21,0,.21q0,.11,0,.22t0,.22,0,.22,0,.22,0,.22,0,.22l0,.22,0,.22-.05.22-.06.21-.08.22-.09.21-.1.21-.11.2-.12.2-.13.2-.14.19-.15.18L571,1000.32l-.16.18-.17.16-.17.15-.18.15-.2.13-.2.12-.21.11-.22.1-.22.09-.23.07-.24.06-.24,0-.24,0-.25,0h-.51"/></clipPath></defs><title>cats_slide_03-CAN</title><g id="몸"><path class="cls-2" d="M580.11,1340.57s18-144,48-243,13.5-195-15-393-36-471-25.5-538.47c0,0,86.75,216,102.62,280.49,0,0,66.77-42.94,163.43-38.94,0,0-5.33-136.67,32.67-304,0,0,109.25,534.93,199.25,671.42s147,148.49,189,162S1426,1029,1400,1063s-34,52-188,20c0,0,62,142,81,205v52.56H580.11Z"/></g><g id="몸_copy" data-name="몸 copy"><path class="cls-3" d="M590,1345.31a1800.59,1800.59,0,0,1,33.31-187.57c8.4-35.77,20.87-70.59,26.26-107,4.9-33.09,5.23-66.73,3.48-100.08-4.9-93.26-22.93-185.39-34.68-277.89-11.95-94.08-18.85-188.86-22.7-283.6-1.65-40.57-2.7-81.17-2.65-121.78,0-27.91.26-56,2.94-83.8.41-4.25.9-8.49,1.54-12.7l-19.29-5.29q15.28,38.06,30.06,76.32c18.36,47.29,36.47,94.72,53.16,142.63,3.92,11.25,7.75,22.53,11.36,33.88,3,9.53,5.2,16.54,7.42,25.49,1.52,6.13,11,14.84,17.76,10.5,13.4-8.58,28.66-15,43.58-20.26A310.66,310.66,0,0,1,857.3,416.31c3.94.15,6.49-2,6.33-5.92-.7-18.2-.22-36.5.44-54.69A1353.28,1353.28,0,0,1,877,213.32q7.55-52.81,19.31-104.9L876.36,101c3.13,15.34,6.42,30.64,9.74,45.94q12.57,58.06,26.14,115.9,18.21,77.72,38.37,155c14.31,54.5,29.46,108.81,46.33,162.59,14.45,46.08,29.93,92.05,49.25,136.35,21.78,49.94,52.32,94.74,88.11,135.83,31.58,36.25,68.64,67.09,114.14,83.8,6.88,2.52,13.85,4.75,20.84,6.94l4.54,1.43,2.3.74c.63.21,3.29,1.16,2.34.81s1.7.7,2.16.88q1.61.67,3.2,1.38c2.64,1.17,5.24,2.42,7.82,3.72a321.34,321.34,0,0,1,64.27,43.46c9.46,8.2,19.22,17.52,26.32,26.73,5.89,7.64,10.71,14.8,11.6,23.25a16.16,16.16,0,0,1-1.53,8.61,75.33,75.33,0,0,1-5.8,7.92,135.52,135.52,0,0,1-11.47,13.58c-.47.47-.95.93-1.43,1.38l-.49.41c-1.09.92-2.19,1.81-3.34,2.65a51,51,0,0,1-7.57,4.58,31.08,31.08,0,0,1-7.59,2.92,80.79,80.79,0,0,1-11.27,2.34c-22.86,3.2-49.15-.59-72.84-4.22-20-3.06-39.84-6.95-59.63-11-5.23-1.08-11,1.33-8.21,7.67q18.34,42,35.67,84.45c9.57,23.33,19,46.75,27.85,70.35,3.92,10.39,7.74,20.83,11.35,31.33,1.56,4.54,3.08,9.1,4.53,13.67.33,1,.69,2.09,1,3.15.9,3.21,0-.84,0,0s0,1.79,0,2.68v49.73l6.33-5.92H576.47c-4.87,0-7.51,3.42-5.72,8.09s7.89,9.18,13,9.18h602.66c36.19,0,72.41.44,108.59,0h1.64c4.06,0,6.33-1.88,6.33-5.92v-46.12c0-6.65-1.54-11.77-3.63-18.18-3.4-10.43-7.1-20.77-10.89-31.06-16.47-44.64-34.76-88.63-53.37-132.42q-6.8-16-13.73-32l-8.21,7.67c35.5,7.35,71.58,14.71,107.86,16.74,18.2,1,37.49.83,54.48-6.56,11.32-4.92,19.83-13.94,27.29-23.52,4.33-5.55,9.45-11.13,10.77-18.28,1.85-10-2.3-20.06-7.12-28.59-13.21-23.37-35.36-42-56.41-58.06-20.52-15.67-43-30.66-66.94-40.51-7.55-3.1-15.37-5.35-23.13-7.85-3.53-1.13-7-2.3-10.53-3.53l-2.55-.92-1.1-.41c-1.42-.52,1.8.69.38.14-1.9-.73-3.79-1.47-5.67-2.25a205.33,205.33,0,0,1-24.4-12c2.17,1.25-1.35-.82-1.77-1.07l-2.65-1.65q-3.66-2.32-7.23-4.78-7.28-5-14.18-10.57c-23.2-18.58-45.33-43.71-64.14-68.31-12-15.73-23.6-31.93-34.23-48.63q-3.2-5-6.15-10.22-.73-1.27-1.44-2.55c1,1.75-.4-.74-.63-1.16q-1.68-3.11-3.31-6.23c-20.53-39.51-35.79-81.83-50-123.93-17.67-52.2-33.16-105.12-47.69-158.27C968,414.72,954.35,360.92,941.37,307q-15.66-65.13-30.07-130.55-7.38-33.47-14.38-67l-.62-3c-1-4.89-5.23-8.82-9.82-10.45-3.45-1.22-9-1.71-10.09,3-21.24,94-32.95,190.87-33,287.29,0,6.24,0,12.49.26,18.73L850,399c-54.09-2-109.75,9.06-157.88,34.3-3.28,1.72-6.58,3.49-9.7,5.49l17.76,10.5c-10.5-42.38-26.8-83.62-42-124.46Q633.82,259.32,608,194.33q-5.47-13.83-11-27.65c-1.92-4.79-17.74-15.4-19.29-5.29-3.69,24.07-3.9,48.79-4.32,73.08-.65,37.82,0,75.66,1.13,113.46,2.87,94.09,9.06,188.2,19.5,281.76,10.62,95.19,28.8,189.49,37,285,3,34.5,4.46,69.28,1.42,103.84a373.24,373.24,0,0,1-6.94,46.24c-3.75,17.31-9.28,34.12-13.88,51.2-19,70.59-31.35,143.29-40.88,215.73q-.27,2.09-.54,4.18C569.05,1344.8,588.79,1355.3,590,1345.31Z"/><text class="cls-4" transform="translate(1188.52 257.99)">This is</text><text class="cls-4" transform="translate(1186.52 423.62)">my turn</text></g><g id="귀_장식" data-name="귀 장식"><path class="cls-5" d="M947.66,298.69c-.23,0-.47,0-.71,0l-36.38-3.4a7.5,7.5,0,1,1,1.4-14.93l36.38,3.4a7.5,7.5,0,0,1-.69,15Z"/><path class="cls-5" d="M960.51,341.52a7.53,7.53,0,0,1-.81,0l-40.9-4.42a7.5,7.5,0,1,1,1.61-14.91l40.9,4.42a7.5,7.5,0,0,1-.8,15Z"/></g><g id="왼쪽_손_아래" data-name="왼쪽 손 아래"><path class="cls-2" d="M1284,1024.51s-23-24.5-22-71-31-60-41-66l31.5-81s17.5-23.5,42.5,6,107,163.5,116,195-11.35,88.68-66.51,91.59"/><path class="cls-2" d="M1108,853.76c-13.75-3.25-19-19.75-10.75-30.75s27,1,46.5-10.25S1207,779,1240.5,781.26s60.21,38.47,60.21,38.47"/><path class="cls-6" d="M1105.67,846.93c-2.38-.64-.42.17.27,1a8.86,8.86,0,0,1-1.81-2.94,16.1,16.1,0,0,1-.29-10.48c2.65-8.53,9.29-9.2,17.09-9,11,.21,21.3-.21,31.16-5.58,6.39-3.48,12.7-7.06,19.23-10.28,17.24-8.51,35.52-16.11,54.55-19.42,8.65-1.5,17.91-2.46,26.55-.45,7.65,1.79,12.78,4.73,18.9,9a97.48,97.48,0,0,1,15.23,13.52c1.66,1.79,3.27,3.62,4.82,5.5,1,1.19,2.91,3.81.67.78,3.13,4.23,8,8,13.34,8.67,4.09.54,6.81-2.32,4-6.13-20.52-27.67-53.28-50.45-88.93-46.94-22.52,2.22-44.42,10.9-64.59,20.76-8.5,4.15-16.65,9.82-25.44,13.29-10.53,4.15-21.44.72-32.15,2.82s-16.06,12.45-14.45,22.86c2,13.18,14.08,23.45,26.51,26.81,3.21.87,8.55,1.16,7.24-3.73-1.22-4.54-7.65-8.8-11.89-9.94Z"/><path class="cls-2" d="M1177.5,832.51s-5.5,51.67,56.5,40.34S1248.5,801,1217,815,1177.5,832.51,1177.5,832.51Z"/></g><g id="보드게임_말" data-name="보드게임 말"><path class="cls-7" d="M1143.37,878.8l-8.6-53.36a20.82,20.82,0,1,0-14.89,0l-8.6,53.4c-13.15,7-22.38,22.3-22.79,40.18a2,2,0,0,0,1.13,1.84c6.1,3,35.89,15.61,75.33-.07a2,2,0,0,0,1.27-1.91C1165.77,901,1156.52,885.76,1143.37,878.8Z"/><path class="cls-8" d="M1115.4,770.46l5.59,8,5.57-10.91a.5.5,0,0,1,.88,0l6,10.93,5.83-9.07a.5.5,0,0,1,.92.27v18.89a1,1,0,0,1-.66.94c-1.25.44-4.56,1.21-12.21,1.21s-11-.78-12.21-1.21a1,1,0,0,1-.66-.94V770.75A.5.5,0,0,1,1115.4,770.46Z"/></g><g id="왼쪽_손" data-name="왼쪽 손"><path class="cls-2" d="M1267,889c-8.75-1-24.13,2.67-30.19,8.33S1221.75,918.76,1205,921s-38.25-5-38.75-10.75c0,0-22,2.25-29.25-7s-2.75-21.5-2.75-21.5-26.75,5-34-4.75-5.5-23,3.75-31.75,30.75-2.75,40.75-9.25,10.75-11.75,10.75-11.75"/></g><g id="왼쪽_손_stroke" data-name="왼쪽 손 stroke"><path class="cls-6" d="M1292.13,818q1.39,1.65,2.73,3.35.86,1.09,1.7,2.19c.83,1.08,2,2.69.43.55,2.63,3.6,5.25,7.21,7.8,10.86,6.46,9.26,12.7,18.68,18.84,28.16q22,34,42.44,69,5,8.57,9.9,17.2l2.21,3.93c-1-1.82,1,1.87,1.23,2.21q2.33,4.2,4.62,8.41c4.93,9.07,9.74,18.21,14.13,27.56,1.58,3.36,3,6.75,4.47,10.18-.27-.65-.59-1.69.08.27.21.62.44,1.24.64,1.86s.36,1.12.52,1.69c.4,1.39.63,2.61.54,2.1,1.83,10.21.92,20.4-2.09,30.68-8.45,28.76-32.37,49.2-62.5,51-8,.49,1.77,20.26,9.36,19.8,28.64-1.75,52.71-19,64.14-45.27,9.11-20.92,9.67-43.37,1-64.4-8.56-20.83-20.15-40.59-31.3-60.11q-21.08-36.91-44-72.76c-12.86-20.19-25.72-41-41.19-59.39-2.08-2.47-7.35-6.82-10-2.84s2,11,4.29,13.72Z"/><path class="cls-6" d="M1286.87,1019.08c-.23-.25-.45-.51-.68-.77s-.52-.65-.79-1c-1.16-1.35-1.33-.4.47.66-.88-.52-1.8-2.55-2.37-3.42s-1-1.64-1.55-2.47c-.32-.52-2.05-3.74-.61-1a93.87,93.87,0,0,1-10.52-32.44c-2.32-16.62.06-33.21-5.31-49.42a83.82,83.82,0,0,0-23.14-35.46c-2.69-2.47-7.69-4.05-8.59.78-.94,5,3.33,10.88,6.72,14q.74.67,1.47,1.37-1.08-1.12.24.26c1,1,1.92,2.12,2.83,3.22s.92,1.15.24.25q.67.93,1.31,1.88c.65,1,1.29,2,1.88,3-.74-1.3,1.18,2.46,1.37,2.87a35,35,0,0,1,1.4,3.59,53.51,53.51,0,0,1,2.18,8.93c1.3,8.45.63,16.93,1.1,25.42a135.31,135.31,0,0,0,3.67,24.1c3.91,16.25,11.34,34.07,22.93,46.51,2.19,2.35,7.29,6.91,10,2.84,2.53-3.75-1.88-11.13-4.29-13.72Z"/><path class="cls-6" d="M1267.21,880.34a58,58,0,0,0-31,6.11c-7.92,4.11-12.19,11.32-18.38,17.41-6.56,6.45-13.83,9.37-23,8.78a55.46,55.46,0,0,1-14.33-2.68c-1.17-.39-2.33-.81-3.46-1.31-3.28-1.45,1.38.78-1.41-.75-1.13-.62-1.24-1.8-.72-.42.13.33,1.22,3,.95,1.56-1-5.14-7.26-7.87-11.9-7.41-.65.06-1.3.11-1.94.14l-2,.08q-1,0,.5,0l-1.38,0c-4.34-.19-8.66-.61-11.66-1.64a5.08,5.08,0,0,1-2.61-1.48,10.74,10.74,0,0,1-2-4.95,16.68,16.68,0,0,1,.87-8.69c2.39-6.75-5.41-13.11-11.77-11.94-7.53,1.38-13.61,1.93-20.82.57,1.62.3-1.09-.31-1.34-.39q-.92-.3-1.8-.69,1.53.72,0-.15c1.58,1.66-.15-.4.12,0a13.52,13.52,0,0,1-2-4.18c-1.54-5.43.37-11.4,4.14-15.49,3.24-3.52,8-3.77,12.82-4.14,6-.45,12-.33,17.94-1.6,10.53-2.27,22.34-10.49,24.31-21.74.89-5.07-5.35-9.26-9.64-9.7-5.35-.55-9.17,2.55-10.07,7.64q.67-3.21.31-1.85a7.45,7.45,0,0,1-.25.71q-.53,1.15.25-.4a17.05,17.05,0,0,1-1,1.42,27.64,27.64,0,0,1-6.75,5.85c-5,2.54-12.6,1.93-18.48,2.3-7.13.46-14.8,1.5-20.8,5.71-6.74,4.74-11.2,12.73-12.56,20.74a30.47,30.47,0,0,0,5.16,22.68c4.35,6.13,10.9,9,18.08,10.43,8.67,1.72,18.24,1.17,26.92-.42l-11.77-11.94c-4.47,12.62-.64,28.78,11.64,35.44,9.56,5.18,21.45,6,32.12,5l-11.9-7.41c1.92,10.19,16.25,14.47,24.77,16.44,12.54,2.91,26.79,3.83,38.56-2.26,9.41-4.87,16.22-12.74,23-20.7.28-.33,2-2,.57-.71a17.77,17.77,0,0,1,2.56-1.95,30,30,0,0,1,6.12-2.6,37.59,37.59,0,0,1,14.57-2c4.73.43,9.92-2.44,10.07-7.64s-4.81-9.27-9.64-9.7Z"/><path class="cls-6" d="M1140.62,887.89c10.74-4.71,21.75-9.9,29.24-19.26,5.78-7.21-12-15.95-16.91-9.82-6.84,8.54-16.53,12.93-26.33,17.23-4.31,1.89-2.27,6.8.41,9.11,3.47,3,9.22,4.66,13.58,2.75Z"/><path class="cls-6" d="M1158.15,918.47c9,.13,17-3.33,24.26-8.4,7-4.85,13.39-10.36,17.63-17.8,2.52-4.43-1.83-9.37-6-10.38-5.32-1.3-10.14,1.37-12.71,5.89-2.16,3.79-7,6.79-10.44,9.32s-6.83,4.55-11.06,4.49c-4.78-.07-10.26,3.25-10.75,8.36s4.39,8.46,9,8.52Z"/></g><g id="카드"><g class="cls-9"><g class="cls-10"><path class="cls-11" d="M427.69,974.82l-9.06,2.59,9.92,7.27,3.3-.93-3.59-7.87-.58-1.06M447.59,972,438.84,976l2.32,5.11-9.3,2.61,2.3,5,4.34,3.17,6.74-1.87-4.07-8.95,9.38-2.64L447.59,972m28.78-11.05-1.35.39.39.89,1-1.28m-2.13-1.36-9,4.17.14.31-2.08.59-6.95,3.23,3.58,8-9.44,2.66,4.06,9-9.36,2.6,3.25,7.16a3.34,3.34,0,0,0,.42-.19,3.26,3.26,0,0,0,1-.9l5.36-7.14-.69-1.53,2.33-.65,5-6.67L460,975.83l6.6-1.86,2.06-2.75L465.42,964l9.6-2.74-.77-1.74m-56.14-2.35-7.81,2.29,4.13,9-5.72,1.66,9.76,7.15-4-8.8L422.9,966l-4.8-8.83m-9.67-17.77-6.47,2,4.17,9.08L397,953.2l4.15,9-2.33.69,4,2.93-1.67-3.62,9.18-2.7-4.16-9,7.14-2.13-4.84-8.91m-9.74-17.91-5.12,1.59,4.21,9.16-9.2,2.82,4.19,9.07-9.11,2.76,3.44,7.4,1.76,1.29,8.1-2.42-4.18-9,9.19-2.78-4.18-9.11,5.79-1.78-4.88-9m-9.82-18-3.77,1.21,4.24,9.24-9.21,2.9,4.24,9.16-9.13,2.84,4.22,9.07-9.06,2.78,1,2.19,7.51,5.5,4.72-1.43-4.19-9,9.12-2.79L384.38,926l9.19-2.86-4.22-9.19,4.45-1.4-4.92-9M321.42,902v0a3.43,3.43,0,0,0-.45,1.1,3.54,3.54,0,0,0-.08.6,3.7,3.7,0,0,0,0,.61l1.4-.46-.89-1.87M379,885.27l-2.42.8,4.28,9.32-9.21,3,4.27,9.24-9.13,2.92L371,919.7,362,922.56l4.24,9.08-7.08,2.2,9.91,7.25,1.39-.43-4.22-9,9.05-2.82L371,919.7l9.13-2.88-4.25-9.19,9.21-2.95-4.27-9.28,3.1-1-5-9.11m-10-18.34-1.08.36,4.33,9.4L363,879.77l4.3,9.33-9.14,3,4.29,9.24-9.07,2.94,4.27,9.15-9,2.88L353,925.4l-3.75,1.18,6.56,4.8-2.81-6,9-2.84-4.26-9.12,9.07-2.89-4.28-9.2,9.14-3-4.29-9.28,9.22-3-4.3-9.37,1.74-.58-5-9.18m-23.67-2.52L339.27,874l1.21,2.6-3.65,1.23-3.58,5.62,2.55,5.43-7.61,2.53-.89,1.39,3.88,8.21-8.88,2.92,2.17,4.57,4.92,3.6,6.08-2-4.3-9.12,8.94-2.94-4.32-9.19,9-3-4.33-9.28,9.08-3.07-4.22-9.08m6.14-9.66L345.61,864l8.77-3-2.89-6.24m9.58-2.44,2.54,5.53L354.37,861l4.34,9.4-9.16,3.09,4.34,9.33-9.08,3,4.32,9.23-9,3,4.3,9.16-8.93,2.9,4.28,9.07-.46.15.82.6-.35-.75,8.94-2.86-4.29-9.11,9-2.92-4.29-9.2,9.07-3-4.31-9.28,9.14-3.05-4.32-9.37,9.22-3.11-4.34-9.46.4-.14-2.93-5.39m-3.7-6.8L354.53,850l4.43-1.54-1.59-2.93m-9.13-16.79L300.57,905a4,4,0,0,0-.55,1.51,4.42,4.42,0,0,0,.06,1.61,4.68,4.68,0,0,0,.63,1.51,4.59,4.59,0,0,0,1.16,1.23L448.27,1018.1a4.6,4.6,0,0,0,.64.39,4.5,4.5,0,0,0,.67.27,4.44,4.44,0,0,0,.69.16,4.37,4.37,0,0,0,.7,0,4.24,4.24,0,0,0,.89-.11,4.06,4.06,0,0,0,.84-.29,3.88,3.88,0,0,0,.76-.48,3.82,3.82,0,0,0,.64-.66l36.4-47.73-13.35-8.65L450.5,996.58a3.82,3.82,0,0,1-.64.67,3.9,3.9,0,0,1-.76.49,4.07,4.07,0,0,1-.85.3,4.24,4.24,0,0,1-.9.12,4.37,4.37,0,0,1-1.4-.2,4.44,4.44,0,0,1-.68-.28,4.58,4.58,0,0,1-.64-.39L322.1,907.56a4.58,4.58,0,0,1-1.16-1.24,4.65,4.65,0,0,1-.62-1.53,4.42,4.42,0,0,1,0-1.62,4,4,0,0,1,.58-1.53L357,844.78l-8.73-16.05"/><g class="cls-12"><polyline class="cls-13" points="358.95 848.44 354.53 849.98 351.49 854.76 354.37 861 363.6 857.84 361.06 852.32 358.95 848.44"/><polyline class="cls-13" points="363.99 857.71 363.6 857.84 367.94 867.3 369.01 866.93 363.99 857.71"/><polyline class="cls-13" points="354.37 861 345.61 864 345.34 864.42 349.56 873.5 358.72 870.4 354.37 861"/><polyline class="cls-13" points="367.94 867.3 358.72 870.4 363.04 879.77 372.26 876.7 367.94 867.3"/><polyline class="cls-13" points="374.01 876.12 372.26 876.7 376.56 886.07 378.99 885.27 374.01 876.12"/><polyline class="cls-13" points="339.27 873.97 336.83 877.8 340.48 876.57 339.27 873.97"/><polyline class="cls-13" points="349.56 873.5 340.48 876.57 344.81 885.85 353.9 882.82 349.56 873.5"/><polyline class="cls-13" points="363.04 879.77 353.9 882.82 358.2 892.1 367.35 889.1 363.04 879.77"/><polyline class="cls-13" points="376.56 886.07 367.35 889.1 371.64 898.38 380.84 895.39 376.56 886.07"/><polyline class="cls-13" points="383.94 894.38 380.84 895.39 385.11 904.67 388.88 903.47 383.94 894.38"/><polyline class="cls-13" points="333.26 883.42 328.19 891.39 335.81 888.86 333.26 883.42"/><polyline class="cls-13" points="344.81 885.85 335.81 888.86 340.12 898.05 349.13 895.09 344.81 885.85"/><polyline class="cls-13" points="358.2 892.1 349.13 895.09 353.43 904.29 362.49 901.34 358.2 892.1"/><polyline class="cls-13" points="371.64 898.38 362.49 901.34 366.77 910.54 375.9 907.62 371.64 898.38"/><polyline class="cls-13" points="385.11 904.67 375.9 907.62 380.15 916.81 389.35 913.91 385.11 904.67"/><polyline class="cls-13" points="393.8 912.51 389.35 913.91 393.58 923.11 398.7 921.51 393.8 912.51"/><polyline class="cls-13" points="474.58 959.39 474.25 959.55 475.02 961.29 476.37 960.9 476.55 960.67 474.58 959.39"/><polyline class="cls-13" points="327.31 892.78 321.42 902.03 322.31 903.91 331.19 900.99 327.31 892.78"/><polyline class="cls-13" points="340.12 898.05 331.19 900.99 335.49 910.11 344.42 907.21 340.12 898.05"/><polyline class="cls-13" points="353.43 904.29 344.42 907.21 348.7 916.32 357.7 913.44 353.43 904.29"/><polyline class="cls-13" points="366.77 910.54 357.7 913.44 361.96 922.56 371.02 919.7 366.77 910.54"/><polyline class="cls-13" points="380.15 916.81 371.02 919.7 375.25 928.82 384.38 925.97 380.15 916.81"/><polyline class="cls-13" points="393.58 923.11 384.38 925.97 388.59 935.09 397.79 932.27 393.58 923.11"/><polyline class="cls-13" points="403.58 930.49 397.79 932.27 401.97 941.38 408.44 939.42 403.58 930.49"/><polyline class="cls-13" points="465.28 963.72 463.34 964.62 465.42 964.03 465.28 963.72"/><polyline class="cls-13" points="475.02 961.29 465.42 964.03 468.63 971.22 475.41 962.18 475.02 961.29"/><path class="cls-13" d="M322.31,903.91l-1.4.46v.24l0,.08a4,4,0,0,0,.21.67,3.92,3.92,0,0,0,.32.62,3.85,3.85,0,0,0,1,1l2,1.48-2.17-4.57"/><polyline class="cls-13" points="335.49 910.11 329.4 912.08 339.3 919.33 339.77 919.18 335.49 910.11"/><polyline class="cls-13" points="348.7 916.32 339.77 919.18 340.12 919.93 349.21 926.58 352.96 925.4 348.7 916.32"/><polyline class="cls-13" points="361.96 922.56 352.96 925.4 355.77 931.38 359.12 933.84 366.2 931.64 361.96 922.56"/><polyline class="cls-13" points="375.25 928.82 366.2 931.64 370.41 940.67 379.47 937.88 375.25 928.82"/><polyline class="cls-13" points="388.59 935.09 379.47 937.88 383.67 946.92 392.78 944.16 388.59 935.09"/><polyline class="cls-13" points="401.97 941.38 392.78 944.16 396.96 953.2 406.14 950.46 401.97 941.38"/><polyline class="cls-13" points="413.28 948.33 406.14 950.46 410.29 959.49 418.1 957.19 413.28 948.33"/><polyline class="cls-13" points="456.4 967.86 447.59 971.96 450.53 978.49 459.97 975.83 456.4 967.86"/><polyline class="cls-13" points="466.57 973.97 459.97 975.83 461.92 980.16 466.57 973.97"/><polyline class="cls-13" points="370.41 940.67 369.03 941.09 371.43 942.86 370.41 940.67"/><polyline class="cls-13" points="383.67 946.92 378.94 948.35 387.1 954.33 383.67 946.92"/><polyline class="cls-13" points="396.96 953.2 388.86 955.62 398.78 962.88 401.11 962.19 396.96 953.2"/><polyline class="cls-13" points="410.29 959.49 401.11 962.19 402.78 965.81 408.7 970.14 414.42 968.49 410.29 959.49"/><polyline class="cls-13" points="422.9 966.02 414.42 968.49 418.46 977.29 418.63 977.41 427.69 974.82 422.9 966.02"/><path class="cls-13" d="M428.27,975.88l3.59,7.87,9.3-2.61L438.84,976l-4.77,2.22-.1,0-.1,0-.1,0-.1,0-.1,0-.1,0-.1,0-.1,0-.1,0-.1,0-.1,0-.1,0h-.74l-.29,0-.28,0-.28-.07-.29-.09-.28-.11-.27-.12-.27-.14-.25-.16-.24-.18-.23-.19-.22-.21L429,977l-.19-.24-.18-.26-.16-.28-.2-.37"/><polyline class="cls-13" points="450.53 978.49 441.16 981.13 445.23 990.08 454.59 987.48 450.53 978.49"/><polyline class="cls-13" points="456.92 986.83 454.59 987.48 455.28 989.01 456.92 986.83"/><polyline class="cls-13" points="431.86 983.75 428.56 984.68 434.16 988.78 431.86 983.75"/><path class="cls-13" d="M445.23,990.08,438.49,992l6.55,4.8a3.87,3.87,0,0,0,.52.32,3.71,3.71,0,0,0,.56.23,3.63,3.63,0,0,0,1.19.17l.3,0,.3,0,.29-.07.28-.09-3.25-7.16"/></g><path class="cls-13" d="M357,844.78l-36.12,56.86a4,4,0,0,0-.58,1.53,4.42,4.42,0,0,0,0,1.62,4.65,4.65,0,0,0,.62,1.53,4.58,4.58,0,0,0,1.16,1.24l122.54,89.73a4.58,4.58,0,0,0,.64.39,4.44,4.44,0,0,0,.68.28,4.37,4.37,0,0,0,1.4.2,4.24,4.24,0,0,0,.9-.12,4.07,4.07,0,0,0,.85-.3,3.9,3.9,0,0,0,.76-.49,3.82,3.82,0,0,0,.64-.67l26.66-35.51-.61-.4-.18.24-1,1.28-6.78,9L466.57,974l-4.65,6.19-5,6.67L455.28,989l-5.36,7.14a3.27,3.27,0,0,1-1,.9,3.34,3.34,0,0,1-.42.19l-.28.09-.29.07-.3,0-.3,0a3.63,3.63,0,0,1-1.19-.17,3.71,3.71,0,0,1-.56-.23,3.87,3.87,0,0,1-.52-.32l-6.55-4.8-4.34-3.17-5.6-4.1-9.92-7.27-.17-.12-9.76-7.15-5.92-4.34-4-2.93-9.92-7.26-1.76-1.29-8.16-6-7.51-5.5L369,941.09l-9.91-7.25-3.35-2.45-6.56-4.8-9.09-6.66-.82-.6-9.9-7.25-4.92-3.6-2-1.48a3.85,3.85,0,0,1-1-1,3.92,3.92,0,0,1-.32-.62,4,4,0,0,1-.21-.67l0-.08v-.24a3.7,3.7,0,0,1,0-.61,3.54,3.54,0,0,1,.08-.6,3.43,3.43,0,0,1,.45-1.1v0l5.89-9.25.89-1.39,5.06-8,3.58-5.62,2.44-3.83,6.08-9.55.26-.42,5.88-9.25,3-4.78,2.84-4.46-.4-.74"/><g class="cls-14"><path class="cls-11" d="M438.24,951.16l-.24,7h1l.09,0,.09,0,.09,0,.09,0,.08,0,.08,0,.09,0,.08,0,.08,0,.08,0L448,954l0-1.2-9.77-1.6m-18.75-23.84,5.89,10.91,3.46.65-.15,5.48,2.54,4.72,2.71.52-.09-.1-.09-.1-.09-.1-.08-.1q-.13-.16-.24-.33t-.2-.35q-.09-.18-.17-.36t-.14-.37l0-.08,0-.08,0-.08,0-.08-.06-1.27h0l.75-6.43-4.61-.87.27-9.78-9.62-1.78m-5.92-11,5.82,10.79.22-9.69-6-1.1m-5.94-11L410,909.8l.07-4-2.48-.44m-24.11-44.67,6.07,11.25,1.49.25,0,2.49,4.56,8.46,5.06.87-.11,8.31,1.06,2,8.65,1.51-.19,10,9.75,1.73-.24,9.94,9.78,1.78-.29,9.87,5.46,1,1.13-9.74-6.31-1.15.27-10-9.8-1.75.22-10-9.79-1.71.18-10.11L400.7,884l.14-10.19-9.75-1.63.1-10.24-7.66-1.26m-6.11-11.32,4.06,7.51,0-6.86-4.09-.65M371.27,838l.51.93v-.86l-.51-.07M362,813.31l0,0-.13.08-.13.09-.12.1-.12.1-.11.11-.11.11-.1.12-.1.12-.09.13-.09.13-.08.14-.07.14-.07.14-.06.14-.06.15-.05.15,1.55.23,0,5.32,3.08,5.71,6.68,1v10.5l9.76,1.52,0,10.43,9.76,1.56-.08,10.36,9.8,1.59-.15,10.28,9.83,1.64-.19,10.22,9.85,1.68-.24,10.14L430,899.2l-.29,10.07,7.18,1.28L438,900.6l-8-1.4.29-10.17-9.91-1.69.23-10.24-9.89-1.66.19-10.31L401,863.52l.14-10.39-9.86-1.57.1-10.46-9.83-1.53,0-10.53-9.8-1.49V817L362,815.5v-2.2m11.25-6.86-1.46.89V817l9.86,1.45L381.58,829l9.88,1.5-.1,10.57,9.91,1.54-.15,10.49,9.92,1.58-.19,10.41,9.95,1.62-.24,10.35,10,1.66L430.24,889l8.93,1.53,1.18-10.16-9.83-1.64.3-10.38-10-1.64.24-10.44-10-1.6.19-10.51-10-1.55.14-10.59-9.94-1.51.09-10.67-9.92-1.47,0-10.75-8.44-1.2m14.45-8.8-6,3.64,0,6.36,10,1.44-.1,10.78,10,1.47-.15,10.71,10,1.52-.19,10.63,10,1.56L421,856.31l10.07,1.6-.3,10.48L440.9,870l-.26,7.76.89-7.65-.63-.1.34-10.51-10.13-1.62.29-10.58-10.12-1.56.25-10.66-10.1-1.53.2-10.74-10.08-1.49.15-10.81-10.06-1.44.11-10.88-4.07-.57M402,788.91l-10.22,6.23,0,3.07,10.09,1.4-.14,10.92L411.83,812l-.19,10.84,10.15,1.5-.25,10.76,10.17,1.55-.3,10.68,10.2,1.59-.36,10.61,1.5.24L444,849.28l-2.36-.37.35-10.72-10.24-1.55.3-10.79-10.22-1.52.24-10.88L411.83,812l.2-11-10.18-1.43.15-10.7m10.36-6.32-9.93,6.05,9.8,1.32L412,801l10.25,1.43-.26,11,10.28,1.48-.3,10.92,10.29,1.52-.35,10.82,3.24.49,1.24-10.7-4.13-.61.37-10.95-10.36-1.49.32-11-10.34-1.45.26-11.1-10.3-1.4.13-7.37m10.52-6.41-5.39,3.29,5.29.69-.25,11.21,10.38,1.41-.3,11.14,10.4,1.45-.35,11.05,5,.73L449,806.2l-5.94-.83.37-11.16-10.47-1.43.32-11.24-10.45-1.37.09-4m10.69-6.51-.67.41.66.08-.32,11.38,10.52,1.38-.37,11.29,6.86.93.74-6.39-2.7-5.24-4.53-.6.25-7.69-2.06-4-8.39-1.08v-.48m10.78-27.62-.27,0H444l-.08,0-.08,0-.08,0-.12,0-.12,0-.12,0-.12,0-.12,0-.12,0-.12.05-.11.05-.11.06-.11.06-.11.06-.11.07L340.7,806.21a3.71,3.71,0,0,0-.35.24,3.83,3.83,0,0,0-.32.28,4,4,0,0,0-.29.31q-.13.16-.25.34t-.21.36q-.1.19-.18.38t-.15.4q-.06.2-.11.41t-.06.37q0,.19,0,.37t0,.38q0,.19,0,.38l0,.32q0,.21.08.42t.12.41q.07.2.16.4t.19.39l8.89,16.35L357,844.78l.4.74,1.59,2.93,2.11,3.87,2.93,5.39,5,9.23,5,9.18,5,9.15,5,9.11,4.94,9.08,4.92,9,4.9,9,4.88,9,4.86,8.93,4.84,8.91,4.82,8.87,4.8,8.83,4.79,8.8.58,1.06.2.37.16.28.18.26.19.24.21.23.22.21.23.19.24.18.25.16.27.14.27.12.28.11.29.09.28.07.28,0,.29,0h.74l.1,0,.1,0,.1,0,.1,0,.1,0,.1,0,.1,0,.1,0,.1,0,.1,0,.1,0,.1,0,4.77-2.22,8.75-4.07,8.81-4.1,6.95-3.23,1.94-.9,9-4.17.33-.16-.29-.19-.36-.26-.33-.28-.29-.31q-.14-.16-.26-.33l-.2-.3q-.09-.15-.17-.31t-.15-.33q-.07-.17-.12-.33l-21.32-3.49-10.94,5.22-.1,0-.1,0-.1,0-.1,0-.1,0-.1,0-.11,0-.11,0-.1,0-.1,0-.11,0h-.83l-.3,0-.3,0-.29-.06-.29-.09-.28-.11-.28-.12-.27-.14-.26-.16-.25-.18-.24-.2-.23-.22-.21-.23-.2-.24-.18-.26-.16-.28L360.15,818.84q-.11-.21-.2-.42t-.16-.43q-.07-.22-.12-.44t-.08-.44V817q0-.2,0-.41t0-.41q0-.2,0-.41t.07-.4q.05-.21.12-.41t.15-.4q.08-.19.19-.38t.22-.36a4,4,0,0,1,.26-.34,4,4,0,0,1,.29-.31l.32-.28.36-.25,74-45.16.11-.07.11-.06.11-.06.11-.06.11-.05.11,0,.11,0,.11,0,.11,0,.11,0,.11,0,.11,0,.12,0,.12,0,.12,0,.12,0,.33,0h.32l.32,0,.32.05.32.07.31.1.3.12.3.15.28.17.27.19.26.21.24.24.23.26.22.28.2.3.18.32,9.3,18.05,3.6-31-6.06-11.86q-.08-.17-.18-.32l-.2-.3-.22-.28-.23-.26-.25-.23-.26-.21-.28-.19-.29-.17-.3-.14-.3-.12-.31-.1-.32-.07-.3,0-.3,0h-.3l-.3,0"/><g class="cls-15"><path class="cls-13" d="M437.6,767.67h-.28l-.1,0-.1,0-.1,0-.1,0-.1,0-.1,0-.09,0-.09,0-.09,0-.09,0-.09,0-.09,0-.09,0-.09.05-2.42,1.48v.48l8.39,1.08-.78-1.53-.14-.25-.16-.24-.17-.23-.19-.21-.2-.19-.21-.18-.22-.16-.23-.15-.25-.12-.25-.11-.26-.09-.27-.07-.12,0-.13,0h-.77"/><polyline class="cls-13" points="444.02 775.22 443.76 782.91 448.29 783.51 444.02 775.22"/><polyline class="cls-13" points="432.9 770.08 422.89 776.18 422.8 780.16 433.25 781.53 433.57 770.16 432.9 770.08"/><polyline class="cls-13" points="433.25 781.53 432.92 792.78 443.39 794.21 443.76 782.91 433.25 781.53"/><polyline class="cls-13" points="443.39 794.21 443.02 805.37 448.96 806.2 450.25 795.14 443.39 794.21"/><polyline class="cls-13" points="417.5 779.47 412.37 782.6 412.24 789.97 422.55 791.37 422.8 780.16 417.5 779.47"/><polyline class="cls-13" points="422.55 791.37 422.29 802.47 432.62 803.92 432.92 792.78 422.55 791.37"/><polyline class="cls-13" points="432.62 803.92 432.3 814.94 442.67 816.43 443.02 805.37 432.62 803.92"/><polyline class="cls-13" points="442.67 816.43 442.3 827.37 446.43 827.98 447.69 817.15 442.67 816.43"/><polyline class="cls-13" points="402.44 788.65 402 788.91 401.85 799.61 412.03 801.04 412.24 789.97 402.44 788.65"/><polyline class="cls-13" points="412.03 801.04 411.83 812 422.02 813.46 422.29 802.47 412.03 801.04"/><polyline class="cls-13" points="422.02 813.46 421.78 824.34 432 825.85 432.3 814.94 422.02 813.46"/><polyline class="cls-13" points="432 825.85 431.7 836.64 441.95 838.2 442.3 827.37 432 825.85"/><polyline class="cls-13" points="441.95 838.2 441.6 848.91 443.96 849.28 445.19 838.69 441.95 838.2"/><polyline class="cls-13" points="391.78 795.14 387.68 797.64 391.76 798.21 391.78 795.14"/><polyline class="cls-13" points="391.76 798.21 391.65 809.09 401.71 810.54 401.85 799.61 391.76 798.21"/><polyline class="cls-13" points="401.71 810.54 401.56 821.35 411.64 822.83 411.83 812 401.71 810.54"/><polyline class="cls-13" points="411.64 822.83 411.43 833.57 421.53 835.1 421.78 824.34 411.64 822.83"/><polyline class="cls-13" points="421.53 835.1 421.28 845.76 431.4 847.32 431.7 836.64 421.53 835.1"/><polyline class="cls-13" points="431.4 847.32 431.11 857.91 441.24 859.52 441.6 848.91 431.4 847.32"/><polyline class="cls-13" points="441.24 859.52 440.9 870.04 441.54 870.14 442.74 859.76 441.24 859.52"/><polyline class="cls-13" points="381.7 801.29 373.24 806.45 381.68 807.65 381.7 801.29"/><polyline class="cls-13" points="381.68 807.65 381.63 818.4 391.56 819.87 391.65 809.09 381.68 807.65"/><polyline class="cls-13" points="391.56 819.87 391.46 830.54 401.41 832.05 401.56 821.35 391.56 819.87"/><polyline class="cls-13" points="401.41 832.05 401.27 842.65 411.24 844.2 411.43 833.57 401.41 832.05"/><polyline class="cls-13" points="411.24 844.2 411.05 854.71 421.04 856.31 421.28 845.76 411.24 844.2"/><polyline class="cls-13" points="421.04 856.31 420.8 866.75 430.81 868.38 431.11 857.91 421.04 856.31"/><polyline class="cls-13" points="430.81 868.38 430.52 878.76 440.34 880.4 440.65 877.79 440.9 870.04 430.81 868.38"/><polyline class="cls-13" points="371.77 807.34 361.98 813.31 361.99 815.5 371.78 816.96 371.77 807.34"/><polyline class="cls-13" points="371.78 816.96 371.78 827.55 381.58 829.04 381.63 818.4 371.78 816.96"/><polyline class="cls-13" points="381.58 829.04 381.54 839.57 391.37 841.11 391.46 830.54 381.58 829.04"/><polyline class="cls-13" points="391.37 841.11 391.26 851.57 401.13 853.13 401.27 842.65 391.37 841.11"/><polyline class="cls-13" points="401.13 853.13 400.99 863.52 410.85 865.13 411.05 854.71 401.13 853.13"/><polyline class="cls-13" points="410.85 865.13 410.67 875.44 420.56 877.1 420.8 866.75 410.85 865.13"/><polyline class="cls-13" points="420.56 877.1 420.32 887.34 430.24 889.03 430.52 878.76 420.56 877.1"/><polyline class="cls-13" points="430.24 889.03 429.95 899.2 438 900.6 439.16 890.56 430.24 889.03"/><path class="cls-13" d="M360.45,815.28l-.05.19,0,.19,0,.2,0,.2q0,.1,0,.2t0,.2,0,.21,0,.21v.1q0,.09,0,.18l0,.18,0,.18,0,.18.06.2.08.2.09.2.1.19,1.26,2.34,0-5.32-1.55-.23"/><polyline class="cls-13" points="365.1 826.53 371.27 837.98 371.78 838.05 371.78 827.55 365.1 826.53"/><polyline class="cls-13" points="371.78 838.05 371.78 838.91 377.41 849.35 381.5 850 381.54 839.57 371.78 838.05"/><polyline class="cls-13" points="381.5 850 381.47 856.86 383.52 860.67 391.18 861.92 391.26 851.57 381.5 850"/><polyline class="cls-13" points="391.18 861.92 391.08 872.17 400.84 873.8 400.99 863.52 391.18 861.92"/><polyline class="cls-13" points="400.84 873.8 400.7 883.99 410.47 885.65 410.67 875.44 400.84 873.8"/><polyline class="cls-13" points="410.47 885.65 410.29 895.77 420.08 897.48 420.32 887.34 410.47 885.65"/><polyline class="cls-13" points="420.08 897.48 419.86 907.52 429.66 909.26 429.95 899.2 420.08 897.48"/><polyline class="cls-13" points="429.66 909.26 429.39 919.24 435.7 920.38 436.84 910.54 429.66 909.26"/><polyline class="cls-13" points="389.59 871.92 391.07 874.65 391.08 872.17 389.59 871.92"/><polyline class="cls-13" points="395.63 883.12 400.59 892.3 400.7 883.99 395.63 883.12"/><polyline class="cls-13" points="401.65 894.26 407.63 905.34 410.11 905.78 410.29 895.77 401.65 894.26"/><polyline class="cls-13" points="410.11 905.78 410.03 909.8 413.57 916.36 419.62 917.46 419.86 907.52 410.11 905.78"/><polyline class="cls-13" points="419.62 917.46 419.4 927.15 419.49 927.33 429.11 929.11 429.39 919.24 419.62 917.46"/><polyline class="cls-13" points="429.11 929.11 428.84 938.89 433.45 939.76 434.57 930.12 429.11 929.11"/><polyline class="cls-13" points="448.01 952.76 447.96 953.96 449.86 953.06 448.01 952.76"/><polyline class="cls-13" points="425.38 938.24 428.69 944.37 428.84 938.89 425.38 938.24"/><path class="cls-13" d="M431.24,949.09l3.84,7.12.12.2.13.19.14.18.15.18.16.16.17.15.18.14.18.13.2.12.2.11.21.1.21.09.22.07.22.06.22,0,.22,0,.24-7-1.86-.3-.42-.09-.4-.13-.39-.16-.37-.19-.23-.15-.22-.16-.21-.17-.2-.18-2.71-.52"/></g><path class="cls-13" d="M437.46,766.85l-.12,0-.12,0-.12,0-.12,0-.11,0-.11,0-.11,0-.11,0-.11,0-.11,0-.11,0-.11.05-.11.06-.11.06-.11.06-.11.07-74,45.16-.36.25-.32.28a4,4,0,0,0-.29.31,4,4,0,0,0-.26.34q-.12.18-.22.36t-.19.38q-.08.19-.15.4t-.12.41q0,.2-.07.4t0,.41q0,.2,0,.41t0,.41v.11q0,.22.08.44t.12.44q.07.22.16.43t.2.42L434.47,956.5l.16.28.18.26.2.24.21.23.23.22.24.2.25.18.26.16.27.14.28.12.28.11.29.09.29.06.3,0,.3,0H439l.11,0,.1,0,.1,0,.11,0,.11,0,.1,0,.1,0,.1,0,.1,0,.1,0,.1,0,10.94-5.22-1.24-.2L448,954l-8.14,3.9-.08,0-.08,0-.08,0-.09,0-.08,0-.08,0-.09,0-.09,0-.09,0-.09,0h-1l-.22,0-.22,0-.22-.06-.22-.07-.21-.09-.21-.1-.2-.11-.2-.12-.18-.13-.18-.14-.17-.15-.16-.16-.15-.18-.14-.18-.13-.19-.12-.2-3.84-7.12-2.54-4.72-3.31-6.13-5.89-10.91-.09-.18-5.82-10.79L410,909.8l-2.41-4.45-6-11.08-1.06-2-5-9.18-4.56-8.46-1.48-2.73-6.07-11.25-2.05-3.81-4.06-7.51-5.63-10.44-.51-.93-6.17-11.45L362,820.83l-1.26-2.34-.1-.19-.09-.2-.08-.2-.06-.2,0-.18,0-.18,0-.18q0-.09,0-.18v-.1q0-.1,0-.21t0-.21,0-.2,0-.2l0-.2,0-.2,0-.19.05-.19.05-.15.06-.15.06-.14.07-.14.07-.14.08-.14.09-.13.09-.13.1-.12.1-.12.11-.11.11-.11.12-.1.12-.1.13-.09.13-.08,0,0,9.79-6,1.46-.89,8.47-5.16,6-3.64,4.1-2.5L402,788.91l.43-.26,9.93-6.05,5.14-3.13,5.39-3.29,10-6.1.67-.41,2.42-1.48.09-.05.09,0,.09,0,.09,0,.09,0,.09,0,.09,0,.09,0,.1,0,.1,0,.1,0,.1,0,.1,0,.1,0h1.05l.13,0,.12,0,.27.07.26.09.25.11.25.12.23.15.22.16.21.18.2.19.19.21.17.23.16.24.14.25.78,1.53,2.06,4,4.27,8.29,2.7,5.24.16-1.39-9.3-18.05-.18-.32-.2-.3-.22-.28-.23-.26-.24-.24-.26-.21-.27-.19-.28-.17-.3-.15-.3-.12-.31-.1-.32-.07-.32-.05-.32,0h-.32l-.33,0"/></g><g class="cls-16"><path class="cls-11" d="M506.84,902.88l-3.94,4.66.49.48,3.45-5.14m-52.31-.64L453,914.39l2.6,2.51-3.45,4.26-.66,5.2,5.22,5-4.87,5.92.09.07.09.07.1.07.1.07.1.06.1.06.11.05.11,0,.11.05.11,0,.11,0,.11,0,.12,0,.12,0,.12,0,.12,0,9.28,1.49,1-1.26-7.2-6.93,6.14-7.47-7.26-7,6.18-7.62-7.24-7m1.56-12.33L454.56,902l6.13-7.66-4.59-4.47m1.58-12.54-.64,5.08,2.54-3.22-1.9-1.86m104.17-56.51-3.73,4.48.43.44,3.3-4.92m-97.56,4.33-1.69,13.37,1.18,1.16-1.58,2-1.26,9.94,3.93,3.88-5.28,6.78-.3,2.28,6.65,6.54-6.36,8.06L467,886.5l-6.33,7.88,7.36,7.19-6.28,7.71,7.3,7.08-6.23,7.56,7.23,7-6.18,7.4,1.77,1.72,8.61,1.38,3-3.54-7.19-7,6.26-7.5-7.26-7.06,6.3-7.65-7.32-7.14,6.34-7.82L467,886.5l6.39-8-7.47-7.33L472.4,863l-7.53-7.44,6.5-8.33-7.59-7.53,6.55-8.52-6-6M466,811.62l-1.15,9,4.38-5.78L466,811.62m1.75-13.8-.15,1.15.55-.74-.4-.41m96.86-16.32.49.5-7.57,9.32,7.78,8.06-7.5,9.11,7.28,7.5,1.49-2.22,2.05-11-3.32-3.43,5.13-6.23.87-4.66L565.12,782l.33-.4-.82-.1m-18.89-2.4,4,4.13-7.44,9.27,7.79,8-7.37,9.07,7.71,7.9-7.29,8.87,7.64,7.79-7.24,8.67,2.13,2.16,6.39-9.52-1.28-1.31,7.33-8.79-7.68-7.86,7.39-9-7.74-8,7.45-9.19-7.81-8.09,2.64-3.29-6.64-.84M527,776.72l7.5,7.74-7.28,9.22,7.78,8-7.22,9,7.7,7.87-7.16,8.81,7.64,7.75-7.1,8.62,7.57,7.64-7,8.44,3.79,3.82,6.21-9.26-3-3,7.14-8.55-7.6-7.71,7.19-8.74-7.67-7.82,7.26-8.94L535,801.64l7.31-9.14-7.82-8.05,4.88-6.17L527,776.72M513.54,775l-2,2.6,7.85,8-7.15,9.17,7.77,7.93-7.08,9,7.71,7.81-7,8.77,7.64,7.72-7,8.58,7.57,7.61-6.92,8.39,7.51,7.51-6.85,8.21,5.42,5.41,6-9-4.61-4.62,6.94-8.32-7.53-7.58,7-8.51L521.26,836l7.06-8.69-7.67-7.8,7.12-8.89-7.75-7.9,7.19-9.08-7.82-8,7-9L513.54,775m-12.82-1.64-4.14,5.47,7.85,8-7,9.11,7.78,7.91-7,8.91,7.7,7.79-6.89,8.72,7.63,7.68-6.83,8.53,7.56,7.57-6.77,8.35,7.49,7.47-6.72,8.17,7.42,7.37-6.67,8,7,6.94,5.88-8.76-6.24-6.18,6.77-8.11-7.46-7.44,6.81-8.28-7.53-7.54,6.88-8.46-7.6-7.64,6.93-8.66L506,820.57l7-8.84-7.74-7.86,7-9-7.81-8,7.11-9.24-3.18-3.26-7.65-1M488,771.76l-6.21,8.31,7.85,8-6.88,9.06L490.5,805l-6.81,8.88,7.7,7.74-6.76,8.68,7.63,7.63-6.71,8.49,7.57,7.55-6.66,8.3,7.5,7.43-6.61,8.14,7.44,7.34-6.56,8,7.37,7.24-6.49,7.79,7.29,7.14-6.45,7.64L492,925l5.64-8.42-1.3-1.28,6.53-7.73-7.33-7.21,6.59-7.9-7.39-7.31,6.63-8.07L494,869.66l6.69-8.23-7.53-7.5,6.75-8.42-7.6-7.62,6.81-8.6-7.68-7.71,6.87-8.8L490.5,805l6.92-9L489.61,788l7-9.19L489.86,772l-1.89-.24m-13.51-1.63h-.38l-.13,0-.13,0-.13,0-.13,0-.13,0-.12,0-.12.05-.12.06-.12.06-.11.06-.11.07-.11.07,1.25,1.27-3.43,4.64-.89,7.07,5.38,5.43-6.76,9L476,806l-6.7,8.82,7.71,7.71-6.63,8.63,7.63,7.6-6.59,8.45,7.56,7.5L472.4,863l7.49,7.4-6.48,8.09,7.42,7.31-6.44,7.93,7.36,7.21-6.38,7.76,7.29,7.11-6.33,7.6,7.22,7-6.29,7.44,3.7,3.59,5.5-8.2-2.91-2.83,6.37-7.53-7.27-7.09,6.42-7.7L481.75,901l6.46-7.86-7.38-7.27,6.51-8-7.45-7.37,6.57-8.2-7.53-7.47,6.61-8.38L478,838.8l6.67-8.55L477,822.57l6.73-8.74L476,806l6.77-8.94-7.8-7.89,6.83-9.14-7.89-8,1.41-1.91h0l-.16,0h-.63m-15-21.29-.37.05-.36.08-.35.11-.34.14-.37.19-.36.23-.34.26-.32.29-.29.32-.27.34q-.13.18-.24.36t-.21.39q-.1.2-.18.41t-.15.43q-.06.22-.11.45t-.07.47l-.35,3-3.6,31-.16,1.39-.74,6.39L449,806.2l-1.27,10.95L446.43,828l-1.24,10.7L444,849.28l-1.22,10.48-1.2,10.37-.89,7.65-.3,2.61-1.18,10.16-1.17,10-1.16,9.95-1.14,9.84-1.13,9.74-1.12,9.64-.75,6.43h0l.06,1.27,0,.08,0,.08,0,.08,0,.08q.06.19.14.37t.17.36q.09.18.2.35t.24.33l.08.1.09.1.09.1.09.1.2.18.21.17.22.16.23.15.37.19.39.16.4.13.42.09,1.86.3,9.77,1.6,1.85.3,1.24.2,21.32,3.49v-.16l-.05-1.74q0-.17.09-.33t.12-.33q.07-.16.15-.32t.18-.31L479.93,943l-26.45-4.25-.43-.09-.41-.13-.39-.17-.37-.2-.35-.23-.32-.26-.29-.28-.26-.31q-.13-.16-.24-.33t-.2-.35q-.09-.18-.17-.37a4.08,4.08,0,0,1-.13-.39l-.05-.2,0-.2q0-.1,0-.2t0-.2,0-.21,0-.21,0-.21,0-.21L470,773.69q0-.23.08-.46t.11-.44q.07-.21.15-.42t.18-.4q.1-.2.22-.38t.24-.36l.27-.33.29-.3.32-.28.34-.25.36-.22.37-.18,0,0,0,0,0,0,0,0,.3-.11.31-.09.31-.06.32,0h.6l.2,0,.18,0,93.21,11.81.49.09.47.14.44.18.42.23a4.42,4.42,0,0,1,.39.27,4.46,4.46,0,0,1,.35.31,4.56,4.56,0,0,1,.32.34q.15.18.28.37t.25.4q.11.21.21.42a4.71,4.71,0,0,1,.29.91l0,.21q0,.11,0,.21t0,.22,0,.22,0,.28,0,.29,0,.29,0,.29l-4.75,25.3,17.67-26.34.21-.29.23-.28.24-.26.25-.25.26-.22.27-.21.28-.19.29-.17.3-.15.3-.13.31-.11.31-.09.2,0,.21,0,.21,0,.21,0h.8l.18,0,.18,0,.18,0,.18,0,.18,0,.18.05h.08L594,770.6l.07-1.6v-.11l0-.11,0-.11,0-.11q0-.24-.12-.48a4.81,4.81,0,0,0-.16-.45,4.69,4.69,0,0,0-.74-1.21,4.56,4.56,0,0,0-.32-.34,4.44,4.44,0,0,0-.75-.58l-.42-.23-.45-.19-.48-.14-.5-.09-129.66-16h-1"/><g class="cls-17"><path class="cls-13" d="M565.45,781.6l-.33.4,6.21,6.48.34-1.81q0-.11,0-.21t0-.21,0-.21,0-.2,0-.21,0-.21,0-.2l0-.2,0-.2-.06-.19-.07-.19-.07-.18-.08-.18-.09-.18-.1-.18-.11-.17-.12-.16-.13-.16-.13-.15-.14-.13-.15-.13-.15-.12-.16-.11-.17-.1-.17-.1-.17-.09-.18-.08-.19-.07-.19-.06-.19,0-.2,0-.2,0-3-.38"/><polyline class="cls-13" points="570.47 793.15 565.34 799.38 568.66 802.82 570.47 793.15"/><polyline class="cls-13" points="552.38 779.94 549.74 783.23 557.55 791.32 565.12 782 564.63 781.5 552.38 779.94"/><polyline class="cls-13" points="557.55 791.32 550.1 800.51 557.84 808.5 565.34 799.38 557.55 791.32"/><polyline class="cls-13" points="557.84 808.5 550.44 817.48 558.12 825.34 561.85 820.86 565.12 816 557.84 808.5"/><polyline class="cls-13" points="558.12 825.34 550.79 834.13 552.08 835.44 558.55 825.78 558.12 825.34"/><polyline class="cls-13" points="539.37 778.28 534.49 784.45 542.31 792.5 549.74 783.23 545.74 779.1 539.37 778.28"/><polyline class="cls-13" points="542.31 792.5 534.99 801.64 542.73 809.58 550.1 800.51 542.31 792.5"/><polyline class="cls-13" points="542.73 809.58 535.48 818.52 543.15 826.35 550.44 817.48 542.73 809.58"/><polyline class="cls-13" points="543.15 826.35 535.96 835.09 543.56 842.8 550.79 834.13 543.15 826.35"/><polyline class="cls-13" points="543.56 842.8 536.42 851.35 539.39 854.35 545.69 844.96 543.56 842.8"/><polyline class="cls-13" points="526.43 776.65 519.39 785.66 527.21 793.67 534.49 784.45 526.99 776.72 526.43 776.65"/><polyline class="cls-13" points="527.21 793.67 520.02 802.76 527.77 810.65 534.99 801.64 527.21 793.67"/><polyline class="cls-13" points="527.77 810.65 520.65 819.54 528.32 827.34 535.48 818.52 527.77 810.65"/><polyline class="cls-13" points="528.32 827.34 521.26 836.03 528.86 843.71 535.96 835.09 528.32 827.34"/><polyline class="cls-13" points="528.86 843.71 521.86 852.21 529.39 859.79 536.42 851.35 528.86 843.71"/><polyline class="cls-13" points="529.39 859.79 522.45 868.12 527.06 872.74 533.18 863.61 529.39 859.79"/><polyline class="cls-13" points="508.37 774.36 511.54 777.61 513.54 775.01 508.37 774.36"/><polyline class="cls-13" points="511.54 777.61 504.43 786.85 512.25 794.83 519.39 785.66 511.54 777.61"/><polyline class="cls-13" points="512.25 794.83 505.21 803.87 512.94 811.73 520.02 802.76 512.25 794.83"/><polyline class="cls-13" points="512.94 811.73 505.96 820.57 513.62 828.31 520.65 819.54 512.94 811.73"/><polyline class="cls-13" points="513.62 828.31 506.69 836.97 514.29 844.61 521.26 836.03 513.62 828.31"/><polyline class="cls-13" points="514.29 844.61 507.42 853.07 514.94 860.61 521.86 852.21 514.29 844.61"/><polyline class="cls-13" points="514.94 860.61 508.14 868.89 515.6 876.33 522.45 868.12 514.94 860.61"/><polyline class="cls-13" points="515.6 876.33 508.83 884.44 515.07 890.62 521.02 881.74 515.6 876.33"/><polyline class="cls-13" points="489.86 772 496.58 778.85 500.72 773.38 489.86 772"/><polyline class="cls-13" points="496.58 778.85 489.61 788.03 497.43 795.96 504.43 786.85 496.58 778.85"/><polyline class="cls-13" points="497.43 795.96 490.5 804.96 498.25 812.78 505.21 803.87 497.43 795.96"/><polyline class="cls-13" points="498.25 812.78 491.39 821.57 499.06 829.29 505.96 820.57 498.25 812.78"/><polyline class="cls-13" points="499.06 829.29 492.26 837.88 499.86 845.5 506.69 836.97 499.06 829.29"/><polyline class="cls-13" points="499.86 845.5 493.11 853.92 500.64 861.42 507.42 853.07 499.86 845.5"/><polyline class="cls-13" points="500.64 861.42 493.95 869.66 501.41 877.07 508.14 868.89 500.64 861.42"/><polyline class="cls-13" points="501.41 877.07 494.78 885.13 502.17 892.44 508.83 884.44 501.41 877.07"/><polyline class="cls-13" points="502.17 892.44 495.58 900.34 502.91 907.54 506.85 902.88 509.19 899.38 502.17 892.44"/><polyline class="cls-13" points="502.91 907.54 496.37 915.27 497.68 916.55 503.4 908.02 502.91 907.54"/><polyline class="cls-13" points="475.28 770.15 473.87 772.06 481.76 780.07 487.97 771.76 475.28 770.15"/><polyline class="cls-13" points="481.76 780.07 474.93 789.21 482.73 797.1 489.61 788.03 481.76 780.07"/><polyline class="cls-13" points="482.73 797.1 475.96 806.04 483.69 813.83 490.5 804.96 482.73 797.1"/><polyline class="cls-13" points="483.69 813.83 476.96 822.57 484.63 830.25 491.39 821.57 483.69 813.83"/><polyline class="cls-13" points="484.63 830.25 477.96 838.8 485.55 846.38 492.26 837.88 484.63 830.25"/><polyline class="cls-13" points="485.55 846.38 478.93 854.76 486.46 862.23 493.11 853.92 485.55 846.38"/><polyline class="cls-13" points="486.46 862.23 479.89 870.43 487.34 877.79 493.95 869.66 486.46 862.23"/><polyline class="cls-13" points="487.34 877.79 480.83 885.82 488.21 893.1 494.78 885.13 487.34 877.79"/><polyline class="cls-13" points="488.21 893.1 481.75 900.96 489.09 908.13 495.58 900.34 488.21 893.1"/><polyline class="cls-13" points="489.09 908.13 482.66 915.83 489.93 922.91 496.37 915.27 489.09 908.13"/><polyline class="cls-13" points="489.93 922.91 483.56 930.45 486.47 933.27 492.03 924.97 489.93 922.91"/><path class="cls-13" d="M472.63,770.78l-.18.12-.17.13-.17.14-.16.16-.15.16-.14.17-.13.18-.12.19-.11.19-.1.2-.09.21-.08.22-.07.22-.06.23q0,.12,0,.23t0,.24l-.37,2.91,3.43-4.64-1.25-1.27"/><polyline class="cls-13" points="469.55 783.77 467.77 797.82 468.17 798.22 474.93 789.21 469.55 783.77"/><polyline class="cls-13" points="468.17 798.22 467.62 798.97 466.02 811.62 469.26 814.86 475.96 806.04 468.17 798.22"/><polyline class="cls-13" points="469.26 814.86 464.87 820.64 464.3 825.2 470.33 831.21 476.96 822.57 469.26 814.86"/><polyline class="cls-13" points="470.33 831.21 463.78 839.73 471.37 847.25 477.96 838.8 470.33 831.21"/><polyline class="cls-13" points="471.37 847.25 464.87 855.58 472.4 863.03 478.93 854.76 471.37 847.25"/><polyline class="cls-13" points="472.4 863.03 465.94 871.18 473.41 878.51 479.89 870.43 472.4 863.03"/><polyline class="cls-13" points="473.41 878.51 467.01 886.5 474.39 893.75 480.83 885.82 473.41 878.51"/><polyline class="cls-13" points="474.39 893.75 468.05 901.57 475.37 908.71 481.75 900.96 474.39 893.75"/><polyline class="cls-13" points="475.37 908.71 469.07 916.37 476.33 923.42 482.66 915.83 475.37 908.71"/><polyline class="cls-13" points="476.33 923.42 470.07 930.92 477.27 937.88 483.56 930.45 476.33 923.42"/><polyline class="cls-13" points="477.27 937.88 474.28 941.42 480.35 942.4 480.97 941.47 477.27 937.88"/><polyline class="cls-13" points="462.6 838.56 462.19 841.77 463.78 839.73 462.6 838.56"/><polyline class="cls-13" points="460.94 851.71 459.59 862.36 464.87 855.58 460.94 851.71"/><polyline class="cls-13" points="459.3 864.64 457.68 877.38 459.58 879.24 465.94 871.18 459.3 864.64"/><polyline class="cls-13" points="459.58 879.24 457.04 882.46 456.1 889.91 460.69 894.38 467.01 886.5 459.58 879.24"/><polyline class="cls-13" points="460.69 894.38 454.56 902.04 454.54 902.25 461.77 909.28 468.05 901.57 460.69 894.38"/><polyline class="cls-13" points="461.77 909.28 455.59 916.91 462.85 923.93 469.07 916.37 461.77 909.28"/><polyline class="cls-13" points="462.85 923.93 456.7 931.39 463.9 938.33 470.07 930.92 462.85 923.93"/><polyline class="cls-13" points="463.9 938.33 462.85 939.58 465.67 940.04 463.9 938.33"/><polyline class="cls-13" points="452.99 914.39 452.14 921.16 455.59 916.91 452.99 914.39"/><path class="cls-13" d="M451.48,926.36l-1,7.78q0,.09,0,.17t0,.17,0,.17,0,.17v.23q0,.11,0,.22t.05.22l.07.21.08.21.09.2.11.2.12.19.13.18.14.17.15.16.16.16.17.15,4.87-5.92-5.22-5"/></g><path class="cls-13" d="M474.37,769.29l-.32,0-.31.06-.31.09-.3.11,0,0,0,0,0,0,0,0-.37.18-.36.22-.34.25-.32.28-.29.3-.27.33q-.13.17-.24.36t-.22.38q-.1.19-.18.4t-.15.42q-.07.21-.11.44t-.08.46L449.78,934q0,.11,0,.21t0,.21,0,.21,0,.21,0,.2,0,.2l0,.2.05.2a4.08,4.08,0,0,0,.13.39q.07.19.17.37t.2.35q.11.17.24.33l.26.31.29.28.32.26.35.23.37.2.39.17.41.13.43.09L479.93,943l.42-.62-6.06-1L465.67,940l-2.82-.46-9.28-1.49-.12,0-.12,0-.12,0-.12,0-.11,0-.11,0-.11,0-.11-.05-.11,0-.11-.05-.1-.06-.1-.06-.1-.07-.1-.07-.09-.07-.09-.07-.17-.15-.16-.16-.15-.16-.14-.17-.13-.18-.12-.19-.11-.2-.09-.2-.08-.21-.07-.21q0-.11-.05-.22t0-.22v-.23q0-.08,0-.17t0-.17,0-.17,0-.17l1-7.78.66-5.2.85-6.77,1.54-12.15,0-.2,1.54-12.13.94-7.46.64-5.08,1.61-12.73.3-2.28,1.35-10.65,1.26-9.94.41-3.21,1.69-13.37.58-4.56,1.15-9,1.6-12.65.15-1.15,1.78-14,.89-7.07.37-2.91q0-.12,0-.24t0-.23l.06-.23.07-.22.08-.22.09-.21.1-.2.11-.19.12-.19.13-.18.14-.17.15-.16.16-.16.17-.14.17-.13.18-.12.11-.07.11-.07.11-.06.12-.06.12-.06.12-.05.12,0,.13,0,.13,0,.13,0,.13,0,.13,0h1l.16,0h0L488,771.76l1.89.24,10.86,1.37,7.65,1,5.18.66,12.89,1.64.57.07,12.37,1.57,6.37.82,6.64.84,12.25,1.56.82.1,3,.38.2,0,.2,0,.19,0,.19.06.19.07.18.08.17.09.17.1.17.1.16.11.15.12.15.13.14.13.13.15.13.16.12.16.11.17.1.18.09.18.08.18.07.18.07.19.06.19,0,.2,0,.2q0,.1,0,.2t0,.21,0,.21,0,.2,0,.21,0,.21,0,.21l-.34,1.81-.87,4.66-1.81,9.67-2.05,11,1.13-1.68,4.75-25.3q0-.15,0-.29t0-.29,0-.29,0-.28,0-.22,0-.22,0-.21l0-.21a4.71,4.71,0,0,0-.29-.91q-.09-.22-.21-.42t-.25-.4q-.13-.19-.28-.37a4.56,4.56,0,0,0-.32-.34,4.46,4.46,0,0,0-.35-.31,4.42,4.42,0,0,0-.39-.27l-.42-.23-.44-.18-.47-.14-.49-.09-93.21-11.81-.18,0-.2,0h-.6"/></g><g class="cls-18"><path class="cls-11" d="M589,977.87l-1.87.72.37,1.11,1.49-1.83m12.37-15.08-7.59,3,1.46,4.49,6.13-7.47m-88-38.58-7,10.11,1.3,3.35-5.18,2.25-3,4.29,2.63,6.65L494.89,954l.05.1.06.1.06.1.06.1.07.09.07.09.08.09.08.09.08.09.09.09.09.08.09.08.09.08.1.08.1.08.11.07,8,5.22,1.54-.64-3.57-9.08,9.1-3.9-3.58-9.29,9.26-4-3.57-9.42m127.73-9.91-5.46,2.27.92,3.27,4.53-5.54m-120.58-.41-7,10.15,9.28-4.09-2.24-6.06m7.31-10.55-3,4.28,3.89-1.75-.92-2.54m143-37.45.18.69-11.25,4.9,2.76,10.74-11,4.71,2.78,10.48L643.42,902l1.94,7.11,9-11-.18-.63,1.05-.44,8.36-10.2-1.17-4.55L670,879l3.07-3.76L671,866.58l.49-.21-.67-.48m-15.3-11,1.44,5.62-11.16,5,2.87,10.81-10.94,4.75,2.88,10.54-10.73,4.59,2.9,10.28-10.52,4.43,2.92,10-10.34,4.28,2.95,9.77-10.16,4.14,3,9.53-10,4,2.55,8,8.09-9.86-.66-2.12,3.57-1.43,5.34-6.52L617.75,935l9.61-3.92.55-.66-2.77-9.46,10.47-4.33-2.88-10.11,10.68-4.5-2.86-10.37,10.88-4.66-2.82-10.63,11.08-4.83-2.79-10.93,4-1.75-5.41-3.87m-96.74,3.77-8,11.55.54,1.62L548.81,873l-5.89,8.51,1.85,5.36-8.16,3.73-1.33,1.93,3.15,8.94-9.7,4.38,3.55,9.84-9.54,4.23,3.55,9.6-9.37,4.08,3.54,9.39L511.23,947l3.54,9.16-9.07,3.81.88,2.22,7.34,4.79,4.34-1.8-3.49-9,9.17-3.86L520.45,943l9.34-4-3.51-9.47,9.5-4.13-3.5-9.7,9.67-4.27-3.52-10,9.84-4.42-3.5-10.19,10-4.58-3.5-10.45,10.21-4.76-2.75-8.41M640,843.84l2.83,10.67-11.08,5,3,10.87-10.87,4.81,3,10.58-10.65,4.65,3,10.32L608.8,905.2l3,10.07-10.27,4.31,3,9.82-10.08,4.18,3.06,9.59-9.9,4,3.06,9.35-9.72,3.9,3.06,9.14-9.55,3.77,3.08,8.93-9.39,3.64,3.08,8.73L562,998.16l.11.3,3.57,2.33.1.07.11.06.11.06.11.05.12.05.12.05.12,0,.12,0,.12,0,.12,0,.12,0,.13,0,.12,0,.13,0h1.16l.22,0,.21-.05.21-.06.2-.08.2-.09.19-.1.19-.11.18-.12.17-.13.16-.14.15-.15.14-.16,1.74-2.11-1.19-3.37,5.73-2.19L579.9,989l-2.29-6.67,9.51-3.69-3-9,9.68-3.82-3-9.22,9.84-3.94-3-9.44,10-4.08-3-9.69,10.2-4.22-3-9.91,10.4-4.38-3-10.16,10.59-4.54-3-10.43,10.8-4.7-2.93-10.69,11-4.87-2.91-11,7.4-3.34L640,843.84m-73.09,3-5.45,7.87,6.92-3.27-1.46-4.6m61.85-11.09-3.11,1.45,3.08,11.23-11,5,3.08,10.92-10.77,4.86,3.1,10.64-10.57,4.68L605.71,895l-10.37,4.52,3.14,10.12L588.28,914l3.14,9.88-10,4.22,3.16,9.63-9.83,4.07,3.15,9.41-9.65,3.93,3.16,9.18-9.48,3.81,3.17,9-9.34,3.68,3.17,8.77-6.58,2.55,9.48,6.19.22-.09-3.12-8.64,9.28-3.6-3.12-8.85,9.44-3.72-3.12-9.07,9.61-3.84-3.12-9.27,9.78-4-3.1-9.5,9.94-4.12-3.09-9.73,10.13-4.27-3.08-10,10.32-4.41L605.71,895l10.52-4.57-3.07-10.5,10.72-4.74-3.05-10.76,10.94-4.92-3-11,10.8-5-10.77-7.72m-53.47-1-.71,1,.89-.42-.18-.59M617.93,828l-6.52,3.09,3.2,11.29-10.92,5.07,3.21,11-10.7,4.9,3.21,10.7-10.49,4.73,3.22,10.44-10.3,4.56,3.25,10.18L575,908.35l3.25,9.93-9.93,4.26,3.26,9.69-9.77,4.11,3.26,9.45-9.58,4,3.26,9.24-9.42,3.83,3.25,9-9.26,3.71,3.26,8.82-3.72,1.46,5.61,3.66-1.89-5.12,9.21-3.63-3.21-8.9,9.38-3.76-3.21-9.1,9.54-3.89L565,945.79l9.71-4-3.2-9.54,9.87-4.16-3.19-9.79L588.28,914l-3.19-10,10.24-4.45-3.19-10.28,10.44-4.63L599.42,874l10.65-4.78-3.17-10.82,10.85-5-3.14-11.1,11.05-5.16-1.25-4.57L617.93,828M607,820.18l-9.89,4.76,3.31,11.35-10.82,5.13,3.32,11-10.61,4.94,3.33,10.76L575.23,873l3.33,10.49-10.24,4.6,3.35,10.23-10,4.45,3.35,10L555.13,917l3.34,9.74-9.68,4.15,3.34,9.5-9.51,4,3.35,9.28-9.35,3.87,3.35,9.07-9.2,3.74,3.35,8.86-.88.36,1.35.89-.47-1.24,9.15-3.66-3.3-8.94,9.31-3.79L546,953.68l9.47-3.92-3.31-9.37,9.64-4.05-3.31-9.6,9.81-4.2L565,912.7l10-4.35-3.3-10.07,10.17-4.51-3.29-10.32,10.36-4.67-3.28-10.6,10.56-4.83-3.28-10.88,10.77-5-3.27-11.16,11-5.2-2.75-9.74L607,820.18m-13.53-8.64h-.14l-.13,0,.54,1.84-5.54,2.71-4.34,6.27,2.34,7.8-10.74,5.18,3.44,11.1-10.53,5,3.44,10.82-10.34,4.81,3.45,10.56-10.16,4.65,3.46,10.28-10,4.48,3.46,10-9.79,4.34,3.45,9.79-9.61,4.18,3.45,9.56-9.44,4,3.44,9.34-9.29,3.91,3.45,9.11-9.14,3.78,2.4,6.2,3,1.93,7.17-2.92-3.39-9,9.25-3.82-3.41-9.19,9.41-4-3.4-9.42,9.57-4.1-3.41-9.65,9.74-4.24-3.4-9.89,9.91-4.39-3.39-10.13,10.08-4.54-3.39-10.39,10.29-4.7-3.4-10.67,10.49-4.88-3.39-10.94,10.69-5.05-3.38-11.23,10.9-5.25-3.36-11.53L596,812.3l0,0-.12-.08-.12-.08-.13-.08-.13-.07-.14-.07-.14-.06-.14-.05-.14-.05-.14,0-.14,0-.15,0-.15,0-.15,0-.15,0h-.57m-.11-.87h.79l.18,0,.18,0,.18,0,.18,0,.17,0,.17.05.17.06.17.06.17.07.16.08.16.09.16.09.16.1.15.1,77.86,55.84a4.24,4.24,0,0,1,.72.64,4.38,4.38,0,0,1,.29.37,4.56,4.56,0,0,1,.25.39,4.18,4.18,0,0,1,.2.42,4.27,4.27,0,0,1,.15.43,4.34,4.34,0,0,1,.11.45,4.39,4.39,0,0,1,.06.46v.12s0,.08,0,.12,0,.08,0,.12,0,.08,0,.12,0,.24,0,.36,0,.24,0,.36,0,.24-.07.36-.06.24-.1.35-.11.31-.17.47-.14.31-.22.46-.17.3-.27.44-.21.29-.32.43l-103.6,126.27-.18.2-.19.18-.2.17-.21.16-.22.14-.23.13-.23.12-.24.11-.24.09-.25.08-.25.06-.26,0-.17,0-.17,0h-.86l-.15,0-.15,0-.15,0-.15,0-.15,0-.15,0-.14,0-.14,0-.14-.05-.14-.06-.14-.06-.14-.07-.14-.07-.13-.08-.13-.08-69.5-45.38-.36-.26-.33-.29-.29-.31q-.14-.16-.26-.33t-.22-.35q-.1-.18-.18-.36t-.15-.38q-.06-.19-.11-.39l0-.17,0-.17q0-.09,0-.17t0-.17,0-.22,0-.22,0-.22,0-.22a3.87,3.87,0,0,1,.09-.39,3.77,3.77,0,0,1,.52-1.1L589.34,813l.21-.28.22-.27.24-.25.25-.23.26-.21.27-.2.28-.18.29-.16.29-.14.3-.12.3-.1.31-.09h.2l.15,0,.15,0,.15,0h.15m-3.87-27.41-.21,0-.21,0-.21,0-.2,0-.31.09-.31.11-.3.13-.3.15-.29.17-.28.19-.27.21-.26.22-.25.25-.24.26-.23.28-.21.29-17.67,26.34-1.13,1.68L565.12,816l-3.26,4.87-3.3,4.92-6.48,9.66L545.69,845l-6.3,9.39-6.21,9.26-6.12,9.13-6,9-6,8.88-5.88,8.76-2.35,3.5L503.4,908l-5.72,8.53L492,925l-5.57,8.3-5.5,8.2-.62.93-.42.62-7.07,10.55q-.1.15-.18.31t-.15.32q-.07.16-.12.33t-.09.33l.05,1.74v.16q.05.17.12.33t.15.33q.08.16.17.31l.2.3q.12.17.26.33l.29.31.33.28.36.26.29.19,2,1.28.61.4,13.35,8.65,78.41,50.8.13.08.13.08.14.07.14.06.14.06.14.06.14.05.14,0,.14,0,.15,0,.15,0,.14,0,.15,0,.15,0,.15,0h.85l.17,0,.16,0,.25,0,.25-.06.25-.07.24-.08.24-.1.23-.11.22-.13.21-.14.2-.15.19-.16.18-.18.17-.19L701.48,869.62q.16-.19.3-.39t.26-.4q.12-.2.22-.41t.18-.42l.35-2.12h0q0-.23-.05-.47a4.53,4.53,0,0,0-.1-.45,4.34,4.34,0,0,0-.14-.44,4.15,4.15,0,0,0-.19-.42,4.24,4.24,0,0,0-.53-.78,4.35,4.35,0,0,0-.33-.35,4.51,4.51,0,0,0-.38-.31L592.7,784.16l-.16-.11-.16-.1-.16-.1-.17-.09-.15-.07-.15-.06-.15-.06-.15-.06h-.08l-.18-.05-.18,0-.18,0-.18,0-.18,0-.18,0h-.8"/><g class="cls-19"><path class="cls-13" d="M671.45,866.37l-.49.21,2.13,8.65,1.19-1.45q.14-.18.27-.36t.23-.37q.1-.19.19-.38t.14-.39.08-.29.06-.3,0-.3,0-.3s0-.07,0-.1,0-.07,0-.1v-.2a3.59,3.59,0,0,0-.26-1.12,3.65,3.65,0,0,0-.17-.35,3.86,3.86,0,0,0-.21-.33,3.71,3.71,0,0,0-.24-.31,3.62,3.62,0,0,0-.28-.28l-.32-.25-2.36-1.7"/><polyline class="cls-13" points="670.02 878.99 662.47 882.22 663.64 886.77 670.02 878.99"/><polyline class="cls-13" points="655.28 896.97 654.23 897.41 654.4 898.04 655.28 896.97"/><polyline class="cls-13" points="660.88 858.79 656.92 860.54 659.71 871.47 670.96 866.58 670.78 865.89 660.88 858.79"/><polyline class="cls-13" points="659.71 871.47 648.63 876.3 651.45 886.93 662.47 882.22 659.71 871.47"/><polyline class="cls-13" points="651.45 886.93 640.57 891.59 643.42 901.96 654.23 897.41 651.45 886.93"/><polyline class="cls-13" points="643.42 901.96 632.74 906.46 635.62 916.57 641.07 914.3 645.36 909.07 643.42 901.96"/><polyline class="cls-13" points="635.62 916.57 625.14 920.9 627.91 930.36 636.54 919.84 635.62 916.57"/><polyline class="cls-13" points="627.36 931.03 617.75 934.95 619.46 940.67 627.36 931.03"/><polyline class="cls-13" points="614.13 947.19 610.55 948.62 611.21 950.74 614.13 947.19"/><polyline class="cls-13" points="650.25 851.17 642.85 854.51 645.76 865.5 656.92 860.54 655.48 854.92 650.25 851.17"/><polyline class="cls-13" points="645.76 865.5 634.76 870.36 637.68 881.05 648.63 876.3 645.76 865.5"/><polyline class="cls-13" points="637.68 881.05 626.88 885.75 629.84 896.18 640.57 891.59 637.68 881.05"/><polyline class="cls-13" points="629.84 896.18 619.25 900.73 622.22 910.89 632.74 906.46 629.84 896.18"/><polyline class="cls-13" points="622.22 910.89 611.83 915.27 614.8 925.18 625.14 920.9 622.22 910.89"/><polyline class="cls-13" points="614.8 925.18 604.6 929.4 607.59 939.09 617.75 934.95 614.8 925.18"/><polyline class="cls-13" points="607.59 939.09 597.58 943.17 600.58 952.61 610.55 948.62 607.59 939.09"/><polyline class="cls-13" points="600.58 952.61 590.74 956.55 593.75 965.77 601.35 962.79 603.13 960.61 600.58 952.61"/><polyline class="cls-13" points="593.75 965.77 584.08 969.59 587.11 978.6 588.98 977.87 595.21 970.26 593.75 965.77"/><polyline class="cls-13" points="587.11 978.6 577.6 982.28 579.9 988.96 587.48 979.7 587.11 978.6"/><polyline class="cls-13" points="577.02 992.46 571.29 994.65 572.48 998.02 577.02 992.46"/><polyline class="cls-13" points="639.55 843.5 628.75 848.46 631.77 859.49 642.85 854.51 640.01 843.84 639.55 843.5"/><polyline class="cls-13" points="631.77 859.49 620.83 864.41 623.89 875.17 634.76 870.36 631.77 859.49"/><polyline class="cls-13" points="623.89 875.17 613.16 879.91 616.24 890.41 626.88 885.75 623.89 875.17"/><polyline class="cls-13" points="616.24 890.41 605.71 894.98 608.8 905.2 619.25 900.73 616.24 890.41"/><polyline class="cls-13" points="608.8 905.2 598.48 909.62 601.56 919.58 611.83 915.27 608.8 905.2"/><polyline class="cls-13" points="601.56 919.58 591.42 923.85 594.52 933.58 604.6 929.4 601.56 919.58"/><polyline class="cls-13" points="594.52 933.58 584.58 937.7 587.68 947.2 597.58 943.17 594.52 933.58"/><polyline class="cls-13" points="587.68 947.2 577.9 951.18 581.01 960.45 590.74 956.55 587.68 947.2"/><polyline class="cls-13" points="581.01 960.45 571.41 964.29 574.53 973.35 584.08 969.59 581.01 960.45"/><polyline class="cls-13" points="574.53 973.35 565.09 977.07 568.21 985.92 577.6 982.28 574.53 973.35"/><polyline class="cls-13" points="568.21 985.92 558.93 989.52 562.05 998.16 571.29 994.65 568.21 985.92"/><polyline class="cls-13" points="562.05 998.16 561.83 998.25 562.16 998.47 562.05 998.16"/><polyline class="cls-13" points="624.41 832.65 625.66 837.23 628.77 835.78 624.41 832.65"/><polyline class="cls-13" points="625.66 837.23 614.61 842.39 617.75 853.49 628.75 848.46 625.66 837.23"/><polyline class="cls-13" points="617.75 853.49 606.9 858.45 610.07 869.27 620.83 864.41 617.75 853.49"/><polyline class="cls-13" points="610.07 869.27 599.41 874.05 602.6 884.59 613.16 879.91 610.07 869.27"/><polyline class="cls-13" points="602.6 884.59 592.15 889.22 595.34 899.5 605.71 894.98 602.6 884.59"/><polyline class="cls-13" points="595.34 899.5 585.09 903.95 588.28 913.97 598.48 909.62 595.34 899.5"/><polyline class="cls-13" points="588.28 913.97 578.23 918.28 581.42 928.07 591.42 923.85 588.28 913.97"/><polyline class="cls-13" points="581.42 928.07 571.55 932.23 574.75 941.77 584.58 937.7 581.42 928.07"/><polyline class="cls-13" points="574.75 941.77 565.04 945.79 568.25 955.11 577.9 951.18 574.75 941.77"/><polyline class="cls-13" points="568.25 955.11 558.71 959 561.92 968.1 571.41 964.29 568.25 955.11"/><polyline class="cls-13" points="561.92 968.1 552.54 971.86 555.75 980.75 565.09 977.07 561.92 968.1"/><polyline class="cls-13" points="555.75 980.75 546.54 984.38 548.43 989.5 552.35 992.06 558.93 989.52 555.75 980.75"/><polyline class="cls-13" points="608.66 821.36 611.41 831.1 617.93 828.01 608.66 821.36"/><polyline class="cls-13" points="611.41 831.1 600.43 836.3 603.69 847.46 614.61 842.39 611.41 831.1"/><polyline class="cls-13" points="603.69 847.46 592.92 852.47 596.2 863.35 606.9 858.45 603.69 847.46"/><polyline class="cls-13" points="596.2 863.35 585.64 868.18 588.93 878.78 599.41 874.05 596.2 863.35"/><polyline class="cls-13" points="588.93 878.78 578.56 883.45 581.85 893.77 592.15 889.22 588.93 878.78"/><polyline class="cls-13" points="581.85 893.77 571.68 898.28 574.98 908.35 585.09 903.95 581.85 893.77"/><polyline class="cls-13" points="574.98 908.35 564.99 912.7 568.29 922.54 578.23 918.28 574.98 908.35"/><polyline class="cls-13" points="568.29 922.54 558.48 926.73 561.78 936.33 571.55 932.23 568.29 922.54"/><polyline class="cls-13" points="561.78 936.33 552.14 940.39 555.45 949.75 565.04 945.79 561.78 936.33"/><polyline class="cls-13" points="555.45 949.75 545.99 953.68 549.3 962.83 558.71 959 555.45 949.75"/><polyline class="cls-13" points="549.3 962.83 539.98 966.62 543.28 975.57 552.54 971.86 549.3 962.83"/><polyline class="cls-13" points="543.28 975.57 534.13 979.23 534.6 980.47 542.83 985.84 546.54 984.38 543.28 975.57"/><polyline class="cls-13" points="596.02 812.3 593.76 813.42 597.12 824.95 607.01 820.18 596.02 812.3"/><polyline class="cls-13" points="597.12 824.95 586.22 830.2 589.6 841.43 600.43 836.3 597.12 824.95"/><polyline class="cls-13" points="589.6 841.43 578.92 846.48 582.31 857.41 592.92 852.47 589.6 841.43"/><polyline class="cls-13" points="582.31 857.41 571.82 862.29 575.23 872.96 585.64 868.18 582.31 857.41"/><polyline class="cls-13" points="575.23 872.96 564.94 877.66 568.33 888.05 578.56 883.45 575.23 872.96"/><polyline class="cls-13" points="568.33 888.05 558.25 892.59 561.64 902.72 571.68 898.28 568.33 888.05"/><polyline class="cls-13" points="561.64 902.72 551.73 907.11 555.13 917 564.99 912.7 561.64 902.72"/><polyline class="cls-13" points="555.13 917 545.39 921.24 548.8 930.88 558.48 926.73 555.13 917"/><polyline class="cls-13" points="548.8 930.88 539.23 934.98 542.64 944.39 552.14 940.39 548.8 930.88"/><polyline class="cls-13" points="542.64 944.39 533.23 948.36 536.64 957.55 545.99 953.68 542.64 944.39"/><polyline class="cls-13" points="536.64 957.55 527.39 961.38 530.78 970.37 539.98 966.62 536.64 957.55"/><polyline class="cls-13" points="530.78 970.37 523.61 973.29 533.25 979.58 534.13 979.23 530.78 970.37"/><path class="cls-13" d="M593.21,811.58l-.23,0-.23,0-.23.06-.23.07-.22.09-.22.1-.21.11-.21.12-.2.13-.2.14-.19.15-.18.16-.17.17-.17.18-.16.19-.15.2-1.8,2.6,5.54-2.71-.54-1.84"/><polyline class="cls-13" points="583.88 822.39 575.3 834.78 575.48 835.37 586.22 830.2 583.88 822.39"/><polyline class="cls-13" points="575.48 835.37 574.59 835.8 566.92 846.87 568.39 851.47 578.92 846.48 575.48 835.37"/><polyline class="cls-13" points="568.39 851.47 561.47 854.74 558.74 858.69 561.49 867.1 571.82 862.29 568.39 851.47"/><polyline class="cls-13" points="561.49 867.1 551.28 871.86 554.78 882.31 564.94 877.66 561.49 867.1"/><polyline class="cls-13" points="554.78 882.31 544.77 886.89 548.27 897.08 558.25 892.59 554.78 882.31"/><polyline class="cls-13" points="548.27 897.08 538.43 901.5 541.95 911.45 551.73 907.11 548.27 897.08"/><polyline class="cls-13" points="541.95 911.45 532.28 915.72 535.78 925.42 545.39 921.24 541.95 911.45"/><polyline class="cls-13" points="535.78 925.42 526.28 929.55 529.79 939.02 539.23 934.98 535.78 925.42"/><polyline class="cls-13" points="529.79 939.02 520.45 943.02 523.94 952.27 533.23 948.36 529.79 939.02"/><polyline class="cls-13" points="523.94 952.27 514.77 956.13 518.25 965.16 527.39 961.38 523.94 952.27"/><polyline class="cls-13" points="518.25 965.16 513.92 966.96 520.65 971.36 518.25 965.16"/><polyline class="cls-13" points="550.74 870.24 548.81 873.01 551.28 871.86 550.74 870.24"/><polyline class="cls-13" points="542.92 881.52 536.61 890.62 544.77 886.89 542.92 881.52"/><polyline class="cls-13" points="535.28 892.55 527.81 903.34 528.73 905.88 538.43 901.5 535.28 892.55"/><polyline class="cls-13" points="528.73 905.88 524.83 907.63 520.5 913.89 522.74 919.95 532.28 915.72 528.73 905.88"/><polyline class="cls-13" points="522.74 919.95 513.46 924.04 513.34 924.22 516.91 933.63 526.28 929.55 522.74 919.95"/><polyline class="cls-13" points="516.91 933.63 507.65 937.67 511.23 946.97 520.45 943.02 516.91 933.63"/><polyline class="cls-13" points="511.23 946.97 502.13 950.86 505.7 959.95 514.77 956.13 511.23 946.97"/><polyline class="cls-13" points="505.7 959.95 504.16 960.59 506.58 962.16 505.7 959.95"/><polyline class="cls-13" points="506.34 934.32 502.47 939.92 507.65 937.67 506.34 934.32"/><path class="cls-13" d="M499.5,944.21l-4.44,6.4-.12.19-.11.2-.09.2-.08.2-.06.21q0,.11,0,.22t0,.22c0,.07,0,.14,0,.21s0,.05,0,.08,0,.05,0,.08,0,.05,0,.08v.08s0,.09,0,.13l0,.13,0,.13,0,.14.06.21.07.21.08.2.1.2,7.23-3.09-2.63-6.65"/></g><path class="cls-13" d="M494.51,952.59v-.08s0-.05,0-.08,0-.05,0-.08,0-.05,0-.08,0-.14,0-.21,0-.14,0-.22,0-.14,0-.22l.06-.21.08-.2.09-.2.11-.2.12-.19,4.44-6.4,3-4.29,3.88-5.6,7-10.11.12-.17,7-10.15,4.34-6.26,3-4.28,7.47-10.79,1.33-1.93,6.31-9.1,5.89-8.51,1.93-2.77,8-11.55,2.74-4,5.45-7.87,7.66-11.08.71-1,8.57-12.39,4.34-6.27,1.8-2.6.15-.2.16-.19.17-.18.17-.17.18-.16.19-.15.2-.14.2-.13.21-.12.21-.11.22-.1.22-.09.23-.07.23-.06.23,0,.23,0,.13,0H594l.15,0,.15,0,.15,0,.15,0,.14,0,.14,0,.14.05.14.05.14.06.14.07.13.07.13.08.12.08.12.08,0,0,11,7.88,1.65,1.18,9.27,6.65,6.48,4.64,4.36,3.13,10.77,7.72.47.34,10.24,7.33,5.23,3.75,5.41,3.87,9.9,7.1.67.48,2.36,1.7.32.25a3.62,3.62,0,0,1,.28.28,3.71,3.71,0,0,1,.24.31,3.86,3.86,0,0,1,.21.33,3.65,3.65,0,0,1,.17.35,3.59,3.59,0,0,1,.26,1.12v.2s0,.07,0,.1,0,.07,0,.1,0,.2,0,.3,0,.2,0,.3,0,.2-.06.3-.05.2-.08.29-.09.26-.14.39-.12.26-.19.38-.14.25-.23.37-.17.24-.27.36l-1.19,1.45L670,879l-6.37,7.77L655.28,897,654.4,898l-9,11-4.29,5.23-4.53,5.54-8.63,10.53-.55.66-7.9,9.64-5.34,6.52-2.91,3.56-8.09,9.86-1.78,2.18-6.13,7.47L589,977.87l-1.49,1.83L579.9,989,577,992.46,572.48,998l-1.74,2.11-.14.16-.15.15-.16.14-.17.13-.18.12-.19.11-.19.1-.2.09-.2.08-.21.06-.21.05-.22,0h-1.16l-.13,0-.12,0-.13,0-.12,0-.12,0-.12,0-.12,0-.12,0-.12-.05-.12-.05L566,1001l-.11-.06-.11-.06-.1-.07-3.57-2.33-.33-.21-9.48-6.19-3.92-2.56-5.61-3.66-8.23-5.37-1.35-.89-9.64-6.29-3-1.93-6.74-4.4-7.34-4.79-2.42-1.58-8-5.22-.11-.07-.1-.08-.1-.08-.09-.08-.09-.08-.09-.08-.09-.09-.08-.09-.08-.09-.08-.09-.07-.09-.07-.09-.06-.1-.06-.1-.06-.1-.05-.1-.1-.2-.08-.2-.07-.21-.06-.21,0-.14,0-.13,0-.13s0-.09,0-.13m98.86-141.91h-.15l-.15,0-.15,0-.15,0h-.2l-.31.09-.3.1-.3.12-.29.14-.29.16-.28.18-.27.2-.26.21-.25.23-.24.25-.22.27-.21.28L494.46,950.21a3.77,3.77,0,0,0-.52,1.1,3.87,3.87,0,0,0-.09.39q0,.11,0,.22t0,.22,0,.22,0,.22,0,.17,0,.17l0,.17,0,.17q0,.2.11.39t.15.38q.08.18.18.36t.22.35q.12.17.26.33l.29.31.33.29.36.26,69.5,45.38.13.08.13.08.14.07.14.07.14.06.14.06.14.05.14,0,.14,0,.15,0,.15,0,.15,0,.15,0,.15,0,.15,0h.86l.17,0,.17,0,.26,0,.25-.06.25-.08.24-.09.24-.11.23-.12.23-.13.22-.14.21-.16.2-.17.19-.18.18-.2,103.6-126.27q.17-.21.32-.43t.27-.44q.12-.23.22-.46t.17-.47q.06-.18.1-.35t.07-.36q0-.18,0-.36t0-.36s0-.08,0-.12,0-.08,0-.12,0-.08,0-.12v-.12a4.39,4.39,0,0,0-.06-.46,4.34,4.34,0,0,0-.11-.45,4.27,4.27,0,0,0-.15-.43,4.18,4.18,0,0,0-.2-.42,4.56,4.56,0,0,0-.25-.39,4.38,4.38,0,0,0-.29-.37,4.24,4.24,0,0,0-.72-.64l-77.86-55.84-.15-.1-.16-.1-.16-.09-.16-.09-.16-.08-.17-.07-.17-.06-.17-.06-.17-.05-.17,0-.18,0-.18,0-.18,0-.18,0h-.79"/></g></g></g></g><g id="오른쪽_손" data-name="오른쪽 손"><path class="cls-2" d="M493.67,1336.35S509,1199,485,1121s-54.67-102.67-64-110.67-25.33-20.67-23.33-42.67,28.67-16.67,36.67-11.33c0,0-10.67-33.33,8-45.33S481,907,487,923.68c0,0,3.33-30,32-29.33s30,19.33,30,30.67-2.67,34.67,0,47.33c0,0,.67-24,25.33-22s24.67,10.67,24,18-22.67,23.33-26,48-6,48,23.33,99,68.67,105,73.33,133.67"/></g><g id="오른쪽_손_stroke" data-name="오른쪽 손 stroke"><path class="cls-3" d="M727.09,1268.52c-2.45,9.38-8.48,16.82-14.63,24.08A220,220,0,0,1,691.61,1314c-2.94,2.64-2.16,4.24,1.73,3.51a32.3,32.3,0,0,0,14.27-7,247.33,247.33,0,0,0,23.51-24c6.64-7.83,13.44-16.15,16.08-26.26.86-3.3-7.65.05-8.55.42-3,1.22-10.59,4.13-11.56,7.85Z"/><path class="cls-3" d="M503,1342c5.83-52.41,7.25-106.49,1.88-159a319.38,319.38,0,0,0-33.22-113.47c-11.14-21.77-25.43-41.53-43.92-57.59-4.35-3.78-7.11-5.76-10.72-9.62a36.81,36.81,0,0,1-10.14-27.44c.49-8.51,5.35-14.75,13.92-16a28.88,28.88,0,0,1,10.06.39,25.31,25.31,0,0,1,3.9,1.08c.45.15,1.61.31-.06-.08,2.65.63-.62-.45.42.21.45.29,9.6,4.87,8.55,1.53-3.2-10.14-4.73-22.65-1.09-32.8,3.12-8.68,10.56-14,19.4-16.12a29.11,29.11,0,0,1,7.52-.85c.36,0,6.53.88,6.4,1.15.07-.16-1.82-1.34-1.76-1.39.31-.29,3.45,5.83,3.56,6.12,1.65,4.28,6.29,7.43,10.08,9.71,1.49.89,8.15,5,8.55,1.53.09-.8-.12.61,0-.29s.38-1.91.62-2.85a42.24,42.24,0,0,1,3.11-8.42c3.82-7.66,10.17-13.66,18.66-15.63a37.6,37.6,0,0,1,18.08.44c.45.12,2.1.68,2.1.69-.17.21-3.61-2.72-3.62-2.72,1,.47.24.12.71.86.25.4.84,1.45,1.16,2.13,3,6.44,2.67,14.34,2.39,21.27-.56,13.83-2.53,28.27.13,42,.7,3.61,17.7,15.37,18.5,12.12a41,41,0,0,1,8.18-16.3c3.09-3.67,6.94-6.51,11.7-7.46a18.64,18.64,0,0,1,7.88.14c1.21.27,4.43,2.08,5.42,1.79.57-.17-.78-.43-1.42-.9a24,24,0,0,1-2.25-2c.32-.29,1.58,4.27,1.62,4.57a16.77,16.77,0,0,1-.32,5.8,22.75,22.75,0,0,1-4.12,9.19c-6.91,8.87-15.4,15-19.34,26.11-3.36,9.47-4.14,20.7-4.44,30.72a104.88,104.88,0,0,0,3.9,31.25c9.28,33.49,29.91,63.28,48.08,92.45,10.31,16.55,20.77,33,30.23,50.1,6.75,12.19,14,25.17,16.38,39.07.71,4.11,6.85,7.77,10.08,9.71.91.55,9.13,4.89,8.55,1.53-2.23-12.85-8.54-25.07-14.63-36.46-8.59-16.07-18.27-31.54-27.9-47-10.45-16.8-21-33.54-30.88-50.69-8.75-15.19-16.81-31.05-21.44-48a105.13,105.13,0,0,1-3.66-32.85c.58-11.74,1.68-24.45,7.83-34.71,5.08-8.46,15.08-14.18,18.53-23.47,4.1-11.06.15-19.61-8.69-27.06-11.54-9.72-31.52-19.43-45.36-8.79-6.22,4.78-10.46,12.74-12.31,20.3L558.31,978c-2.74-14.1-.59-28.92-.09-43.14.3-8.65,0-17.62-4.91-25.12-13.42-20.69-51.83-33.27-68.64-9.9a39.59,39.59,0,0,0-7,18.26l18.63,11.23c-9.15-23.72-45.47-43-66.62-22-10.7,10.6-8.84,30.26-4.68,43.45l8.55,1.53c-10.41-6.64-28.05-11.79-38.95-3.44-6.58,5-7.14,14.75-6.07,22.32,1.31,9.24,6.17,17.62,12.22,24.57,5.09,5.84,10.95,10.85,16.82,15.87,1,.86,2,1.77,3,2.59-1.58-1.26-1.16-1.08.23.22.71.66,1.42,1.32,2.11,2s1.54,1.5,2.29,2.27c.44.45,2.71,2.85,1.1,1.11q2.77,3,5.37,6.14a157.81,157.81,0,0,1,11,15.11c21.32,33.06,35.1,72.07,41,110.86,5.65,37,6.17,74.79,5,112.14-.7,22.25-1.91,44.58-4.37,66.71-.57,5.1,18.2,15.12,18.63,11.23Z"/><path class="cls-3" d="M459.17,992.37c-2.56-4.66-5-9.39-7.4-14.14-2.08-4.14-4.11-8.31-6-12.53q-1.26-2.78-2.43-5.6c-1.43-3.44.65,1.95-.53-1.33q-.5-1.38-.95-2.78c-1.39-4.32-5.23-10.62-10.57-10.23s-5.68,7.12-4.45,10.93c4.71,14.61,12.13,28.54,19.5,42,2,3.68,6.5,9.22,11.37,7,4.63-2.15,3.37-9.8,1.48-13.25Z"/><path class="cls-3" d="M502.88,975.27c-3.56-14.61-7.34-30.23-7-45.33.07-3.28-7.64-8.07-10-9.7-1-.72-7.72-5.42-7.78-2.82-.34,15.1,3.44,30.73,7,45.33.94,3.87,6.94,7.57,10,9.7.78.55,8.35,5.16,7.78,2.82Z"/><path class="cls-3" d="M561.22,989.53c-.18-.39-.34-.8-.5-1.2-.53-1.3.3,1,0-.18-.2-.67-.43-1.33-.62-2a35.33,35.33,0,0,1-1.45-10.52c.13-4.89-4.64-9.17-8.46-11.53-1.73-1.07-10-4.83-10.11,0a48.07,48.07,0,0,0,4.23,21.09,19.83,19.83,0,0,0,12.35,10c4.42,1.06,6.48-1.58,4.61-5.68Z"/></g><g id="눈"><path class="cls-20" d="M828.25,748.49c9.2,1.4,21.47,3,24.5,2.27,3.57-.89,4.8-12.05,2.54-19.33C836.83,732.84,828.25,748.49,828.25,748.49Z"/><path class="cls-21" d="M855.29,731.43c-.9-2.91-2.36-5.19-4.45-6h0a22.78,22.78,0,0,1-8.58,7.3c-10.75,5.5-19.25-3.25-19.25-3.25,1,3.35,1.91,10.36-5.44,17.25h0s4.7.82,10.68,1.73C828.25,748.49,836.83,732.84,855.29,731.43Z"/><path class="cls-13" d="M666,628.52c.13,0,8,47.5,49,56.13,26.44,5.56,73.83-2.18,77.66-71.15h0C739.31,630.74,693.5,631,666,628.52Z"/><path class="cls-13" d="M910.2,548.82c-42.37,36.86-78,51.88-117.54,64.67h0s30.82,54.94,82,32.43C934.33,619.68,910.2,548.82,910.2,548.82Z"/><path class="cls-6" d="M786.48,752.31c15,11.09,45.22-3.72,39.42-23.57l-5.57,2c13.83,13.8,36.81.3,37.09-17.5,0-2.74-5.8-1.7-5.84.58-.2,12.86-14.82,25.57-25.91,14.5-1.31-1.3-6.28-.45-5.57,2,4.45,15.23-16.84,27.95-29.08,18.93-1.8-1.33-7,1.25-4.54,3.09Z"/><path class="cls-6" d="M844.08,707.79c2.76,7,12.71,9.46,19.45,10.12,3,.29,5.86-4,2-4.41-4.77-.47-13.58-2.1-15.6-7.26-1.07-2.72-6.84-1.11-5.8,1.55Z"/><path class="cls-6" d="M731,666.91a23.76,23.76,0,0,0,15.25-42A327.06,327.06,0,0,1,711.92,629,23.77,23.77,0,0,0,731,666.91Z"/><path class="cls-6" d="M858.54,623.26a23.77,23.77,0,0,0,10.4-45.14,362,362,0,0,1-34,18.52,23.73,23.73,0,0,0,23.59,26.62Z"/><path class="cls-6" d="M633.56,626.57c20.18,5.2,42.2,5.84,62.88,5.28A353.7,353.7,0,0,0,843.6,594.77c35.23-17.51,67.34-40.63,96-67.55,1.9-1.79-1.7-1.89-2.72-1.83-2.46.15-5.89,1-7.76,2.75-44.86,42.18-98.66,74.81-158.68,89.85-35,8.78-72.08,11.79-108,7.44a150.13,150.13,0,0,1-19.32-3.3c-2.5-.64-5.86.4-8.1,1.5-1,.5-4,2.29-1.44,2.94Z"/></g><g id="코"><path class="cls-22" d="M792.66,687.35c-1.08,2.38,9.34,6.83,11.17,6s7-9.67,5.33-11S793.49,685.51,792.66,687.35Z"/></g></svg>