<?xml version="1.0" encoding="utf-8"?>
<!-- Generator: Adobe Illustrator 21.1.0, SVG Export Plug-In . SVG Version: 6.00 Build 0)  -->
<svg version="1.1" xmlns="http://www.w3.org/2000/svg" xmlns:xlink="http://www.w3.org/1999/xlink" x="0px" y="0px"
	 viewBox="0 0 30 30" style="enable-background:new 0 0 30 30;" xml:space="preserve">
<style type="text/css">
	.st0{display:none;}
	.st1{display:inline;}
	.st2{fill:#2A2A2B;}
</style>
<g id="TEL_x2F_mobile" class="st0">
	<g class="st1">
		<path class="st2" d="M10.9,7.6c0.9-0.2,1.4,0.8,1.9,1.5c0.4,0.7,0.9,1.4,0.7,2.3c-0.1,0.5-0.6,0.7-0.9,1c-0.3,0.3-0.8,0.5-0.9,1
			c-0.2,0.7,0.2,1.4,0.5,1.9c0.6,0.9,1.3,1.8,2.3,2.6c0.5,0.4,1.1,0.9,1.7,0.7c0.9-0.2,1.2-1.3,2.2-1.5c1-0.1,1.6,0.6,2.2,1
			c0.5,0.5,1.4,1,1.3,1.8c0,0.5-0.4,0.7-0.7,1c-0.3,0.3-0.6,0.6-0.9,0.8c-0.8,0.5-1.7,0.7-2.8,0.7c-1.1,0-1.9-0.4-2.7-0.8
			c-1.5-0.8-2.7-1.9-3.8-3.2C10,17.2,9,15.8,8.4,14.2c-0.7-2-0.3-4.1,0.8-5.3C9.4,8.7,9.7,8.4,10,8.2C10.3,8,10.5,7.7,10.9,7.6z"/>
		<path class="st2" d="M15,0.5C7,0.5,0.5,7,0.5,15C0.5,23,7,29.5,15,29.5c8,0,14.5-6.5,14.5-14.5C29.5,7,23,0.5,15,0.5z M15,27.5
			C8.1,27.5,2.5,21.9,2.5,15S8.1,2.5,15,2.5S27.5,8.1,27.5,15S21.9,27.5,15,27.5z"/>
	</g>
</g>
<g id="E-mail">
	<g>
		<path id="XMLID_1_" class="st2" d="M29.2,5.2C29.2,5.1,29.2,5.1,29.2,5.2C29.2,5.1,29.2,5.1,29.2,5.2c-0.2-0.2-0.4-0.3-0.7-0.4
			c0,0,0,0,0,0c0,0,0,0,0,0H1.6c0,0,0,0,0,0c0,0,0,0,0,0C1.2,4.8,1,4.9,0.8,5.1c0,0,0,0,0,0c0,0,0,0,0,0C0.6,5.3,0.5,5.6,0.5,5.9
			v18.3c0,0.6,0.5,1.1,1.1,1.1h26.8c0.6,0,1.1-0.5,1.1-1.1V5.9C29.5,5.6,29.4,5.3,29.2,5.2z M2.7,8.3l6.9,6.3l-6.9,6.8V8.3z
			 M15,16.7L4.3,6.9h21.3L15,16.7z M11.1,16l3.2,2.9c0.2,0.2,0.5,0.3,0.7,0.3s0.5-0.1,0.7-0.3l3.2-2.9l7.1,7H4L11.1,16z M20.5,14.6
			l6.9-6.3v13.1L20.5,14.6z"/>
	</g>
</g>
<g id="Web" class="st0">
	<g class="st1">
		<path id="XMLID_207_" class="st2" d="M29.5,15c0-4.2-1.9-8-4.8-10.7v0c-0.1-0.1-0.1-0.1-0.2-0.2C22,1.9,18.7,0.5,15,0.5
			c-3.7,0-7,1.4-9.5,3.7C5.4,4.2,5.3,4.3,5.3,4.3v0C2.4,7,0.5,10.8,0.5,15s1.9,8,4.8,10.7v0c0.1,0.1,0.2,0.1,0.2,0.2
			c0.6,0.5,1.2,1,1.8,1.4c0.2,0.1,0.3,0.2,0.5,0.3c0.6,0.3,1.2,0.7,1.9,0.9c0.3,0.1,0.7,0.2,1,0.3c0.5,0.2,1,0.3,1.5,0.4
			c0.9,0.2,1.8,0.3,2.7,0.3c0.9,0,1.8-0.1,2.7-0.3c0.5-0.1,1-0.3,1.6-0.4c0.3-0.1,0.7-0.2,1-0.3c0.7-0.3,1.3-0.6,1.9-0.9
			c0.2-0.1,0.3-0.2,0.5-0.3c0.7-0.4,1.3-0.9,1.8-1.4c0.1-0.1,0.2-0.1,0.2-0.2v0C27.6,23,29.5,19.2,29.5,15z M20.2,25.7
			c-0.5,0.2-1,0.4-1.5,0.6c-0.1,0-0.2,0.1-0.2,0.1c-0.7,0.2-1.4,0.3-2.2,0.4v-4.1c2,0.2,3.9,0.9,5.6,2.1c-0.4,0.3-0.9,0.6-1.4,0.8
			C20.4,25.6,20.3,25.7,20.2,25.7z M11.3,26.3c-0.5-0.2-1-0.4-1.5-0.6c-0.1-0.1-0.2-0.1-0.3-0.2c-0.5-0.2-0.9-0.5-1.3-0.8
			c1.7-1.2,3.6-1.8,5.6-2.1v4.1c-0.7-0.1-1.5-0.2-2.2-0.4C11.5,26.4,11.4,26.3,11.3,26.3z M16.3,20.2v-4h10.6
			c-0.3,2.6-1.4,5-3.1,6.8C21.6,21.4,19,20.5,16.3,20.2z M26.8,13.7H16.3V9.9c2.7-0.2,5.3-1.3,7.5-3C25.5,8.8,26.5,11.1,26.8,13.7z
			 M9.5,4.4c0.1-0.1,0.2-0.1,0.3-0.2c0.5-0.2,1-0.4,1.5-0.6c0.1,0,0.2-0.1,0.3-0.1c0.7-0.2,1.4-0.3,2.2-0.4v4.1
			c-2-0.2-3.9-0.9-5.6-2.1C8.6,4.9,9,4.7,9.5,4.4z M18.7,3.7c0.5,0.2,1,0.4,1.5,0.6c0.1,0.1,0.2,0.1,0.3,0.2
			c0.5,0.2,0.9,0.5,1.3,0.8c-1.7,1.2-3.6,1.8-5.6,2.1V3.2c0.7,0.1,1.5,0.2,2.2,0.4C18.5,3.6,18.6,3.7,18.7,3.7z M6.2,6.9
			c2.2,1.7,4.8,2.7,7.5,3v3.8H3.2C3.5,11.1,4.5,8.8,6.2,6.9z M3.2,16.3h10.6v4c-2.7,0.2-5.3,1.2-7.5,2.8C4.6,21.2,3.5,18.9,3.2,16.3
			z"/>
	</g>
</g>
<g id="instagram" class="st0">
	<g id="XMLID_44_" class="st1">
		
			<ellipse id="XMLID_51_" transform="matrix(1 -5.805190e-03 5.805190e-03 1 -4.167258e-02 0.1325)" class="st2" cx="22.8" cy="7.2" rx="1.7" ry="1.7"/>
		<path id="XMLID_48_" class="st2" d="M29.4,8.2C29.3,4,26.2,0.8,22,0.6c-2.3-0.1-11.7-0.1-14,0C3.8,0.8,0.7,4,0.6,8.2
			c-0.1,4.5-0.1,9.1,0,13.6c0.1,4.3,3.2,7.4,7.4,7.6c2.3,0.1,11.7,0.1,14,0c4.2-0.2,7.3-3.3,7.4-7.6C29.5,17.3,29.5,12.8,29.4,8.2z
			 M26.8,21.4c-0.1,3.4-2.1,5.4-5.5,5.5c-2.1,0.1-10.6,0.1-12.7,0c-3.3-0.1-5.4-2.1-5.5-5.5c-0.1-4.2-0.1-8.4,0-12.6
			c0.1-3.4,2.1-5.5,5.5-5.5c2.1,0,10.6,0,12.8,0c3.3,0.1,5.4,2.1,5.5,5.5C26.9,12.9,26.9,17.2,26.8,21.4z"/>
		<path id="XMLID_45_" class="st2" d="M15,22.5c-4.1,0-7.4-3.3-7.4-7.4s3.3-7.4,7.4-7.4s7.4,3.3,7.4,7.4S19.1,22.5,15,22.5z
			 M15,10.3c-2.6,0-4.7,2.1-4.7,4.7s2.1,4.7,4.7,4.7s4.7-2.1,4.7-4.7S17.6,10.3,15,10.3z"/>
	</g>
</g>
</svg>
