<svg xmlns="http://www.w3.org/2000/svg" viewBox="0 0 425.2 425.2"><defs><style>.a{fill:#4b6760;}.b{fill:#b85643;}.c{fill:#bc9c68;}.d{fill:#fffbec;}.e{fill:#ffd244;}.f,.j{fill:none;}.f{stroke:#343535;stroke-linecap:round;stroke-miterlimit:10;stroke-width:8px;}.g{fill:#343535;}.h{fill:#333;}.i{fill:#50525b;}.k{fill:#555454;}.l{fill:#86898f;}.m{fill:#2a2a2b;}.n{fill:#fffffc;}.o{fill:#f7d3d3;}</style></defs><title>Emblum</title><path class="a" d="M242.92,296.38c-2.41,38-13.87,52.89-19.42,57.38-3.65,3-10.62,7.63-29.37,7.13s-31.5-11.5-30.57-29l18.3-2.84c-.85,3.51.61,10,3,12.74a16.26,16.26,0,0,0,9.34,5.08,27.55,27.55,0,0,0,10.76-.38c2.73-.58,5.75-1.07,7.77-3,7.18-6.86,17.17-22.42,16.55-48.11Z"/><path class="b" d="M181.13,327.81s-2.75,19.63,18.56,19.06,27.75-24.37,28.88-33.94a114.44,114.44,0,0,0,.69-17.56s-11.87-1.75-25.56,7.13-21.12,14.31-22.12,17.44S181.24,325.81,181.13,327.81Z"/><path class="c" d="M324,331.62c-.34.3-21.8-6.09-21.8-6.09L299.89,314s34-23.79,52.74-18.67A123.83,123.83,0,0,1,324,331.62Z"/><path class="d" d="M101.25,236.56s-73.18,5.39-76.09-43.09S97.48,129,117.74,126.26A34,34,0,0,1,136.5,104s-5,20.5-1,20.87,25.25,3.38,31.5,7.63c0,0,15.46-8.86,21-7.3,0,0-9.22,15.1-7,17.45s18.53,21.9,2.64,62.5-6.77,55.94-2.2,60.65c0,0-29.15,16.74-29.54,57,0,0-.28,4.05-2.46,6.27s-6.93,11.25,2.07,11.48,5.15-9.54,9.45-7.66,1.17,12.54,9.3,19.14c15.09,12.25,49.38,14.5,60.91-6.78,13.71-25.31,11.76-48.84,11.76-48.84s27.21-6.12,32.4-14.12c0,0,27.14,10.52,26.67,45.76s-30.23,36-30.23,36-66.55,30.11-132-5.57-70.56-68.35-70.56-68.35S79.5,255.37,101.25,236.56Z"/><path class="e" d="M68.66,289.13s19.15-45.8,32.88-52c-15.92-.57-31.37-.54-50.87-8.33C50.67,228.81,53.32,261.38,68.66,289.13Z"/><path class="e" d="M182.63,142.65s17.37,9.7,37,18.25c0,0-8.1,5.48-27.36,9.78C192.27,170.68,187.48,150,182.63,142.65Z"/><path class="e" d="M293.93,246.85s1.85-14.21,16.66-32.74c0,0,13.14,8.24,14.44,11.77C325,225.88,299,245.53,293.93,246.85Z"/><path class="e" d="M287.42,262.7s-8.73,17.76-12.11,19.63c0,0,13.33,2.83,25.19,31.71,0,0,29.5-19.77,52.13-19.14,0,0,23.67-46.18,22.3-77.12,0,0-18.35,4.33-17.26,7,1.54,3.75,5.56-4.35,7.17,5.79,3.58,1.29-1.31,8-6.92,11.17-4.75,2.71-15.62.13-23.41-5.92C309.09,256.5,287.42,262.7,287.42,262.7Z"/><path class="e" d="M342.43,215.22l-10.66-24.38s26.07-27.09,31.68-37.18c0,0,11.54,29.33,11.35,51.17C374.79,204.84,353.66,207.59,342.43,215.22Z"/><path class="e" d="M67.14,140.91C85,97.33,139.2,49.61,212.6,49.61S330.23,99.07,330.23,99.07s-38.4,27.43-77.61,34.43c0,0-21.83-1.56-48.39-4.7-17.84-2.11-37.9-16.14-54.4-3.14l-16.08-1.3L137.49,103s-13.93,2-20.55,22.9C116.94,125.88,96,127.81,67.14,140.91Z"/><path class="e" d="M303.58,326s-4.33,21.57-3.92,21.23,22.83-15.15,22.83-15.15Z"/><path class="f" d="M73.68,127.29A163,163,0,0,1,321.74,91.54"/><path class="f" d="M374.79,228.81a163,163,0,0,1-322.92,11"/><path class="f" d="M365.31,155.51l.51,1.4a162,162,0,0,1,8.6,36.15"/><path class="g" d="M118.33,125.37c4.15-7.44,11-18.61,20.13-21L136.11,102c-1.45,6.63-3.16,13.43-3.61,20.21-.09,1.37,2.79,3.22,2.91,1.38.44-6.57,2.07-13.17,3.48-19.59a2.14,2.14,0,0,0-2.36-2.41c-9.57,2.49-16.58,13.92-21,21.8-.68,1.22,2,3.46,2.78,2Z"/><path class="g" d="M169.69,133.49c5.21-4.44,14.57-7,21.39-5.84l-2.13-4.32c-2.21,2.79-4.33,5.67-6.33,8.62s-5.22,7-5.25,10.88c0,1.67,3.24,5.16,3.26,2.33,0-3.56,3.89-8,5.84-10.77,1.68-2.4,3.43-4.76,5.25-7.06,1.07-1.35-.7-4.08-2.13-4.32-7.34-1.23-17.11,1.74-22.66,6.47-1.27,1.08,1.15,5.39,2.77,4Z"/><path class="g" d="M274.26,283.71c15.72,6.45,24.37,25.57,25.21,41.84a41.24,41.24,0,0,1-9.36,28.19c-1.5,1.86,3.09,3.75,4.43,2.09a43.88,43.88,0,0,0,9.61-32.44c-1.82-17.11-11.3-35.66-27.79-42.43-2.45-1-5.17,1.48-2.1,2.75Z"/><path class="g" d="M179.3,143.33c8.19,11,10.75,25.54,9.08,39-1.08,8.72-4.82,17-7.67,25.27-6.06,17.54-14.89,42.83-.86,58.86,1.39,1.59,6,.92,4-1.36-7.29-8.34-7.16-20.08-5.43-30.42,1.86-11.09,5.66-21.75,9.4-32.32,2.86-8.08,5.49-15.75,5.82-24.4.5-12.86-2.61-25.6-10.34-36-1.27-1.72-5.83-1.09-4,1.36Z"/><path class="g" d="M142.46,220.22c-9.37,7.11-21.81,11.13-33.21,13.15a105.75,105.75,0,0,1-38-.56c-10.16-1.92-20.57-4.94-29.16-10.9C27.68,212,24.51,195,30.76,179.17s20.5-27.33,35-35.19a139.43,139.43,0,0,1,36-13.12c15.05-3.38,31.2-5.38,46.58-3.65,3.29.37,2.18-3.13-.47-3.43-26-2.94-55.17,2.91-78.82,14-16.91,7.89-33.61,19.88-41.8,37.18-7.28,15.39-6,33.67,7,45.45,16.41,14.81,43.14,18.87,64.37,17.79,16.09-.82,34.45-5.26,47.56-15.22,2.16-1.64-2.09-4-3.75-2.72Z"/><path class="g" d="M100,235.22a97.68,97.68,0,0,0-30.87,50.66c-.65,2.67,3.52,4.92,4.27,1.84A93.66,93.66,0,0,1,103.12,239c2.05-1.78-.94-5.74-3.15-3.82Z"/><ellipse class="h" cx="133.71" cy="166.38" rx="7.78" ry="5.79" transform="translate(-62.48 250.47) rotate(-74.41)"/><path class="g" d="M55.62,200.76c-3.46,2.51-7.26,3.16-8.49,1.47s-.23-4.47,3.24-7,9.3-2.09,10.53-.4S59.08,198.26,55.62,200.76Z"/><path class="g" d="M106,239.68a47,47,0,0,0-9.63,13c-.65,1.29,2.26,1,2.71.12a45.27,45.27,0,0,1,9.26-12.58c1.24-1.18-1.6-1.27-2.35-.56Z"/><path class="g" d="M111.15,239.08a68.71,68.71,0,0,0-7.27,11c-.79,1.49,2.14,1.62,2.79.4A65.26,65.26,0,0,1,113.6,240c1.17-1.44-1.56-2.06-2.45-1Z"/><path class="g" d="M115.66,239.4a30.57,30.57,0,0,0-5.19,8.43c-.18.44,2.56.21,2.85-.52a29.57,29.57,0,0,1,4.95-8.15c.55-.64-2.17-.28-2.62.24Z"/><path class="g" d="M119.51,238.82a30.9,30.9,0,0,0-2.43,5.63c-.18.55,2.62.23,2.86-.51a30.9,30.9,0,0,1,2.43-5.63c.26-.46-1-.3-1.16-.28-.5.08-1.42.29-1.7.79Z"/><path class="g" d="M123.16,238.58l-.8,2c-.59,1.46,2.31,1.31,2.74.23l.8-2c.59-1.46-2.31-1.31-2.74-.23Z"/><path class="g" d="M102.46,276.65a63.49,63.49,0,0,1-5,7.54c-1.14,1.47,1.59,2.06,2.45.94a68,68,0,0,0,5.37-8.08c.82-1.45-2.12-1.57-2.79-.39Z"/><path class="g" d="M101.91,287.29l5.88-5.87c.46-.46.27-1-.31-1.17a2.26,2.26,0,0,0-2,.55l-5.88,5.87c-.46.46-.27,1,.31,1.17a2.26,2.26,0,0,0,2-.55Z"/><path class="g" d="M102.84,288.9a29.92,29.92,0,0,0,9.36-2.75c.48-.23.75-.55.32-.9s-1.63.14-2,.33a22.73,22.73,0,0,1-7.16,2c-1.27.15-2.52,1.52-.48,1.28Z"/><path class="g" d="M94.22,284.17c-4.43,1-8.46,3.77-8.8,8.66-.15,2.2,0,4.79,1.81,6.31,1.63,1.38,4.16,1.59,6.21,1.63,4,.06,8.08-1.55,9.58-5.51,1.58-4.19-.69-9.79-5.6-9.75-1,0-3.09,1.6-1.14,1.58,3.48,0,4.73,4.54,4.23,7.25-.75,4-4.52,5.46-8.29,4.61-3.53-.8-4.21-3.82-3.84-7,.4-3.54,2.85-5.55,6.22-6.35,1.75-.41,1.38-1.79-.37-1.38Z"/><path class="g" d="M92.5,289.27l-.59.83c-.38.53.33.71.75.7a2.62,2.62,0,0,0,1.92-.75l.59-.83c.38-.53-.33-.71-.75-.7a2.62,2.62,0,0,0-1.92.75Z"/><path class="g" d="M95.78,291.79l-.58.58c-.45.45.4.46.67.43a3.44,3.44,0,0,0,1.94-.68l.58-.58c.45-.45-.4-.46-.67-.43a3.44,3.44,0,0,0-1.94.68Z"/><path class="g" d="M89.49,294.08c1.12,2.25,3.8,2.67,6,1.63.45-.22,1.15-.73.74-1.28s-1.47-.32-1.94-.1c-.69.33-1.52-.34-1.86-1-.54-1.09-3.38-.19-2.9.78Z"/><path class="g" d="M85.51,295.92a66,66,0,0,0-7.2,2.4c-.52.21-1.1.85-.71,1.41s1.42.38,2,.17A59,59,0,0,1,86,297.77c1.77-.48,1.29-2.32-.49-1.84Z"/><path class="g" d="M86.11,300a58.06,58.06,0,0,1-3.75,7.29c-.66,1.09,2.22.77,2.68,0a61.3,61.3,0,0,0,4-7.69c.35-.82-2.5-.51-2.89.39Z"/><path class="g" d="M87.7,304.15q8.22.29,16.44,0c.89,0,3.13-1.43,1.21-1.35q-7.91.3-15.81,0c-.72,0-3.33,1.28-1.84,1.34Z"/><path class="g" d="M100.88,303.1l3.38-1.74c.4-.21.85-.72.29-1a2.59,2.59,0,0,0-2,.3l-3.38,1.74c-.4.21-.85.72-.29,1a2.59,2.59,0,0,0,2-.3Z"/><path class="g" d="M98.75,305.93l2.79,2.07c.49.37,1.37.12,1.89-.08.21-.08,1.3-.62.82-1l-2.79-2.07c-.49-.37-1.37-.12-1.89.08-.21.08-1.3.62-.82,1Z"/><path class="g" d="M79.61,280.85A54.25,54.25,0,0,0,77.35,298c0,.75,2.92.23,2.9-.78a53.14,53.14,0,0,1,2.25-16.81c.26-.85-2.62-.46-2.88.42Z"/><path class="g" d="M74.72,283.05A10.79,10.79,0,0,0,77,286.27c.69.65,3.41-.43,2.7-1.1a9.72,9.72,0,0,1-2.14-2.9c-.44-.93-3.27,0-2.9.78Z"/><path class="g" d="M83,285.08l3.75-2.51c.47-.32.34-.65-.19-.71a3.37,3.37,0,0,0-2,.55l-3.75,2.51c-.47.32-.34.65.19.71a3.37,3.37,0,0,0,2-.55Z"/><path class="g" d="M113.16,319.69l2.86-5.13-1.82-.42a27.07,27.07,0,0,1,1.53,4.57c.1.44,1.9.71,1.81.34a27.07,27.07,0,0,0-1.53-4.57c-.15-.34-1.6-.82-1.82-.42l-2.86,5.13c-.13.24,1.59.94,1.84.5Z"/><path class="g" d="M120.23,320.48c.64-.59,1.3-1.15,2-1.69a8.69,8.69,0,0,1,2.22-1.55l-1.46-.33c.25.19.32,1.54.34,1.86a8.33,8.33,0,0,1-.13,2c-.09.51,1.76.95,1.84.5.24-1.4.53-4.23-1.24-4.71-.93-.26-1.52.3-2.25.82a35.38,35.38,0,0,0-3,2.48c-.34.31,1.33,1,1.72.66Z"/><path class="g" d="M114.62,322.8c-.35.1-.79.22-.92.6s.45.84.85,1a2.85,2.85,0,0,0,2.84-.24c.15-.13-.06-.27-.16-.33-.8-.5-2.3-.91-3.06-.1-.34.37,1.37.75,1.62.67l.54-.16c.38-.12-.06-.39-.23-.47a2.09,2.09,0,0,0-1.28-.24l-.54.16,1.62.67a1.08,1.08,0,0,1,.34-.26c.42-.19.3.22-.42-.23l-.16-.33a1.66,1.66,0,0,1-.49.31,1.71,1.71,0,0,1-.26.07c-.11,0-.22,0,0,0l.62.24a.23.23,0,0,1,0-.16.47.47,0,0,1,.11-.24,1,1,0,0,1,.51-.24c.39-.11-.07-.39-.23-.47a2.13,2.13,0,0,0-1.28-.24Z"/><path class="g" d="M120.68,324.46a1,1,0,0,0-.88.31.57.57,0,0,0,0,.74,1.66,1.66,0,0,0,.85.48,2.13,2.13,0,0,0,.85.08c.25,0,.62-.16.63-.47s-.19-.36-.36-.46a1.89,1.89,0,0,0-.93-.25,1.14,1.14,0,0,0-.88.3c-.17.19.06.39.22.49a2.06,2.06,0,0,0,1,.31,1,1,0,0,0,1-.49c.06-.12-.13-.3-.19-.35a1.71,1.71,0,0,0-.62-.29c-.29-.07-.85-.2-1,.13l0,0,.06-.09a.7.7,0,0,1-.15.16s.05,0,0,0,.27,0,.15,0l1.23.8s.12-.12.08-.08h0a.57.57,0,0,1-.19,0l-1.29-.71a.27.27,0,0,1,0,.13l.06-.09,0,.05s0,0,0,0h0a1,1,0,0,1,.73.19q.56.37.38.16c.07.1,0,0,0,0v.11a.44.44,0,0,1,.08-.23l-.06.09a1.71,1.71,0,0,1,.13-.13s-.09,0,0,0,0,0-.1,0-.17,0-.09,0c.24,0,.74-.11.47-.44a1.77,1.77,0,0,0-1.22-.48Z"/><path class="g" d="M112.89,326.77a7.13,7.13,0,0,0,9.57,4.18c.6-.26-1.06-1-1.5-.76-2.84,1.24-5.37-.25-6.25-3.1-.15-.5-2-.75-1.82-.31Z"/><path class="g" d="M111.28,318.89c-2.18,3.09-5.09,8-2.37,11.5a20.38,20.38,0,0,0,10,6.52,7.14,7.14,0,0,0,4.81-.11c1.59-.74,2.38-2.48,2.89-4.06a12.9,12.9,0,0,0-1.33-10.53c-.26-.43-2.07-.7-1.69-.06a12.42,12.42,0,0,1,1.61,8.28,11.33,11.33,0,0,1-1.25,3.77c-1.2,2.14-3.32,2.58-5.55,1.73-2.91-1.11-6.74-3.43-8.26-6.25-1.67-3.1,1.12-7.61,2.89-10.11.35-.5-1.42-1.11-1.72-.68Z"/><path class="g" d="M124,324.45a13.89,13.89,0,0,1,10.58,3.67,10,10,0,0,1,3.19,8.82c-.74,3.87-4.25,5.84-8,5.4-4.29-.5-7.73-3.73-11.06-6.19-.65-.48-2.19-.06-1.18.68,4,3,8.1,6.55,13.37,6.75,4.06.15,7.9-1.92,8.72-6.14.75-3.85-1.17-7.65-4-10.18a17,17,0,0,0-12.28-4c-1.24.07-.13,1.23.67,1.19Z"/><path class="g" d="M117.25,337.05l-1.39,2.24c-.25.4-1,1-.69,1.66a1.72,1.72,0,0,0,1.19.66h.11c1.06.13-.08-.83-.75-.91h-.11l1.19.66c-.25-.43.79-1.54,1-1.82l1.06-1.71c.27-.44-1.34-1.14-1.57-.78Z"/><path class="g" d="M129.57,342.33a23.71,23.71,0,0,1-1.61,5.31c-.32.72,1.5,1.27,1.84.5a23.71,23.71,0,0,0,1.61-5.31c.15-.82-1.69-1.3-1.84-.5Z"/><path class="g" d="M125.58,342.21a18.86,18.86,0,0,1-1.88,3c-.48.62,1.28,1.29,1.7.75a20.38,20.38,0,0,0,2-3.21c.29-.58-1.5-1.17-1.84-.5Z"/><path class="g" d="M119.27,338.56l-2.08,3.19c-.4.62,1.38,1.23,1.71.72l2.08-3.19c.4-.62-1.38-1.23-1.71-.72Z"/><path class="g" d="M139.59,332.85c3.18.11,8-.18,8.7-4.17s-3-6.44-6-8.06c-.32-.18-2.15-.41-1.4,0,2.74,1.53,6.15,3.91,5.52,7.54s-5,4-8.06,3.95c-.86,0,.83.71,1.2.72Z"/><path class="g" d="M179.72,331c-2.75,17.26,20,20.4,31.68,15.42,7.32-3.11,11.58-10.65,14.82-17.54a66.28,66.28,0,0,0,6.09-26.44c.06-1.94-4.8-2.84-4.87-.47a63,63,0,0,1-11,34.18,20.89,20.89,0,0,1-15.94,9.25c-8.19.83-17.48-3.49-16-13.09.34-2.12-4.5-3.34-4.82-1.31Z"/><path class="g" d="M239.92,301c-1.19,17.53-3.63,40.39-18.7,52.1-9,7-23.55,7.56-34.2,5.25-13.33-2.89-21.44-13.21-21-26.8.07-2.09-4.89-1.66-5,.57-.35,10.53,4.18,20,13.41,25.34,10.17,5.94,23.48,6,34.76,4,12.76-2.26,21.9-10,27.34-21.58,5.74-12.25,7.41-26.16,8.32-39.51.14-2.06-4.82-1.66-5,.57Z"/><path class="i" d="M293.93,246.85A58.5,58.5,0,0,0,305.86,240c6.28-4.62,11.86-8.67,18.38-13l19.91-12c11.33-6,23.1-10.73,36.12-10.16,7.21.31,16.44,1.28,22.57,5.64,6.77,4.81.27,16.08-6.56,11.23-2.2-1.57-3.42-1.78-6.53-2.56a44.86,44.86,0,0,0-18.51-.94c-4,.74-11.12,2.87-14.95,5.12L334,236.21c-11.55,7.65-22.36,17.58-35.17,22.89a70.68,70.68,0,0,1-11.43,3.6"/><path class="i" d="M331.25,187.13c-.5,2.88,4.63,16.95,9.63,25.47s7.88,12.53,9.13,13.92l1,1.41s2-4,4.84-2.71,2,3.58,2,3.58.23-3.81,3.92-3.24,3.19,3.77,2.59,4.92,1,.53,1,.53c2.75,2.68-3.89,10.37-9.93,11.25s-14.12-1.25-18.21-5c-6.44-5.91-15.33-14.67-21.33-19.5s-8.75-5.15-11.25-3.25"/><path class="j" d="M184.13,264.93a.93.93,0,0,1,.26.57,47.28,47.28,0,0,1,5.8-2.81l-.94-65c-.57,1.66-1.16,3.33-1.76,5C181.16,220.55,169.55,248.26,184.13,264.93Z"/><path class="j" d="M200.88,169.55c3.12-.9,6.28-1.64,9.34-2.73a64.11,64.11,0,0,0,6.43-2.84c3.1-1.5,3-3.09,3-3.09-10.68-6.76-23.76-9.45-34.29-16.57a54.78,54.78,0,0,1,8.3,27.54C195.79,171.15,198.91,170.12,200.88,169.55Z"/><path class="k" d="M166.27,130.47c4.62-3.94,12-6.5,18.68-6.85-8.63-3-11.72-5-24.28-2.78-3.83.67-10.5,3.53-11.56,6.06s-4.13,8.81,2.26,8.31c0,0,5,5.07,8.59,1,0,0,5.29,4.43,7-.93a7.85,7.85,0,0,1,1.34-2.36C166.68,132.67,165,131.57,166.27,130.47Z"/><path class="i" d="M377.08,103.4c-4,5-12.12,9.8-12.51,9.37-4.24-4.68-10.87-7.92-17-9.42l.24-1.18a64.44,64.44,0,0,0,1-12.59,2.28,2.28,0,0,0-3.69-1.71c-13.89,10.88-35,27.13-68.31,38.8-7.07,2.48-17.18,6.57-24.21,6.83-32.58-1.52-49.56-4.61-60-7.46h0c-1.92,2.42-3.8,4.78-5.56,7.32a81.37,81.37,0,0,0-4.88,7.12c.58.05,1.08.92,1.36,1.31.62.83,1.19,1.69,1.75,2.55,10.53,7.11,23.61,9.81,34.29,16.57,0,0,.12,1.59-3,3.09a64.11,64.11,0,0,1-6.43,2.84c-3.06,1.09-6.22,1.83-9.34,2.73-2,.57-5.09,1.59-7.24,2.32.08,1.94.09,3.89,0,5.83-.3,7-2.18,13.48-4.41,20l.94,65a47.28,47.28,0,0,0-5.8,2.81c0,.86-1.43,1.6-2.81,1.71a76.82,76.82,0,0,0-20.13,19.53C153.63,297.64,151.1,311.62,152,325c.11,1.62-4,5.21-5.11,7.16-1.39,2.42-1.55,6.61,2.76,8.49,4.58,2,7-4.48,8-5.51,2.39-2.57,6.17-3.44,9.63-4s7.35-.34,10.7-1.72a6.07,6.07,0,0,0,3.12-2.48c.66-1.18-.07-2.93-.39-3.75a4.49,4.49,0,0,1,1.13-4.52s26.48-26.5,47-23.33,35.83.83,49.83-18,11.63-28.72,16.67-38.83a153.52,153.52,0,0,1,14.48-22.87L332.91,190c13.86-13.89,27.16-27,35.59-46.37,4.16-9.59,9.33-24.67,11.17-38.75C379.93,102.86,378.38,101.77,377.08,103.4Z"/><path class="l" d="M287.5,152.5c-15.17-1.83-33.33,13-48.37,20.89-23.51,12.34-33,10.39-48.26,18.22-.81,3.11-1.81,6.21-2.93,9.37-3.62,10.26-7.42,20.52-9.62,31.21-2.15,10.45-3.62,23.79,4,32.47l.14.18a1.88,1.88,0,0,0,1.06.24c12.74-7.94,16.32-8.73,54.32-25.24s58.83-48,63.33-58.33S302.67,154.33,287.5,152.5Z"/><path class="m" d="M323.05,225.18c-9.78,6.52-18.91,14.76-29.72,19.52-2.76,1.22-1.79,5.6,1.18,4.29,11.28-5,20.72-13.31,30.92-20.11a2.21,2.21,0,1,0-2.39-3.71Z"/><path class="m" d="M357.49,225.23c11.09-6.08,26.3-7.51,37.58-1.37,6.8,3.7,14.63-2.53,12.8-10.17-2.35-9.83-19.09-10.76-27-11.07-13.62-.54-26.09,4.36-38,10.57-2.82,1.48-.39,5.16,2.39,3.71,10-5.26,20.75-9.67,32.25-9.77,5.28,0,29.67,1.33,25.24,11.1-2.07,4.55-6.34.43-9.57-.56a52.07,52.07,0,0,0-13.56-2.24,49.19,49.19,0,0,0-24.6,6.09c-2.79,1.53-.38,5.22,2.39,3.71Z"/><path class="m" d="M288,264.85c18.44-4.4,31.86-16.48,47.2-26.78a2.21,2.21,0,1,0-2.39-3.71c-15,10.07-28,21.89-46,26.2a2.23,2.23,0,1,0,1.18,4.29Z"/><path class="g" d="M339,103.91A32,32,0,0,1,363.67,115c1.17,1.43,5.32-.24,4-1.86-6.61-8.08-17.86-12.55-28.2-12.23-2.4.07-3.41,3.08-.44,3Z"/><path class="g" d="M179.07,142.1c11.36,10.18,26.65,12.88,39.41,20.69a2.22,2.22,0,1,0,2.3-3.79c-12.37-7.57-27.36-10.13-38.35-20-2.18-2-5.77.91-3.35,3.07Z"/><path class="g" d="M228.55,153.84c-6,4.5-12.14,8.76-19.21,11.31-6.21,2.23-12.7,3.7-19,5.85-2,.7-.13,4,1.76,3.37,6.78-2.33,13.95-3.8,20.59-6.47s12.6-6.81,18.3-11.12c1.64-1.24-.83-4.19-2.49-2.94Z"/><path class="g" d="M306,215.43c2.83-1.92,8.13,3.49,10.12,5.19,3.64,3.1,7.12,6.38,10.59,9.66,5.4,5.08,10.16,10.6,17.54,12.62,5.66,1.56,11.91,1.72,17-1.45,3.15-1.95,9.11-7.16,6.1-11.27-1.11-1.52-5.27.13-4,1.88,2,2.75-3.53,6.88-5.58,7.86-3.72,1.79-8.63,1-12.43-.26-7.12-2.38-12.32-9.06-17.68-14.05-5.77-5.37-15.81-18-24.58-12-2.44,1.65,1.15,3,2.85,1.86Z"/><path class="g" d="M328.77,186.79c-.52,6.71,4.13,15.2,6.92,21,3.29,6.85,7.34,14.11,12.36,19.89,1.71,2,6,0,3.88-2.36-4.46-5.14-8-11.63-11.06-17.68a103.47,103.47,0,0,1-5.1-12c-.86-2.45-2.25-5.54-2-8.18s-4.75-3.31-5-.66Z"/><path class="g" d="M334.94,191.48c8.14-8.16,16.36-16.31,23.32-25.53A113.62,113.62,0,0,0,374,136.58a164.76,164.76,0,0,0,5.36-17.34c.8-3.23,1.5-6.48,2-9.76.3-1.79,1-4,.32-5.85a4,4,0,0,0-6.31-2c-4.63,3.66-7.18,9.39-13.56,10.63-2.63.51.5,4.28,2.54,3.88a17.14,17.14,0,0,0,7.6-3.89c1.63-1.34,6.2-7.7,7.76-7.49l-2.62-1.54c1,1.4-.51,6.18-.83,7.76-.47,2.37-1,4.74-1.61,7.08q-1.52,6-3.5,11.81a121.73,121.73,0,0,1-9.71,22.28c-8,13.85-19.35,25.19-30.57,36.43-1.52,1.53,2.45,4.52,4.07,2.9Z"/><path class="g" d="M188.48,260.94c-12.13,5.06-22.75,14.78-30,25.68a53,53,0,0,0-7.44,18.07,65.75,65.75,0,0,0-1.32,9.83c-.19,3.1.78,8.05-.51,10.78-1.82,3.83-6,5.39-5.38,10.28a8.94,8.94,0,0,0,7.4,7.36c4.3.57,5.73-2.91,8-5.71,4.61-5.64,13.09-3.52,19.27-5.63,1.85-.63,4-1.68,4.8-3.63,1-2.5-1.2-4.66.06-7.06.89-1.69,2.8-3,4.2-4.21,7.17-6.29,15.12-12.13,23.87-16,5-2.2,10.47-3.92,15.95-3.59,5.81.35,11.43,1.54,17.29,1.38a42.6,42.6,0,0,0,28.54-11.29,71.76,71.76,0,0,0,19.9-33.49c1.25-4.64,2.15-9.37,4.23-13.74,3.87-8.13,9.11-15.68,14.48-22.87,1.34-1.8-2.72-4.72-4.07-2.9-6.8,9.11-14,19-17.19,30.1-2.66,9.35-5,18-10.33,26.37-6.39,9.95-14.79,19.09-26.51,22.35a47.7,47.7,0,0,1-14.49,1.49c-5.57-.2-11.12-1.7-16.69-1.32-15.63,1.07-30.26,12.3-41.28,22.65-1.2,1.12-2.38,2.16-2.83,3.83-.64,2.36,1.33,5.4-.94,7.41s-7.16,1.61-9.94,1.94c-4.54.55-9.41,1.61-12.38,5.35-.94,1.18-1.73,3.76-3.33,4.26-4.79,1.48-3.62-3.5-2.91-5a17.18,17.18,0,0,1,2.63-3.25c4-4.75,2.24-9.65,2.75-15.63a55.82,55.82,0,0,1,5.82-21.09,66,66,0,0,1,31.76-29.19c2.12-.89-1.44-4.34-3.41-3.52Z"/><path class="g" d="M189.31,205.08a44.63,44.63,0,0,1,6.48-5c.53-.34.28-.65-.2-.76a3.12,3.12,0,0,0-2,.55,47.47,47.47,0,0,0-6.87,5.33c-.5.47.44.6.72.6a3,3,0,0,0,1.93-.72Z"/><path class="g" d="M187.46,212.17a55,55,0,0,1,13.13-7.77c1.85-.78.18-1.91-1.18-1.34a60,60,0,0,0-14.29,8.52c-1.32,1.05,1.55,1.23,2.35.59Z"/><path class="g" d="M185.4,220.17a109,109,0,0,1,19.5-10.92c1.81-.79.22-2.51-1.32-1.84a112.82,112.82,0,0,0-20.13,11.32c-1.6,1.13.72,2.31,2,1.44Z"/><path class="g" d="M182.6,229.06a64.58,64.58,0,0,1,14.82-9.22c1.84-.82.16-1.82-1.15-1.23a69.78,69.78,0,0,0-16,9.95c-1.28,1.06,1.59,1.12,2.33.5Z"/><path class="g" d="M181.51,236.89A49.44,49.44,0,0,1,194.06,228c1.78-.89.17-2.14-1.21-1.45a54,54,0,0,0-13.71,9.69c-1.25,1.22,1.57,1.45,2.37.66Z"/><path class="g" d="M181,243.53a28.75,28.75,0,0,1,8.64-5.38c1.9-.76.12-1.25-1-.79a33.93,33.93,0,0,0-10.24,6.32c-.51.46.45.57.71.57a3.09,3.09,0,0,0,1.93-.72Z"/><path class="g" d="M199.94,307.62a114.45,114.45,0,0,1,13.25.24c.65,0,3.31-1.11,1.87-1.22a119.87,119.87,0,0,0-13.87-.24c-.81,0-3.15,1.28-1.24,1.21Z"/><path class="g" d="M194.51,311.52l16.12,0c.86,0,3.14-1.29,1.22-1.28l-16.12,0c-.86,0-3.14,1.29-1.22,1.28Z"/><path class="g" d="M189.26,315.06l15.87.31c.66,0,3.3-1.22,1.86-1.25l-15.87-.31c-.66,0-3.3,1.22-1.86,1.25Z"/><path class="g" d="M187.29,318.4l11.81.28c1,0,3.1-1.47,1.16-1.52l-11.81-.28c-1,0-3.1,1.47-1.16,1.52Z"/><path class="g" d="M185.14,322.54l6.81.39a1.84,1.84,0,0,0,1.88-.91,1,1,0,0,0-.91-1.31l-6.81-.39a1.84,1.84,0,0,0-1.88.91,1,1,0,0,0,.91,1.31Z"/><path class="g" d="M352.58,293c-19.41-1-37.08,7.36-52.23,18.85-2.48,1.88,1.63,4.14,3.6,2.64,14.19-10.77,30.53-18.55,48.72-17.64,3.14.16,3-3.7-.09-3.85Z"/><path class="g" d="M303,327.39a73.45,73.45,0,0,0,21.74,6.44c3.15.43,3.27-4,.16-4.4a65.36,65.36,0,0,1-19.24-5.74C303,322.43,300,326,303,327.39Z"/><path class="g" d="M345.48,303.38a72.43,72.43,0,0,0-36.88,10.93c-2.77,1.72.41,4.78,2.76,3.32a67.18,67.18,0,0,1,34.4-10.21c3.15-.07,2.84-4.12-.28-4.05Z"/><path class="g" d="M309.05,321.1c8.72,1,18.26,2.64,26.94.78,1-.2,5-2.88,2.79-2.4-8.37,1.79-17.69.09-26.11-.84-1.11-.12-5,2.31-3.62,2.46Z"/><path class="g" d="M329.42,316a43.35,43.35,0,0,1,10.49-1.91c1.21-.07,1.12-1.51.71-2.28a3.34,3.34,0,0,0-3-1.72A43.35,43.35,0,0,0,327.11,312c-2.58.81.37,4.6,2.3,4Z"/><path class="n" d="M322.23,112.54c-8.18,5.36-8.82,13.63-5.22,16.48,2.92,2.32,7.61,1.61,10.79.22a17,17,0,0,0,8-7.55c1.65-3.07,2.85-7.84-.38-10.35C331.51,108.32,325.9,110.14,322.23,112.54Z"/><path class="n" d="M340.59,126.16a18.47,18.47,0,0,0-6,10.28c-.81,4.82,2.46,8.66,7.46,8.26a15.31,15.31,0,0,0,4.11-1,17,17,0,0,0,9.74-10.51c1.18-3.34,1.49-8.2-2.11-10.18C349.42,120.58,344,123.18,340.59,126.16Z"/><path class="g" d="M324.28,117.25c-3.62,2.37-3.91,6-2.31,7.3,4.08,3.23,12.62-4.89,8-7.94C328.26,115.5,326,116.14,324.28,117.25Z"/><path class="g" d="M342.8,130.13c-3.39,3-3.17,6.77-1.35,7.84,4.61,2.73,12.49-6.73,7.11-9.31C346.65,127.76,344.39,128.75,342.8,130.13Z"/><path class="o" d="M320.51,136.48s-.38.54.09,3.31c.1.37.35.73.74.74a8,8,0,0,0,2.9-.74c.4-.25.51-.48.16-1a14,14,0,0,0-2.94-2.57A.63.63,0,0,0,320.51,136.48Z"/><path class="g" d="M363.69,233.63c2.32-1.72,3.78-4.73,1.93-7.38-2-2.83-5.8-2.06-8.3-.38-1.62,1.1.85,1.61,1.82,1,1.75-1.18,3.45-.69,4.18,1.37a4,4,0,0,1-1.46,4.48c-1.57,1.17.87,1.66,1.82,1Z"/><path class="g" d="M359.06,231a7.09,7.09,0,0,0-.08-5.26,4.16,4.16,0,0,0-4.71-2c-3.82.7-5.61,4.49-4.9,8.09.27,1.4,3.18.65,2.9-.78-.33-1.68,0-4.48,1.91-5.1,2.67-.85,2.58,3.1,2.1,4.65s2.38,1.67,2.78.38Z"/><path class="g" d="M151,133.26c-2.12,0-.32-3.8.07-4.59,1.18-2.41,3.32-3.52,5.76-4.53a32.15,32.15,0,0,1,8.92-2,29.17,29.17,0,0,1,8.69.16c6.25,1.21,12.19,4.17,18.35,5.81,15.77,4.18,32.22,5.68,48.45,6.73,5.24.34,10.61,1.06,15.81.17a96.7,96.7,0,0,0,16.15-4.79,271.66,271.66,0,0,0,32.34-13.54,223.22,223.22,0,0,0,28.4-17.48c3.44-2.48,6.82-5,10.17-7.64a16.34,16.34,0,0,1,2.34-1.82c.41.17-.19,5.3-.24,5.94a60.78,60.78,0,0,1-.8,6.18c-.47,2.52,4.48,3.21,5,.67.73-3.91,2.32-10.4.72-14.12-1.42-3.3-5.19-3.48-7.89-1.77-8.31,5.25-15.73,12-24.08,17.3a210.37,210.37,0,0,1-36.3,18.37c-6,2.34-12.16,4.58-18.31,6.57-7.77,2.51-14.62,2.64-22.72,2.12-17.34-1.12-35.21-2.57-51.89-7.79C183.25,121.11,177,118.06,170,118c-6.57-.09-13.84,1.08-19.46,4.57-6.19,3.85-8.47,14.69,1.27,14.63,3.28,0,2-3.91-.82-3.89Z"/><path class="g" d="M153.36,128.27c-2.54,2.92-3.58,7-.6,10a5,5,0,0,0,7.59-.28c.88-1.08-1.3-4.22-2.34-2.94-.82,1-3,2.11-4.19,1s1.13-4,1.87-4.85c.91-1-1.25-4.2-2.34-2.94Z"/><path class="g" d="M157.89,131.6c-2.08,4,1.76,7.78,5.77,7.43a6.17,6.17,0,0,0,4.85-2.84,6.77,6.77,0,0,0-.05-6c-.53-1.25-4.31-.74-3.68.77a6.24,6.24,0,0,1,.51,3.54c-.17.88-.83,2.34-1.89,2.47-.85.1-1.56-1-1.88-1.62a3.65,3.65,0,0,1,.11-3.34c.69-1.34-3.09-1.61-3.74-.36Z"/><path class="k" d="M365.25,232.07a3.63,3.63,0,0,1-2.84,1.91c-2.11.19-5.56,6.31-5.56,6.31s4-1,8-5.47A3.1,3.1,0,0,0,365.25,232.07Z"/><ellipse class="o" cx="354.41" cy="229.39" rx="1.57" ry="1.21" transform="translate(79.12 549.45) rotate(-82.21)"/><ellipse class="o" cx="361.82" cy="230.25" rx="1.7" ry="1.06" transform="translate(37.57 510.95) rotate(-73.35)"/><path class="o" d="M365,234.58c-.34.36-.73.43-.87.32s-.06-.34.24-.75.51-.59.79-.51S365.24,234.34,365,234.58Z"/><path class="o" d="M360.1,238.94c-1.64,1.36-3.43,1.63-4.88.74a2.8,2.8,0,0,1-.63-4.11c1-1.33,2.81-1.45,4.85-.54A2.29,2.29,0,0,1,360.1,238.94Z"/><path class="g" d="M306.75,277H411c6.43,0,6.45-10,0-10H306.75c-6.43,0-6.45,10,0,10Z"/><path class="g" d="M304.49,352.23H371c6.43,0,6.45-10,0-10H304.49c-6.43,0-6.45,10,0,10Z"/><path class="g" d="M367.61,158.67h37.64c6.43,0,6.45-10,0-10H367.61c-6.43,0-6.45,10,0,10Z"/></svg>