<svg xmlns="http://www.w3.org/2000/svg" viewBox="0 0 120 120"><defs><style>.cls-1{fill:#fffffb;}</style></defs><title>icon_calender</title><g id="calender"><rect class="cls-1" x="55" y="7.5" width="10" height="25" rx="5" ry="5"/><rect class="cls-1" x="30" y="7.5" width="10" height="25" rx="5" ry="5"/><rect class="cls-1" x="80" y="7.5" width="10" height="25" rx="5" ry="5"/><path class="cls-1" d="M92.66,15.2a1,1,0,0,0-1.16,1v8.13a1,1,0,0,0,.79,1A10,10,0,0,1,100,35V90a10,10,0,0,1-10,10H30A10,10,0,0,1,20,90V35a10,10,0,0,1,7.71-9.72,1,1,0,0,0,.79-1V16.18a1,1,0,0,0-1.16-1A20,20,0,0,0,10,35V90a20,20,0,0,0,20,20H90a20,20,0,0,0,20-20V35A20,20,0,0,0,92.66,15.2Z"/><rect class="cls-1" x="41.5" y="15" width="12" height="10" rx="1" ry="1"/><rect class="cls-1" x="66.5" y="15" width="12" height="10" rx="1" ry="1"/><path class="cls-1" d="M78.5,86.19a5,5,0,0,1-5-5V58.44L63.56,68.51A5,5,0,0,1,60,70h0a5,5,0,0,1-3.56-1.49L46.5,58.44V81.19a5,5,0,0,1-10,0V46.25a5,5,0,0,1,8.56-3.51L60,57.88,74.94,42.74a5,5,0,0,1,8.56,3.51V81.19A5,5,0,0,1,78.5,86.19Z"/></g></svg>