<svg xmlns="http://www.w3.org/2000/svg" viewBox="0 0 105 105"><defs><style>.cls-1{fill:#4f525b;}.cls-2{fill:#f3c9c8;}</style></defs><title>batt_icon</title><g id="BATT"><circle class="cls-1" cx="52.5" cy="52.5" r="50"/><g id="_Group_" data-name="&lt;Group&gt;"><g id="_Group_2" data-name="&lt;Group&gt;"><g id="_Group_3" data-name="&lt;Group&gt;"><path id="_Path_" data-name="&lt;Path&gt;" class="cls-2" d="M29.55,56.1a4.1,4.1,0,0,1-4-3.81,4.15,4.15,0,0,1,3.68-4.54l45.9-4.18a4.19,4.19,0,0,1,.72,8.34l-45.9,4.18Z"/></g></g><g id="_Group_4" data-name="&lt;Group&gt;"><g id="_Group_5" data-name="&lt;Group&gt;"><path id="_Path_2" data-name="&lt;Path&gt;" class="cls-2" d="M69.38,77.5a4,4,0,0,1-3.27-1.7L36.4,34.18a4.27,4.27,0,0,1,.85-5.85,4,4,0,0,1,5.67.88L72.63,70.83a4.27,4.27,0,0,1-.85,5.85A4,4,0,0,1,69.38,77.5Z"/></g></g><g id="_Group_6" data-name="&lt;Group&gt;"><g id="_Group_7" data-name="&lt;Group&gt;"><path id="_Path_3" data-name="&lt;Path&gt;" class="cls-2" d="M39.65,77.5a3.89,3.89,0,0,1-2-.55,4.25,4.25,0,0,1-1.51-5.7l23-41.62a4,4,0,0,1,5.52-1.56,4.25,4.25,0,0,1,1.51,5.7l-23,41.62A4,4,0,0,1,39.65,77.5Z"/></g></g></g></g></svg>