<svg xmlns="http://www.w3.org/2000/svg" viewBox="0 0 120 120"><defs><style>.cls-1{fill:#ffd244;}</style></defs><title>icon_Qmark</title><g id="Q_mark" data-name="Q mark"><circle class="cls-1" cx="60" cy="93.83" r="7.5"/><path class="cls-1" d="M60,11A49,49,0,1,1,11,60,49.06,49.06,0,0,1,60,11M60,1a59,59,0,1,0,59,59A59,59,0,0,0,60,1Z"/><path class="cls-1" d="M60,79.46a5,5,0,0,1-5-5V72.4a12.11,12.11,0,0,1,8.95-11.64,15,15,0,0,0-3.13-29.46A15,15,0,0,0,45,46.29a5,5,0,1,1-10,0,25.11,25.11,0,0,1,7.79-18.14,24.81,24.81,0,0,1,18.54-6.83,25,25,0,0,1,5.23,49.09,2.07,2.07,0,0,0-1.57,2v2.06A5,5,0,0,1,60,79.46Z"/></g></svg>