<svg id="home_line" data-name="home line" xmlns="http://www.w3.org/2000/svg" viewBox="0 0 120 120"><defs><style>.cls-1{fill:#fffffb;}</style></defs><title>icon_home</title><path class="cls-1" d="M106.88,63.12a5.19,5.19,0,0,1-3.68-1.53L60.74,23.31a1,1,0,0,0-1.47,0L17,61.44a5.36,5.36,0,0,1-7.15.5,5.21,5.21,0,0,1-.38-7.71L56.32,11.53a5.21,5.21,0,0,1,7.36,0l46.88,42.71a5.21,5.21,0,0,1-3.68,8.89Z"/><path class="cls-1" d="M92.29,102.71H27.71a1,1,0,0,1-1-1V44.45l-7.29,7.29v53.05A5.21,5.21,0,0,0,24.58,110H95.42a5.21,5.21,0,0,0,5.21-5.21V51.74l-7.29-7.29v57.22A1,1,0,0,1,92.29,102.71Z"/><rect class="cls-1" x="38.12" y="68.33" width="12.5" height="12.5" rx="0.83" ry="0.83"/><rect class="cls-1" x="63.13" y="68.33" width="20.83" height="36.98" rx="1" ry="1"/></svg>