<svg id="insta_icon_hover" xmlns="http://www.w3.org/2000/svg" viewBox="0 0 30 30"><defs><style>.cls-1{fill:#e95d6f;}</style></defs><title>insta_icon-hover</title><ellipse class="cls-1" cx="22.54" cy="7.48" rx="1.65" ry="1.69" transform="translate(-0.04 0.13) rotate(-0.33)"/><path class="cls-1" d="M28.9,8.43a7.27,7.27,0,0,0-7.13-7.31C19.53,1,10.51,1,8.27,1.12A7.27,7.27,0,0,0,1.14,8.43q-.2,6.56,0,13.13a7.27,7.27,0,0,0,7.13,7.31c2.24.08,11.26.08,13.5,0a7.27,7.27,0,0,0,7.13-7.31Q29.1,15,28.9,8.43ZM26.44,21.1a5,5,0,0,1-5.28,5.32c-2,.08-10.24.08-12.28,0A5,5,0,0,1,3.6,21.1Q3.46,15,3.6,8.91c.07-3.26,2.05-5.26,5.26-5.33,2.05,0,10.26,0,12.31,0,3.21.07,5.19,2.07,5.26,5.33Q26.58,15,26.44,21.1Z"/><path class="cls-1" d="M15,22.16A7.16,7.16,0,1,1,22.18,15,7.17,7.17,0,0,1,15,22.16Zm0-11.73A4.56,4.56,0,1,0,19.58,15,4.57,4.57,0,0,0,15,10.43Z"/></svg>