<svg xmlns="http://www.w3.org/2000/svg" viewBox="0 0 131.87 120"><defs><style>.cls-1{fill:#fffffb;}</style></defs><title>logo-letter-02</title><g id="lettering"><path class="cls-1" d="M10,45.06c0-8.18,2.37-13.57,5.81-16.8a17.17,17.17,0,0,1,12-4.2,17.08,17.08,0,0,1,11.84,4.2c3.45,3.23,5.71,8.61,5.71,16.8v1.51a3.84,3.84,0,0,1-3.77,3.88H38.43a3.86,3.86,0,0,1-3.88-3.88V45.06c0-7.21-2.37-10.34-6.78-10.34s-6.89,3.12-6.89,10.34V75.54c0,7.22,2.26,10.45,6.89,10.45a7,7,0,0,0,5-1.94c1.29-1.72,1.83-4.63,1.83-8.51V74a3.86,3.86,0,0,1,3.88-3.88h3.12A3.84,3.84,0,0,1,45.32,74v1.51c0,8.51-2.26,13.46-5.6,16.8-3.55,3.45-8.08,4.31-12,4.31-4.09,0-8.51-.86-12.06-4.31C12.37,89,10,84,10,75.54Z"/><path class="cls-1" d="M75,76.83h-11l-3.77,16.8a4.25,4.25,0,0,1-3.77,3H53.39A3.73,3.73,0,0,1,49.62,92l5.17-22.83,9.8-42.1a4.25,4.25,0,0,1,3.77-3h2.37a4.14,4.14,0,0,1,3.77,3L89.35,91.9a3.81,3.81,0,0,1-3.77,4.74H82.46a4.25,4.25,0,0,1-3.77-3ZM66.53,66.17h6c-1.18-5.17-1-8.08-3-17.23Z"/><path class="cls-1" d="M85.9,27.84A3.86,3.86,0,0,1,89.78,24H118a3.86,3.86,0,0,1,3.88,3.88v3A3.86,3.86,0,0,1,118,34.73h-8.83V92.66a3.86,3.86,0,0,1-3.88,3.88h-2.91a3.86,3.86,0,0,1-3.88-3.88V34.73H89.78a3.86,3.86,0,0,1-3.88-3.88Z"/></g></svg>