<svg xmlns="http://www.w3.org/2000/svg" viewBox="0 0 252 120"><defs><style>.cls-1{fill:#fffffb;}</style></defs><title>logo-letter-01</title><g id="lettering"><path class="cls-1" d="M13.88,96.68A3.87,3.87,0,0,1,10,92.8V27.88A3.87,3.87,0,0,1,13.88,24H24.56c12.62,0,18.23,6.9,18.23,20.81,0,10-4.64,15.53-4.64,15.53,2.8,3.45,4.64,9,4.64,15.53,0,13.91-5.61,20.81-18.23,20.81Zm6.9-62V54.95h3.77C29.84,54.95,32,52,32,44.81s-2.16-10.14-7.44-10.14Zm0,30.95V86h3.77C29.84,86,32,83.09,32,75.87s-2.16-10.25-7.44-10.25Z"/><path class="cls-1" d="M51,45c0-13.59,5.93-21,17.69-21s17.69,7.33,17.69,21V75.54c0,8.52-2.26,13.48-5.61,16.82-3.56,3.45-8.09,4.31-12.08,4.31s-8.41-.86-12-4.31C53.35,89,51,84.06,51,75.54ZM61.76,75.54C61.76,82.66,64,86,68.66,86s6.9-3.13,6.9-10.46V45c0-7.23-2.26-10.35-6.9-10.35S61.76,38,61.76,45Z"/><path class="cls-1" d="M91.09,27.77A3.87,3.87,0,0,1,95,23.89h28.25a3.87,3.87,0,0,1,3.88,3.88v3a3.87,3.87,0,0,1-3.88,3.88h-8.84v58a3.87,3.87,0,0,1-3.88,3.88h-2.91a3.87,3.87,0,0,1-3.88-3.88v-58H95a3.87,3.87,0,0,1-3.88-3.88Z"/><path class="cls-1" d="M132.17,27.77a3.87,3.87,0,0,1,3.88-3.88h28.25a3.87,3.87,0,0,1,3.88,3.88v3a3.87,3.87,0,0,1-3.88,3.88h-8.84v58a3.87,3.87,0,0,1-3.88,3.88h-2.91a3.87,3.87,0,0,1-3.88-3.88v-58h-8.74a3.87,3.87,0,0,1-3.88-3.88Z"/><path class="cls-1" d="M204.74,92.8a3.87,3.87,0,0,1-3.88,3.88h-23A3.87,3.87,0,0,1,174,92.8V27.88A3.87,3.87,0,0,1,177.89,24H181a3.84,3.84,0,0,1,3.77,3.88V86h16.07a3.87,3.87,0,0,1,3.88,3.88Z"/><path class="cls-1" d="M238,24a3.87,3.87,0,0,1,3.88,3.88v2.91A3.87,3.87,0,0,1,238,34.67h-16.5V54.95H235a3.87,3.87,0,0,1,3.88,3.88v2.91A3.87,3.87,0,0,1,235,65.62H221.46V86H238a3.87,3.87,0,0,1,3.88,3.88V92.8A3.87,3.87,0,0,1,238,96.68H214.66a3.87,3.87,0,0,1-3.88-3.88V27.88A3.87,3.87,0,0,1,214.66,24Z"/></g></svg>