<svg id="Layer_1" data-name="Layer 1" xmlns="http://www.w3.org/2000/svg" xmlns:xlink="http://www.w3.org/1999/xlink" viewBox="0 0 1330 1810"><defs><style>.cls-1{fill:none;}.cls-2{fill:#e63064;}.cls-3{fill:#f2a2b9;}.cls-4{fill:#4f525b;}.cls-5{fill:#2a2a2b;}.cls-6{fill:#fffbec;}.cls-7{fill:#4787c7;}.cls-8{fill:#33af83;}.cls-9{fill:#ee7a42;}.cls-10{fill:#ffda46;}.cls-11{fill:#86898e;}.cls-12{fill:#ffde5b;}.cls-13{isolation:isolate;}.cls-14{clip-path:url(#clip-path);}.cls-15,.cls-17,.cls-19{fill:#f8b126;}.cls-15{opacity:0.49;}.cls-16{fill:#ffd244;}.cls-17,.cls-24,.cls-25{opacity:0.5;}.cls-18{fill:#e8417c;}.cls-20{fill:#fff;}.cls-21{fill:#fffffb;}.cls-22{fill:#f5d1d2;}.cls-23{fill:#f4aaaa;}.cls-24,.cls-26{fill:#152030;}</style><clipPath id="clip-path"><polygon class="cls-1" points="231.61 1465.46 218.11 1332.51 342.99 1351.91 352.16 1491.84 231.61 1465.46"/></clipPath></defs><title>media_BATT</title><path class="cls-2" d="M287.9,570.68c-15.62-27.35-32.8-44-52.4-68.61-9.42-11.82-18-24.46-27.67-36S187.31,444.39,174.18,438a81.06,81.06,0,0,0-31.86-7.89c-6.87-.32-14-.57-20.8,1.59-8.27,2.63-14.81,9.78-12.92,18.81,3.9,18.67,22.89,29.37,36.17,40.91a279.23,279.23,0,0,1,31,32.25,577.4,577.4,0,0,1,36.58,49.29q9.3,13.92,17.94,28.36Z"/><path class="cls-3" d="M291.08,561.19c-16.14-25.35-33.58-41-53.62-63.87-9.63-11-18.4-22.76-28.31-33.53s-20.87-20.26-34.08-26.42a89.09,89.09,0,0,0-31.85-7.91c-6.84-.45-14-.83-20.64,1-6.2,1.69-14.07,7.12-12.91,14.56.62,4,3.28,7.26,5.58,10.41,8.69,11.88,20.4,21,31.77,30.14a285.38,285.38,0,0,1,31.55,30.16A570.78,570.78,0,0,1,216,561.57q9.55,12.93,18.47,26.31Z"/><path class="cls-4" d="M605.07,541.77c-45-14-95.46-48.65-148.89-67.7-111-39.59-216.16,13.74-257.9,31.41-35,14.82-58.39,42.28-49.52,74.75-2.33,13,1,26.37,14.22,31.65a43.17,43.17,0,0,0,15.52,2.77c1,9.21,5.83,17.33,12.38,23.81,20.6,20.36,46.7,11.61,60.9-2.8s-1-23.57-1-33.35c29.9-39.61,96.39-26.7,174.42,61.13,52.21,58.77,154.92,139.4,173.28,238.36l43.61-182.73Z"/><path class="cls-5" d="M598.48,914.71h-.4A12.91,12.91,0,0,1,585.76,904c-13.59-77.9-76.42-139-126.91-188-15.89-15.44-30.9-30-43.3-44-39.6-44.57-77.44-69.17-112.46-73.13a12.91,12.91,0,0,1,2.9-25.66c41.55,4.69,84.9,32.16,128.86,81.64,11.77,13.24,26.45,27.51,42,42.62,42.84,41.64,94.13,91.47,120.29,154.34l31.72-132.94L594,551.68c-20.81-7.35-42.07-18.43-64.45-30.09-25-13-50.89-26.51-77.37-35.27C347.68,451.8,260,483.71,204.88,516.57c-45.58,27.15-47.66,45.7-43.68,60.26a12.9,12.9,0,0,1,.25,5.68c-.93,5.18-1.34,14.32,6.31,17.38a30.32,30.32,0,0,0,10.86,1.85,12.91,12.91,0,0,1,12.7,11.58c.71,6.85,5.07,12.45,8.61,16,6.12,6.05,18.35,8.18,31.9,5.55,14.4-2.79,23.21-9.45,24.87-13.28a12.91,12.91,0,1,1,23.7,10.25c-6.93,16-27.09,25.18-43.65,28.38-22.13,4.29-42.68-.4-55-12.54a56,56,0,0,1-13.72-21,49.81,49.81,0,0,1-9.9-2.77c-16.68-6.68-25.17-23-22.58-43-9.48-41.29,24.84-67.85,56.07-86.46,37.54-22.36,77.16-37.24,117.77-44.22,50.46-8.67,101.19-4.75,150.79,11.64,28.46,9.41,55.27,23.38,81.2,36.88,23.94,12.47,46.54,24.25,67.47,30.75a12.91,12.91,0,0,1,8.81,9.69l37,177.29a12.9,12.9,0,0,1-.08,5.63L611,904.79A12.91,12.91,0,0,1,598.48,914.71Z"/><path class="cls-5" d="M195.56,626c-7.14-16.44-7.11-31.65,5.83-45.1,3.76-3.9-3.88-3.06-5.84-2.74-5.08.84-12.58,3-16.32,6.86-14.23,14.78-16.18,30.73-8.09,49.37,2.09,4.81,26.13-4.45,24.42-8.4Z"/><path class="cls-5" d="M160.8,593.87c-1.23-14,4.74-32.33,18.23-38.9,2.57-1.25,3.84-3.11,1.55-5s-8.38.58-10.54,1.63c-16.87,8.21-25.8,28-24.2,46.25.35,3.95,15.4,1,15-4Z"/><path class="cls-2" d="M296.85,580.69c5.9,7.26,30.07,46.69,73.12,212.76,0,0,59.54,21.39,96.08,84.74,23.41,40.59,48.83,112.49-3.7,142.94-86.63,50.22-180-69.84-127.58-211.57,0,0-39.23-107.4-84-190,0,0-10.24-22.48,7.17-35.72,5.3-4,32.75-4.29,35.75-4.48A3.73,3.73,0,0,1,296.85,580.69Z"/><path class="cls-3" d="M301,578.62c11.33,21.45,42,89.67,74.82,216.18,0,0,57.24,20.57,92.38,81.47,22.51,39,46.47,107.35-3.56,137.44-73.9,44.45-154.35-75.19-123.94-206.59,0,0-49.92-124-93-203.5,0,0-1.44-18.9,20.29-27.21,6.58-2.52,14.55-4.3,19.09-3.89C292.81,573,298.38,573.61,301,578.62Z"/><path class="cls-2" d="M470.38,896.64c23.5,51.71,12.06,94.86-16,107.61s-73.6-10.61-93.73-63.72c-20.58-54.3-15.57-111.15,8.62-123.53S446.88,844.94,470.38,896.64Z"/><path class="cls-6" d="M466.94,1007.67C496.43,992.09,493,972.24,488,960.33s-12.61-12.59-17.64-14.92c-48.94-22.66-49.26-95.53-101.12-79.64-10.28,3.15-16.93,13.47-20.21,28a201.14,201.14,0,0,0,11.6,46.79C380.78,993.65,419.48,1032.75,466.94,1007.67Z"/><path class="cls-7" d="M417.25,969.23c-28.54-4.6-17.16-23.71.11-15.95,5.38,2.42,18.42.38,11-6.62-16.83-15.78-40.28-11.24-50.68,5.92C367.08,970,373.91,988.06,401.91,987c21.32-.8,24.29-15.52,15.34-17.78Z"/><path class="cls-8" d="M464.81,988.29c16.8-6.19,23.93,6.93,13.82,20.06-5.27,6.83,5.38,16.35,8.83,14.6,18.69-9.49,20.08-31.54,13.48-44.83-9.48-19.09-30.21-21.92-50.07-15.42C432.21,968.82,453.42,992.49,464.81,988.29Z"/><path class="cls-9" d="M388.62,913.86c-7-7.17-6.08-15.53-2.29-20.81a54,54,0,0,1,27-19.73c23.66-7.86,22.08,33.94,11.86,36.87h0a20.11,20.11,0,0,0-10.8,8.74C412.51,922,395.65,921,388.62,913.86Z"/><path class="cls-10" d="M422.87,926.91c2.93-9.61,14.08-8.95,20-6.24a54,54,0,0,1,24.53,22.7C479.64,965.08,418.83,940.15,422.87,926.91Z"/><path class="cls-5" d="M311.34,600.1c-4.5-8.78-10.27-21.45-33.54-15.75-17,4.16-30.38,26.25-23.12,42.43,1.33,3-11.18,6-5.47,1.59,2.19-1.68,2-4,.62-6.87-3.68-7.5-7.65-19.13.72-31.57,12-17.77,33.85-26.11,87.93-8.46C342.78,582.89,311.34,600.1,311.34,600.1Z"/><path class="cls-4" d="M322.59,1840s6.84-135,87.94-308.89,195.09-475.79,173-688.88,33.31-462.87,114.88-607.78c34.37-61.07,56.68-98.57,71-121.53A24.4,24.4,0,0,1,812,115.17l31.91,83.49s35.29-18.65,74.88-23.24,78.32,4.73,78.32,4.73L1062.69,67.3c11.39-16.36,36.5-12.91,43.07,5.91,17.64,50.57,47.05,127.5,69.06,147.82,33.57,31,110.16,60.81,176.43,229.65V1840Z"/><path class="cls-11" d="M1020.77,1092.4c-146.31-297.7-308.11-160.47-346-96.78S521.24,1380,402.64,1548.44C329,1713.91,322.59,1840,322.59,1840h738.88C1086.89,1698.75,1137.15,1329.2,1020.77,1092.4Z"/><path class="cls-5" d="M1351.26,1852.93H322.59a12.91,12.91,0,0,1-12.89-13.56c.28-5.61,7.9-139.51,89.13-313.7,29.1-62.4,84-188,124.49-327.88,41.08-141.85,57-261,47.32-354.21C560,740.91,566.45,625.65,589.37,510.27,610.84,402.15,645.55,302,687.11,228.13c29.5-52.41,53.49-93.47,71.28-122a37.31,37.31,0,0,1,65.2,3.41c.17.34.32.69.45,1l27,70.53c14.48-6.23,39.3-15.37,66.28-18.49,29.58-3.43,58.41.41,73.29,3.08l60.94-104.86c.18-.3.37-.6.57-.89a37.31,37.31,0,0,1,65.85,9c26.82,76.87,50.74,128.84,65.63,142.59,5.67,5.23,13,10.68,21.5,17C1243.52,257,1307.84,304.75,1363.27,446a12.91,12.91,0,0,1,.89,4.72l-25.82,2.45C1285.86,320.58,1228,277.7,1189.7,249.27c-9.09-6.75-16.95-12.57-23.63-18.74-18.69-17.26-43.08-68.75-72.5-153.06a11.49,11.49,0,0,0-20-3.14l-60.88,104.74a25.18,25.18,0,0,1-26.18,12.11c-13.31-2.42-39.62-6-66.22-2.92-36.76,4.26-70,21.65-70.33,21.83a12.91,12.91,0,0,1-18.09-6.8L800.17,120.4a11.49,11.49,0,0,0-19.86-.64c-17.6,28.24-41.38,69-70.7,121-40.25,71.51-74,169-94.92,274.5-22.42,112.89-28.78,225.48-18.37,325.61,10,96.52-6.19,219-48.2,364.06-41,141.57-96.47,268.53-125.89,331.61C381,1625,359.6,1703,348.92,1752.78a727.24,727.24,0,0,0-12.25,74.33H1338.35Z"/><path class="cls-12" d="M1039.87,1323.46c-43.72,288.82-270.68,395.38-524.93,356.9S75.42,1472.93,119.13,1184.1"/><g class="cls-13"><g class="cls-14"><path class="cls-6" d="M339.36,1405.26l-.28,0-.28,0-.28,0-.28,0q-3.28-.17-6.58-.44t-6.58-.66q-3.29-.38-6.58-.87t-6.58-1.09l-2.3-.43-2.3-.46-2.3-.48-2.3-.51-1.81,2.28-1.8,2.25-1.8,2.22-1.8,2.19,1.29,2.8,1.29,2.79,1.28,2.79,1.28,2.78,3.21.79,3.21.74,3.22.69,3.22.64q3,.57,5.94,1t5.94.87q3,.39,5.94.7t5.94.52a8.07,8.07,0,0,0,3.7-.59,9.19,9.19,0,0,0,3.1-2.13,10.94,10.94,0,0,0,2.18-3.32,12.09,12.09,0,0,0,.94-4.14,11.58,11.58,0,0,0-.47-3.89,10.72,10.72,0,0,0-1.63-3.28,9.73,9.73,0,0,0-2.54-2.41,8.76,8.76,0,0,0-3.2-1.27m-111-34.63a5.76,5.76,0,0,0-2.32,0,4.12,4.12,0,0,0-1.83,1,4.63,4.63,0,0,0-1.21,1.82,7.64,7.64,0,0,0-.45,2.63,13.51,13.51,0,0,0,.59,3.92,19.92,19.92,0,0,0,1.69,4,21.66,21.66,0,0,0,2.56,3.68,17.45,17.45,0,0,0,3.2,2.92l.2.14.2.13.2.13.2.12q4.29,2.56,8.61,4.93t8.67,4.58q4.36,2.21,8.74,4.23t8.79,3.87l1.72-1.84,1.73-1.87,1.73-1.89,1.74-1.92-1.31-2.94-1.31-2.94-1.31-3-1.31-3q-4.58-1.8-9.14-3.81t-9.09-4.19q-4.52-2.19-9-4.58t-9-5q-.44-.25-.87-.46t-.85-.36q-.42-.16-.82-.27a8.05,8.05,0,0,0-.79-.18"/><path class="cls-6" d="M295.51,1409.14q-1.55,1.88-3.1,3.73t-3.08,3.65q-1.54,1.8-3.07,3.57t-3.06,3.49q3.1,6.87,6.19,13.65t6.16,13.48q3.07,6.7,6.13,13.31t6.1,13.15a13,13,0,0,0,1.3,2.21,12.62,12.62,0,0,0,1.65,1.84,11.72,11.72,0,0,0,1.9,1.42,10.35,10.35,0,0,0,2.07,1l.23.07.23.07.23.06.23.05a8.52,8.52,0,0,0,1.21.18,7.93,7.93,0,0,0,1.21,0,7.51,7.51,0,0,0,1.19-.19,7.34,7.34,0,0,0,1.16-.39,7.49,7.49,0,0,0,2.83-2.12,8.7,8.7,0,0,0,1.64-3.18,10.46,10.46,0,0,0,.34-3.79,11.68,11.68,0,0,0-1.09-4q-2.9-6.11-5.82-12.29t-5.85-12.44q-2.93-6.26-5.88-12.6t-5.91-12.75l-1.28-2.78-1.28-2.79-1.29-2.79-1.29-2.8m-38-70.51q-.37-.06-.73-.08t-.72,0q-.36,0-.71.05a6.67,6.67,0,0,0-.69.12,5.58,5.58,0,0,0-2.8,1.57,6.59,6.59,0,0,0-1.58,2.87,10.23,10.23,0,0,0-.25,3.79,15.17,15.17,0,0,0,1.18,4.34l4.19,9.66,4.18,9.58,4.17,9.5,4.16,9.42,1.31,3,1.31,3,1.31,2.94,1.31,2.94q1.52-1.69,3-3.41t3.06-3.49q1.54-1.77,3.08-3.57t3.09-3.65l-4.45-9.84-4.47-9.93-4.48-10q-2.25-5-4.5-10.11a16.22,16.22,0,0,0-1.89-3.21,15.81,15.81,0,0,0-2.45-2.58,13.63,13.63,0,0,0-2.78-1.82,10.31,10.31,0,0,0-2.91-.94"/><path class="cls-6" d="M313.45,1358.76a8.85,8.85,0,0,0-2.32-.07,8.43,8.43,0,0,0-2.22.54,8.3,8.3,0,0,0-2,1.14,8.72,8.72,0,0,0-1.69,1.73q-2.49,3.33-5,6.57t-5,6.35q-2.47,3.12-4.93,6.14t-4.9,5.93q-1.55,1.85-3.09,3.65t-3.08,3.57q-1.53,1.76-3.06,3.49t-3,3.41l-1.74,1.92L269.7,1405,268,1406.9l-1.72,1.84q-3.13,3.32-6.23,6.5t-6.17,6.18q-3.06,3-6.1,5.86t-6,5.56a5,5,0,0,0-1.47,2.58,9.35,9.35,0,0,0-.11,3.54,15.66,15.66,0,0,0,1.18,4,20,20,0,0,0,2.41,4.08q.49.65,1,1.22t1.05,1.08q.54.51,1.09.94t1.12.8q.44.29.88.52t.88.43q.44.19.88.33a8.5,8.5,0,0,0,.86.23,7,7,0,0,0,1.36.15,5.49,5.49,0,0,0,1.27-.13,4.65,4.65,0,0,0,1.16-.43,4.49,4.49,0,0,0,1-.73q3.3-3.13,6.62-6.43t6.69-6.8q3.37-3.5,6.77-7.17t6.83-7.56q1.53-1.72,3.06-3.49t3.07-3.57q1.54-1.8,3.08-3.65t3.1-3.73l1.8-2.19,1.8-2.22,1.8-2.25,1.81-2.28q2.2-2.79,4.4-5.65t4.42-5.82q2.22-3,4.44-6t4.46-6.17a10.6,10.6,0,0,0,1.67-3.73,12,12,0,0,0,.22-4.11,12.28,12.28,0,0,0-1.17-4,11.35,11.35,0,0,0-2.51-3.37,10.89,10.89,0,0,0-1.21-1,10.24,10.24,0,0,0-1.29-.76,9.73,9.73,0,0,0-1.34-.54,9.32,9.32,0,0,0-1.36-.33"/></g></g><path class="cls-15" d="M1039.87,1323.46c-43.72,288.82-273.91,412.68-524.93,356.9-141.56-31.46-269.3-115.54-246-107.89,78.85,25.89,179.15-24,200.1-51.9,45.64-60.89,36.75-132.14,6-180.12"/><ellipse class="cls-16" cx="580.56" cy="1246.8" rx="111.45" ry="465.61" transform="translate(-739.08 1634.24) rotate(-81.39)"/><path class="cls-17" d="M212.78,1232.47c10.4-68.69,305.84-96.2,547.61-63.78-50.31-12.39-105.28-23.33-163.15-32.09-254.25-38.48-467.84-20.34-477,40.52-6.87,45.42,102,101.79,263.4,143.47C332.46,1291.16,208.53,1260.58,212.78,1232.47Z"/><path id="milk" class="cls-6" d="M1012.11,1334.47c-61.73-40.22-166.74-174.47-300-132.67-32.19,10.1-105.85,29.06-225.71-5.36-108.48-31.16-76.49,4.44-136.43-10-118.86-28.7-172.67-53.42-204.17,43.06,78,50.83,238.36,110.68,426.66,130.49S926.7,1368.12,1012.11,1334.47Z"/><path class="cls-8" d="M169.43,1221.83a13,13,0,0,1,.69-1.25c13.66-21.69,46-16.35,65-8.08,10.28,4.47,23.76,13.08,32.3,24.49,3.33,4.45.8,15.4-4.25,16.71-7.25,1.88-15.4-.81-17.74-1.46-13.25-3.68-12.77-9.25-19.38-13.06-13.56-7.81-22.7-5.73-25.32.29-2.54,5.84-8.93,10.72-14.67,10.69-8.33-.05-17.48-2.72-20-9.31C165.26,1238.73,165.58,1229.75,169.43,1221.83Z"/><path class="cls-10" d="M268,1266.29c-.47,5.4-6.64,8.9-28.76,5.52-13.61-2.08-28.24-.46-27.77-5.86s6.07-15.89,29.66-15.74S268.48,1260.89,268,1266.29Z"/><path class="cls-18" d="M287.87,1291.69c7.28-29.93-13.69-27.21-13.8-6.9,0,6.33-21,8.51-19.56-.71,3.84-24.38,15.72-35.83,34.62-38.46,19.18-2.67,30.37,13.86,27.26,38-2.92,22.66-30.08,17.84-28.51,8.09Z"/><path class="cls-18" d="M475,1340.45c-.49,5.63,5.38,10.56,29.36,12,14.76.88,29.91,5.76,30.4.13s-3.49-17.58-28.43-22.64S475.47,1334.82,475,1340.45Z"/><path class="cls-9" d="M449.54,1287.31c1.91-19.93,25.75-28.65,23.16-12.38-1.32,8.32,29.16,6.55,29.92-5.43,2-31.69-12.36-44.25-40.2-43.43-28.26.83-50.53,25.47-53.56,57-2.84,29.59,39.93,16.94,40.67,4.28Z"/><path class="cls-10" d="M472.21,1280.58c-.31,3.51,5.2,6.78,27.21,8.41,13.55,1,27.55,4.53,27.86,1s-3.65-11.11-26.63-15S472.51,1277.08,472.21,1280.58Z"/><path class="cls-9" d="M383.7,1209.88c-.31,3.51,5.2,6.78,27.21,8.41,13.55,1,27.55,4.53,27.86,1s-3.65-11.11-26.63-15S384,1206.37,383.7,1209.88Z"/><path class="cls-7" d="M391.29,1218.08c-.47,5.4-6.64,8.9-28.76,5.52-13.61-2.08-28.24-.46-27.77-5.86s6.07-15.89,29.66-15.74S391.77,1212.68,391.29,1218.08Z"/><path class="cls-8" d="M390.2,1260.68c-.1,1.18-2.71,1.81-12.37.56-5.94-.77-12.26-.74-12.15-1.92s2.33-3.36,12.57-2.79S390.31,1259.5,390.2,1260.68Z"/><path class="cls-8" d="M618.3,1301.61a14.64,14.64,0,0,0-.5-1.48c-10.42-26.08-45.69-27.69-67.42-23.21-11.74,2.42-27.65,8.52-38.84,18.69-4.37,4-3.73,16.15,1.38,18.68,7.34,3.63,16.49,2.61,19.08,2.45,14.74-.92,15.27-6.93,23-9.48,15.84-5.23,25.14-1,26.79,6,1.6,6.76,7.46,13.38,13.56,14.64,8.84,1.82,19,1.05,22.95-5.37C619.55,1320.47,620.89,1310.87,618.3,1301.61Z"/><path class="cls-10" d="M622,1333.29c-.47,5.4-7.16,1.2-28.76,5.52-13.55,2.71-26-3.71-31-9.87-3.21-4,9.28-11.88,32.87-11.73S622.46,1327.88,622,1333.29Z"/><path class="cls-7" d="M502,1313c-.12,1.42-3.5,2.15-16,.56-7.71-1-15.89-1-15.76-2.43s3-4,16.26-3.24S502.16,1311.57,502,1313Z"/><path class="cls-10" d="M665.83,1332c-.27,3.1,4.9,1.93,16.25,3.26,10.95,1.28,17,5.65,17.32,2.55s-1.54-9.64-13.37-12.22S666.1,1328.91,665.83,1332Z"/><path class="cls-19" d="M613.33,1700.92A670.81,670.81,0,0,1,513,1693.13c-134.91-20.42-244.68-75.24-317.43-158.52a379,379,0,0,1-81.27-153.2c-16.12-60.52-18.79-127.55-7.94-199.23A12.91,12.91,0,0,1,131.9,1186c-10.31,68.15-7.84,131.65,7.36,188.72A353.42,353.42,0,0,0,215,1517.62c68.68,78.62,173.06,130.49,301.85,150s243.84.84,332.71-53.94a353.41,353.41,0,0,0,114.65-114c31.41-50,52.56-109.94,62.88-178.09a12.91,12.91,0,0,1,25.53,3.86c-10.85,71.68-33.24,134.92-66.54,188a379,379,0,0,1-123,122.29C793,1678.87,707.93,1700.92,613.33,1700.92Z"/><g id="보울_테두리" data-name="보울 테두리"><path class="cls-19" d="M811.85,1390.13c-75.12,0-161.09-6.93-249.9-20.37-123.94-18.76-238.85-48-323.56-82.35-92.49-37.5-136.55-75.26-131-112.23s58.86-60,158.31-68.45c91.08-7.73,209.5-1.67,333.44,17.09s238.85,48,323.56,82.35c92.49,37.5,136.55,75.26,131,112.23s-58.86,60-158.31,68.45C869.58,1389,841.56,1390.13,811.85,1390.13ZM349.36,1129.28c-29,0-56.29,1.06-81.45,3.19-42,3.57-76.74,10.24-100.45,19.29-20.79,7.94-33,17.63-34.51,27.29s7.38,22.54,24.89,36.28c20,15.66,51.17,32.31,90.24,48.15,82.89,33.61,195.73,62.28,317.73,80.75s238.27,24.47,327.39,16.89c42-3.57,76.74-10.24,100.45-19.29,20.79-7.94,33-17.63,34.51-27.29s-7.38-22.54-24.89-36.28c-20-15.66-51.17-32.31-90.24-48.15-82.89-33.61-195.73-62.28-317.73-80.75C507.74,1136.11,423.11,1129.28,349.36,1129.28Z"/></g><path id="milk_effect" data-name="milk effect" class="cls-6" d="M1012.11,1334.47c32.64-21.81-95.76-70.95-119.29-235-14.27-99.51-123.6-95.48-121.32-68.88,1.18,13.82,38.9,2.19,47.64,51.67,4.81,27.25-25.14,66.7-49.08,87.3-41.43,35.66-104,50-185.14,48.27C395.62,1213.88,884.15,1420,1012.11,1334.47Z"/><path class="cls-8" d="M982.26,1316.83a10.6,10.6,0,0,0-.36-1.07c-7.54-18.88-33.08-20-48.81-16.8-8.5,1.75-20,6.17-28.12,13.53-3.16,2.88-2.7,11.7,1,13.53,5.31,2.63,11.94,1.89,13.82,1.77,10.67-.66,11.06-5,16.65-6.86,11.47-3.78,18.2-.7,19.4,4.35s5.4,9.69,9.82,10.6c6.4,1.32,13.79.76,16.61-3.89C983.16,1330.48,984.13,1323.54,982.26,1316.83Z"/><path class="cls-7" d="M1006,1334.71c-2-8.82-8.7-14.46-16.05-17.19a39.31,39.31,0,0,0-10.82-2.3,65.63,65.63,0,0,0-25.59,3.5c-15.15,5.11-39.25,20.17-34,42.37C921.27,1368.43,1006.87,1338.37,1006,1334.71ZM938.9,1355.2a8.54,8.54,0,0,1,.62-1.66,29.28,29.28,0,0,1,3.54-4.31c4.58-4.28,10.39-7,16-8.94,6.32-2.13,13.18-3.41,19.77-2.55,2.05.27,6.88,1.31,8,2.84C986.74,1340.83,940.11,1356.66,938.9,1355.2Z"/><path class="cls-9" d="M775,1346.67c1.29,17,14.07,26.79,28.27,28.29,17.21,1.81,59.51,3.1,61.93-4.48,7.31-22.92-16.85-41-32.39-47.72a69.68,69.68,0,0,0-26.68-6,41.4,41.4,0,0,0-11.59,1.44c-8,2.22-15.49,7.55-18.33,16.66A31.87,31.87,0,0,0,775,1346.67Zm29.63-6.09A38.81,38.81,0,0,1,817,1342a61.34,61.34,0,0,1,8.29,3c5.77,2.51,11.67,6,16.14,10.87a31.32,31.32,0,0,1,3.38,4.87,9.1,9.1,0,0,1,.51,1.8c-1.39,1.43-6.68,2.15-8.68,2.24-6.61.3-13.33-1.46-19.48-4a51.54,51.54,0,0,1-14.37-8.51,33.38,33.38,0,0,1-4.35-4.44c-1.86-2.37-.6-6.23,2.18-6.75A31.69,31.69,0,0,1,804.67,1340.58Z"/><path class="cls-10" d="M853.84,1361.35c1.58-16.43,21.22-23.61,19.09-10.2-1.09,6.86,24,5.4,24.66-4.47,1.65-26.11-10.18-36.47-33.13-35.79-23.29.69-41.65,21-44.14,46.95-2.34,24.39,32.91,14,33.52,3.53Z"/><path class="cls-9" d="M771.75,1282.18c-.44,5-6.16,8.25-26.67,5.12-12.63-1.93-26.19-.43-25.75-5.44s5.63-14.73,27.5-14.6S772.19,1277.17,771.75,1282.18Z"/><path class="cls-9" d="M815.47,1146c2.49,3,1.14,7.84-11.71,17.3-7.91,5.82-14.47,14-17,11.06s-5-11.07,7-22.91S813,1143,815.47,1146Z"/><path class="cls-7" d="M613.9,1271.78c15.87-31.43-8.44-35.23-13.77-12.33-1.66,7.14-25.85,2.72-21.85-7.22,10.58-26.29,26.9-35.32,48.86-32.09,22.29,3.28,30.64,25.62,21,51.84-9.1,24.64-38.46,10.29-34.19-.21Z"/><path class="cls-18" d="M517.18,1259.48c5.37-12,19.17-10.6,29.38-3.46,5.54,3.87,7.49,9.43,15.21,10.76,8.13,1.41,12.32-2.38,10.33-8.08-5.29-15.14-22.54-27.78-44.73-28.52a40.69,40.69,0,0,0-12.21,1.52c-8.4,2.33-16.33,8-19.31,17.56a31.48,31.48,0,0,0-1.28,12.45c.9,8.79,15.31,9.57,21.14,6.79C517.87,1267.48,515.19,1263.94,517.18,1259.48Z"/><path class="cls-18" d="M727.43,1276.22c-1.56-12.37-9.93-21.2-19.59-26.17a55,55,0,0,0-14.43-5,89.3,89.3,0,0,0-35.32.44c-21.32,4.4-56.14,20.85-52,52,1.37,10.3,55.53,20.09,77.85,22.44,18.42,1.94,36.89-7,42.37-28.37A41.4,41.4,0,0,0,727.43,1276.22Zm-28,6.87a38.88,38.88,0,0,1-5.39,5.28c-7.26,5.39-16.1,8.19-24.55,9.77s-17.36,2-25.71-.17c-2.53-.66-9.1-3-10.55-5.2a11.4,11.4,0,0,1,1.06-2.15,38.58,38.58,0,0,1,5.39-5.28c6.81-5.06,15.09-7.85,23-9.48,8.89-1.83,18.4-2.42,27.26-.12,2.76.72,9.19,3,10.58,5.24A13.59,13.59,0,0,1,699.47,1283.09Z"/><path class="cls-10" d="M874.48,1269.1c-.1,1.18-2.71,1.81-12.37.56-5.94-.77-12.26-.74-12.15-1.92s2.33-3.36,12.57-2.79S874.58,1267.93,874.48,1269.1Z"/><path class="cls-18" d="M860.23,1275.32c-1.51-22.19-15.57-30.38-32.63-32-10.12-1-27.75,4.35-35.71,15.38a6.17,6.17,0,0,0,1.65,8.94c6.62,4.17,13.33,4.78,21.18-2.28a12,12,0,0,1,20.28,8C835.65,1284.84,861.16,1289,860.23,1275.32Z"/><path class="cls-18" d="M927.31,1218.12c-3.14,2.16-3.19,7.34,6.37,20.43,5.88,8.06,9.85,18,13,15.88s7.65-9.37-.43-24.52S930.46,1216,927.31,1218.12Z"/><path class="cls-8" d="M872.6,1172.84c11.23-26.63,27.1-11.06,15.47,3.89-3.62,4.66-4.73,17.8,3.84,12.21,19.31-12.61,20.46-36.48,6.25-50.64-14.42-14.38-33.58-12-39.2,15.43-4.28,20.9,9.32,27.27,13.64,19.12Z"/><path class="cls-7" d="M741.46,1184.2a8.43,8.43,0,0,1,.45-.81c8.83-14,29.71-10.57,42-5.22,6.64,2.89,15.35,8.45,20.87,15.82,2.15,2.88.51,10-2.75,10.8-4.69,1.22-10-.52-11.46-.94-8.56-2.38-8.25-6-12.53-8.44-8.76-5-14.67-3.7-16.36.19s-5.77,6.93-9.48,6.9c-5.38,0-11.29-1.76-12.92-6C738.77,1195.12,739,1189.32,741.46,1184.2Z"/><path class="cls-18" d="M831.61,1022.12c3.69-5.42,9.16-5.88,13-4.14a35.26,35.26,0,0,1,16.08,14.73c8.06,14.13-18.89,18.48-22.07,12.32h0a13.13,13.13,0,0,0-7-5.79C829.48,1038.44,827.92,1027.53,831.61,1022.12Z"/><path class="cls-10" d="M820.15,1096.09c3.11-.15,1.31-3.55,1.22-11.43-.09-7.61,3.49-12.23.38-12.08s-9.37,2.09-10.47,10.43S817,1096.24,820.15,1096.09Z"/><g id="보울_테두리-2" data-name="보울 테두리"><path class="cls-19" d="M804,1388.93c-75,0-158.83-6.57-242-19.16-123.94-18.76-238.85-48-323.56-82.35-92.49-37.5-136.55-75.26-131-112.23s58.86-60,158.31-68.45c91.08-7.73,209.5-1.67,333.44,17.09a12.91,12.91,0,1,1-3.86,25.53c-122-18.47-238.27-24.46-327.39-16.9-42,3.57-76.74,10.24-100.45,19.29-20.79,7.94-33,17.63-34.51,27.29s7.38,22.54,24.89,36.28c20,15.66,51.17,32.31,90.24,48.15,82.89,33.61,195.73,62.28,317.73,80.75,232.06,35.12,416.48,17.57,460.71-19.7a12.91,12.91,0,0,1,16.64,19.74c-19.43,16.37-66.31,37.15-179.27,43.13C844.73,1388.43,824.69,1388.93,804,1388.93Z"/></g><path class="cls-4" d="M1167.08,1203c-18.93,178.15-438.07,306.88-486,309.41s-82.91-27.62-113-27.62c-19.52,0-39.17,7.78-50.29,24.23-7.81,11.55-.06,31-.06,31s-32.7-8.7-39.16,25.3,29,52.52,29,52.52-16.82,1.71-13,15c8,28,30.95,22.1,41.78,27.11,87.7,40.52,469.87,104.14,616.18-1.72"/><path class="cls-5" d="M500.22,1536.42c10.88,18.83,18.42,25,37.37,32.86,5.84,2.43,15.32,5.24,20.91,1,5.31-4,.11-9.25-4.24-11.06-13.38-5.57-23.77-15.92-27.29-32.7-1.5-7.14-14.39-5.72-20.53-6C504.15,1520.48,500.22,1536.42,500.22,1536.42Z"/><path class="cls-5" d="M488.19,1616.8c9.8,9.46,11.87,11,23.64,12.1,6.28.57,15.67-3.55,20.87-7.57,1.93-1.49,8.87-8.14,2.73-8.69-10.82-1-22.95-4.6-31.94-13.27-3.75-3.62-13.11,3.51-16.49,5.63C485.2,1606.14,488.19,1616.8,488.19,1616.8Z"/><path class="cls-20" d="M1017.26,457.42c-5.46,34.74-23.82,65.18-61,77.56-39.11,13-77.67-9-94.84-44.61-8.56-17.75-12.85-37.52-14.3-57.1-3.91-52.63,18.43-136.88,84-137.36,34.15-.25,58.29,33.05,71.21,61C1016.5,387.69,1022.55,423.81,1017.26,457.42Z"/><path class="cls-5" d="M991.84,425.55c-1.12,25.88-11,50.51-31.25,62.75-18.28,11.05-40.15,3.19-52-13.38-22.4-31.21-19.64-86.89,2.27-117.73,13.57-19.1,38.36-22.47,55.64-6.19C985.74,369.17,993,399.47,991.84,425.55Z"/><path class="cls-20" d="M766.76,521.46c-13.9,35.2-37,60.5-68.31,55.07-26.12-4.53-42.18-31.92-44.29-66.74-3.33-54.93,22.16-129,61.3-156,27.27-18.84,51.53,4.94,61,37.46C786.68,426.18,782.93,480.52,766.76,521.46Z"/><path class="cls-5" d="M762.09,484.41c-6,24.28-18.37,45.74-36,53-23.37,9.59-38.66-18.3-41.4-43.63-3.24-30,6.34-64.7,23.91-86.5C724.42,387.61,747,388,758.69,412,767.67,430.45,768.38,459,762.09,484.41Z"/><path class="cls-21" d="M702,436.77a45.61,45.61,0,0,0-7.07,19c-.54,4.62,2.42,9.65,7.35,10.23,4.61.55,9.65-2.4,10.23-7.35.15-1.24.33-2.46.59-3.68q.2-.91.45-1.81-.26.86,0,0c.36-1,.77-2,1.23-3,.15-.32,1.61-3,1.05-2.15,2.46-3.94,2.85-9.43-1.34-12.52-3.49-2.58-9.89-2.88-12.52,1.34Z"/><path class="cls-21" d="M904.36,396.54a48.55,48.55,0,0,0-2.78,18.24c.18,4.64,4,9.13,8.89,8.91,4.66-.21,9.1-3.92,8.91-8.89a32.35,32.35,0,0,1,2.18-13.66c1.63-4.52-1.94-9.73-6.3-10.9-5-1.33-9.26,1.77-10.9,6.3Z"/><path class="cls-22" d="M770.75,583.16c1.48-3.23,11.55-6.76,21.12-7.44,10.08-.71,19.68,1.64,21.32,5.89,1,2.7-2.08,10.71-7.21,17.26-5.33,6.8-12.74,12.1-14.93,12.26C786.1,611.52,768.24,588.66,770.75,583.16Z"/><path class="cls-5" d="M748.92,776.67c8.85-4.09,18.21-13.81,28.56-66.47,5.92-30.11,9.43-57.69.21-62.77-5.85-3.22-18.05,13.31-37.47,27.87-20.17,15.12-44.09,19.77-49.38,34.86C685.85,724.4,733.85,783.64,748.92,776.67Z"/><path class="cls-23" d="M727.31,698c-10.85-2.11-22.8-2.61-28,.09s-7.15,6.37-8.47,12c-4.87,20.95,43,73.48,58.08,66.51,8.85-4.09,18.21-13.81,28.56-66.47q.88-4.49,1.68-8.89C770.34,707.6,753,703,727.31,698Z"/><path class="cls-6" d="M697.89,738.32c.12,1.35,1.85,6.23,3.61,9.75,9.86,19.7,15.93,29.18,27.72,29.18,6.67,0,11.37,3.29,11.7,8,.35,5-3.93,9.15-5.1,14a10.42,10.42,0,0,0,2.94,10.1,8.31,8.31,0,0,0,10.18.62c2.51-1.91,3.53-5.24,3.63-8.4s-.54-6.28-.64-9.43a27.92,27.92,0,0,1,6.75-19c4.87-5.61,12.53-10.48,12.05-17.89a3.35,3.35,0,0,0-1.49-2.92c-1.23-.6-2.65.18-3.79.94-7.49,5.06-12.23,10.21-21.05,12.21-9.42,2.13-18-1.18-26.28-8.21-7.37-6.24-11.28-11.74-16.51-19.85,0,0-1.06-2-2.26-1.74S697.79,737.16,697.89,738.32Z"/><path class="cls-10" d="M649.38,725c1.24-3.71,5.66-2.72,7.94-2.57,3.88.25,7.77,2.28,6.52,5.79C661.82,733.85,647.67,730.1,649.38,725Z"/><path class="cls-18" d="M681.13,769.59c-3.86.67-7.78-6.63-7.09-9.9.81-3.8,4.42-6.79,7.42-4.58C686.3,758.68,688.56,768.3,681.13,769.59Z"/><path class="cls-8" d="M794.95,760.15c2.78,1.38,2.06-.87,4-4.19s6.2-3.46,3.42-4.84-8.82-3.49-11.91-.53S792.16,758.76,794.95,760.15Z"/><path class="cls-6" d="M745.14,1015.86a23.68,23.68,0,0,0-15.66-1.11c-2.92.83-5.81,2.37-7.4,5a8.66,8.66,0,0,0,3.46,11.79c4.28,2.08,9.36.19,13.65-1.86s9.07-4.33,13.62-2.93c0,0,4.27,1.54,4.31-1.39C757.15,1022.9,747.67,1016.94,745.14,1015.86Z"/><path class="cls-6" d="M748.16,1043a18.21,18.21,0,0,0-8.77,8.15c-1.41,2.72-2.12,6-.15,8.78a6.23,6.23,0,0,0,6.44,2.4c4-1,5.81-5.08,6.95-8.84,2.74-9.1,7.91-10.93,7-12.24C758.54,1039.71,750.07,1042.12,748.16,1043Z"/><path class="cls-21" d="M865.23,660.14a6.78,6.78,0,0,1,.46,3.22,10.82,10.82,0,0,1-1.17,4,13.87,13.87,0,0,1-3.17,4.05,19.27,19.27,0,0,1-5.26,3.32q-6.66,2.93-12.11.7t-8.32-8.77a18.71,18.71,0,0,1-1.73-8.57,13.43,13.43,0,0,1,2.64-7.43,18.4,18.4,0,0,1,12.41-6.7,14.63,14.63,0,0,1,4.88.37,11,11,0,0,1,3.68,1.66,6,6,0,0,1,2.06,2.35,3.14,3.14,0,0,1,0,2.61,3.58,3.58,0,0,1-1.94,1.92A2.56,2.56,0,0,1,856,653a8,8,0,0,1-2-.9,11.93,11.93,0,0,0-4.07-1.79,7.39,7.39,0,0,0-8.13,5.36,11.77,11.77,0,0,0,1.05,7.67,14.31,14.31,0,0,0,2.14,3.51,9.25,9.25,0,0,0,2.72,2.26,6.82,6.82,0,0,0,3.09.81,7.62,7.62,0,0,0,3.22-.68,7.24,7.24,0,0,0,3.26-2.63,9.53,9.53,0,0,0,1.38-4.25,7.67,7.67,0,0,1,.59-2.52,2.94,2.94,0,0,1,1.57-1.51,3,3,0,0,1,2.63,0A3.5,3.5,0,0,1,865.23,660.14Z"/><path class="cls-21" d="M865.45,628.23l4.7,10.66a16.68,16.68,0,0,1,1.57-3.68,10.51,10.51,0,0,1,2.28-2.65,13.27,13.27,0,0,1,3.19-2,10.91,10.91,0,0,1,5.37-1,9.85,9.85,0,0,1,7.11,4.33,24.78,24.78,0,0,1,1.88,3.56l6.06,13.77a5.2,5.2,0,0,1,.45,3.7,3.65,3.65,0,0,1-2.13,2.26q-3.56,1.57-5.48-2.81l-5.35-12.14a12.15,12.15,0,0,0-3.37-4.85q-1.84-1.4-4.71-.14a6.39,6.39,0,0,0-3,2.62,7.19,7.19,0,0,0-1,4,20.84,20.84,0,0,0,1.94,6l4.19,9.5a5.31,5.31,0,0,1,.47,3.67,3.65,3.65,0,0,1-2.18,2.3q-3.56,1.57-5.48-2.81L858.26,631.4a5.41,5.41,0,0,1-.51-3.69,3.57,3.57,0,0,1,2.14-2.25,3.66,3.66,0,0,1,3.16-.07A5.29,5.29,0,0,1,865.45,628.23Z"/><path class="cls-21" d="M923,640.47a24.25,24.25,0,0,1-3.7,5.26,15.41,15.41,0,0,1-5,3.42,11.3,11.3,0,0,1-5.34,1,8.74,8.74,0,0,1-4.53-1.54,8.43,8.43,0,0,1-2.92-3.56,7.93,7.93,0,0,1-.34-5.85,10.21,10.21,0,0,1,3.9-5.05q.62-.46,3.08-2.21t4.2-3.06q1.73-1.31,3.71-3a8.21,8.21,0,0,0-3-3.67q-1.6-.88-4.78.52a9.57,9.57,0,0,0-3.79,2.58,7.34,7.34,0,0,0-1.36,3.33,25.72,25.72,0,0,1-.51,2.63c-.13.45-.64.86-1.54,1.26a3.35,3.35,0,0,1-2.43.14,2.77,2.77,0,0,1-1.76-1.6,6.61,6.61,0,0,1-.28-4.28,10.49,10.49,0,0,1,2.88-4.79,20.64,20.64,0,0,1,6.57-4.28,21.88,21.88,0,0,1,7.94-2.16,7.57,7.57,0,0,1,5.39,1.85,16.91,16.91,0,0,1,3.95,5.93q1.11,2.53,1.88,4.3l1.69,3.94a15.75,15.75,0,0,0,2.53,3.93,14.44,14.44,0,0,1,1.92,2.54,2.88,2.88,0,0,1-.15,2.47,3.81,3.81,0,0,1-2,1.95,3.47,3.47,0,0,1-2.64-.08A16.79,16.79,0,0,1,923,640.47ZM918,630.28a39.36,39.36,0,0,1-4.05,3.25q-2.73,2-3.76,2.79a6.25,6.25,0,0,0-1.69,2.16,3.32,3.32,0,0,0,0,2.93,4,4,0,0,0,2.46,2.23,5,5,0,0,0,3.74-.28,9.18,9.18,0,0,0,3.52-2.67,6.84,6.84,0,0,0,1.59-3.58q.25-2.06-1.39-5.8Z"/><path class="cls-21" d="M933.51,610.61l.38.87a15.5,15.5,0,0,1,2.6-5.53,11.24,11.24,0,0,1,4.43-3.35,12.54,12.54,0,0,1,6.86-1,12.89,12.89,0,0,1,6.62,3.06,19.12,19.12,0,0,1,5,7.08,20.74,20.74,0,0,1,1.75,6.51,14.9,14.9,0,0,1-.52,5.79,12.24,12.24,0,0,1-2.58,4.6,12.46,12.46,0,0,1-4.33,3.12,11,11,0,0,1-5.72,1,16.19,16.19,0,0,1-5.59-1.88l4.75,10.8q2.09,4.74-1.36,6.26c-1.35.6-2.43.58-3.23,0a8.42,8.42,0,0,1-2.23-3.28l-13.66-31a4.93,4.93,0,0,1-.45-3.46,3.38,3.38,0,0,1,2-2.09,3.53,3.53,0,0,1,2.95-.06A4.63,4.63,0,0,1,933.51,610.61Zm18.69,4.25a13.58,13.58,0,0,0-3-4.5,7.82,7.82,0,0,0-3.79-2.07,6.28,6.28,0,0,0-3.89.41,7,7,0,0,0-4,4.55q-1,3.24,1,7.8,1.89,4.29,5,5.78a6.92,6.92,0,0,0,6.08.17,6.31,6.31,0,0,0,2.86-2.5,7.82,7.82,0,0,0,1.08-4.2A13.51,13.51,0,0,0,952.21,614.85Z"/><path class="cls-21" d="M902.41,811.12a6.77,6.77,0,0,1-2.09,2.49,10.76,10.76,0,0,1-3.75,1.8,13.87,13.87,0,0,1-5.13.35,19.25,19.25,0,0,1-6-1.7q-6.63-3-8.61-8.55t1-12.05a18.74,18.74,0,0,1,5.23-7,13.43,13.43,0,0,1,7.29-3,18.4,18.4,0,0,1,13.27,4.75,14.66,14.66,0,0,1,3,3.88,11,11,0,0,1,1.23,3.85,5.94,5.94,0,0,1-.37,3.1,3.14,3.14,0,0,1-1.94,1.74,3.61,3.61,0,0,1-2.72-.16,2.57,2.57,0,0,1-1.27-1.13,7.85,7.85,0,0,1-.65-2.08,12,12,0,0,0-1.39-4.23,7.39,7.39,0,0,0-9.41-2.47,11.76,11.76,0,0,0-5,5.9,14.35,14.35,0,0,0-1.18,3.94,9.28,9.28,0,0,0,.14,3.54,6.78,6.78,0,0,0,1.46,2.84,7.58,7.58,0,0,0,2.66,1.94,7.26,7.26,0,0,0,4.13.67,9.54,9.54,0,0,0,4.09-1.82,7.7,7.7,0,0,1,2.27-1.25,3,3,0,0,1,2.17.16,3,3,0,0,1,1.72,2A3.5,3.5,0,0,1,902.41,811.12Z"/><path class="cls-21" d="M926.31,790l-4.8,10.62a16.81,16.81,0,0,1,3.79-1.29,10.57,10.57,0,0,1,3.49-.08,13.25,13.25,0,0,1,3.59,1.07,10.91,10.91,0,0,1,4.32,3.34,9.86,9.86,0,0,1,1.53,8.19,25.08,25.08,0,0,1-1.39,3.78l-6.2,13.71a5.21,5.21,0,0,1-2.45,2.81,3.66,3.66,0,0,1-3.11-.08q-3.54-1.6-1.57-6L929,814a12.16,12.16,0,0,0,1.36-5.75q-.19-2.31-3-3.6a6.4,6.4,0,0,0-3.94-.47,7.2,7.2,0,0,0-3.64,1.94,21,21,0,0,0-3.15,5.43L912.28,821a5.29,5.29,0,0,1-2.42,2.8,3.64,3.64,0,0,1-3.17-.09q-3.54-1.6-1.57-6l14-31a5.39,5.39,0,0,1,2.41-2.84,3.57,3.57,0,0,1,3.1.09,3.66,3.66,0,0,1,2.16,2.3A5.31,5.31,0,0,1,926.31,790Z"/><path class="cls-21" d="M955.65,841a24.31,24.31,0,0,1-6.39.76,15.41,15.41,0,0,1-5.9-1.45A11.3,11.3,0,0,1,939,837a8.73,8.73,0,0,1-1.88-4.4,8.41,8.41,0,0,1,.7-4.55,7.93,7.93,0,0,1,4.13-4.17,10.21,10.21,0,0,1,6.37-.47q.75.15,3.7.82t5.08,1.08q2.13.41,4.68.78a8.22,8.22,0,0,0,.74-4.67q-.41-1.78-3.58-3.21a9.57,9.57,0,0,0-4.45-1.09,7.34,7.34,0,0,0-3.39,1.21,26.52,26.52,0,0,1-2.29,1.38,2.5,2.5,0,0,1-2-.3,3.35,3.35,0,0,1-1.73-1.72,2.77,2.77,0,0,1,0-2.38,6.65,6.65,0,0,1,3-3.07,10.49,10.49,0,0,1,5.5-1.05,20.62,20.62,0,0,1,7.57,2,21.87,21.87,0,0,1,6.92,4.47,7.56,7.56,0,0,1,2.22,5.25,16.91,16.91,0,0,1-1.78,6.9q-1.14,2.52-1.94,4.27L964.82,838a15.78,15.78,0,0,0-1.23,4.51,14.62,14.62,0,0,1-.61,3.12A2.9,2.9,0,0,1,961,847.2a3.81,3.81,0,0,1-2.75-.15,3.47,3.47,0,0,1-1.71-2A17,17,0,0,1,955.65,841Zm4.21-10.57a39.65,39.65,0,0,1-5.13-.85q-3.29-.71-4.58-.93a6.24,6.24,0,0,0-2.73.18,3.32,3.32,0,0,0-2.16,2,4,4,0,0,0,0,3.32,5,5,0,0,0,2.71,2.6,9.18,9.18,0,0,0,4.34.84,6.81,6.81,0,0,0,3.72-1.21q1.7-1.19,3.39-4.91Z"/><path class="cls-21" d="M984.88,828.85l-.39.87a15.49,15.49,0,0,1,5.85-1.76A11.25,11.25,0,0,1,995.8,829a12.54,12.54,0,0,1,5.31,4.45,12.89,12.89,0,0,1,2.14,7,19.11,19.11,0,0,1-1.89,8.49,20.88,20.88,0,0,1-3.67,5.65,14.93,14.93,0,0,1-4.65,3.48,12.24,12.24,0,0,1-5.14,1.15,12.44,12.44,0,0,1-5.21-1.14,11,11,0,0,1-4.6-3.56,16.15,16.15,0,0,1-2.34-5.41l-4.86,10.75q-2.13,4.72-5.57,3.17-2-.91-2.12-2.43a8.42,8.42,0,0,1,1-3.85l14-30.88a4.93,4.93,0,0,1,2.27-2.65,3.38,3.38,0,0,1,2.89.09,3.53,3.53,0,0,1,2,2.15A4.65,4.65,0,0,1,984.88,828.85Zm9.32,16.75a13.58,13.58,0,0,0,1.33-5.25,7.83,7.83,0,0,0-1-4.2,6.28,6.28,0,0,0-2.9-2.62,7,7,0,0,0-6,.08q-3.09,1.42-5.14,6-1.93,4.27-1,7.56a6.93,6.93,0,0,0,3.94,4.64,6.29,6.29,0,0,0,3.77.46,7.82,7.82,0,0,0,3.84-2A13.54,13.54,0,0,0,994.21,845.6Z"/><path class="cls-12" d="M829.95,635.22a199.16,199.16,0,0,0,73-61c2-2.65-5.85-6-7.43-3.86a196.72,196.72,0,0,1-71.86,60.35c-3.42,1.69,3.9,5.67,6.28,4.49Z"/><path class="cls-12" d="M851.52,695.88a450,450,0,0,1,120.63-19.25c4.59-.1,6.49-7.26.89-7.13a458.24,458.24,0,0,0-122.74,19.7c-4.75,1.44-4.16,8.32,1.23,6.68Z"/><path class="cls-12" d="M879,770.93a152,152,0,0,0,108.39-20.77c4-2.51-4.18-3.56-6.41-2.15a136.94,136.94,0,0,1-98.13,18.79c-3.05-.56-9.35,3.12-3.85,4.13Z"/><path class="cls-12" d="M871.84,826.93c29,13.52,56.32,34.08,76.54,58.9,3.05,3.75,9.51,1.36,5.93-3-21.72-26.67-50.74-48.4-81.84-62.93-5.07-2.37-4.58,5.22-.63,7.06Z"/><path class="cls-24" d="M1405.82,536.5a320.83,320.83,0,0,1-25.51-36.41c-16.89-27.62-31-56.79-45.46-85.72-28.14-56.4-57.9-114.8-108.53-154.51-13.12-10.29-27.4-19.11-39.89-30.17-46.42-41.08-61.63-106-90.4-160.86a814,814,0,0,0,58.73,223c35,82.73,123.49,274.07,115.58,508.69-4.89,144.93-.84,292.06-41.2,432.9-17.58,61.34-44.18,131-83.33,182-21.55,28.09-50.63,50.53-80.44,69.24-57.67,36.21-122.82,59.72-188.18,77.78-38.93,10.76-78.39,19.44-118.06,27-80.76,15.34-134.26-12-150.33,39.5-20.18,64.73,210.57,108.86,400,77.49-38.92,78.7-66.31,133.58-66.31,133.58H1427V560.13C1427,555.47,1408.84,540.17,1405.82,536.5Z"/><path class="cls-24" d="M801.22,104.13s28.55,95.39-17.88,137.56l60.56-43Z"/><path class="cls-5" d="M894.81,1729.33c-22.72,0-47.08-.75-73.24-2.37-128.48-8-245.68-34.38-290.73-55.2a39.38,39.38,0,0,0-7-1.45c-11.75-1.81-33.61-5.18-41.75-33.86-2-7.08-1.06-14,2.67-19.6-11.4-10.93-23.59-29-18.86-53.9,3.27-17.21,12.19-26,19.09-30.35a42.16,42.16,0,0,1,16.61-6c-.63-7.92.29-17.1,5.5-24.82,12.66-18.73,35.45-29.91,61-29.91,15.35,0,30.56,6.08,46.67,12.52,20.19,8.07,41,16.41,65.68,15.12,22.16-1.17,136.82-33.32,248.91-87.58,63.26-30.62,114.43-62.77,152.09-95.54,44.33-38.57,68.83-77.19,72.82-114.77a12.91,12.91,0,1,1,25.67,2.73c-4.71,44.28-32.14,88.53-81.55,131.52-39.38,34.27-92.47,67.68-157.79,99.3-110,53.23-230,88.6-258.8,90.12-30.29,1.61-56-8.67-76.63-16.92-14.33-5.73-26.71-10.68-37.09-10.68-16.94,0-31.74,6.93-39.59,18.55-2.65,3.92-.64,14.3,1.24,19a12.91,12.91,0,0,1-15.31,17.25c-2.48-.61-10.38-1.49-15.79,2-3.72,2.39-6.13,6.72-7.37,13.25-4.61,24.3,22,38.53,22.26,38.67a13,13,0,0,1,6.83,14,12.71,12.71,0,0,1-11.51,10.25,9.45,9.45,0,0,0-1.41.33c3.7,11.17,10.08,12.15,20.34,13.74,4.65.72,9.45,1.46,13.93,3.52,43.52,20.1,160.71,45.38,281.5,52.86,85.31,5.29,240.55,5.4,321.7-53.32a12.91,12.91,0,0,1,15.14,20.92C1120.16,1697.61,1042.68,1729.32,894.81,1729.33Z"/><path class="cls-5" d="M1364.16,1840a12.91,12.91,0,0,1-12.91,12.91H322.59a12.91,12.91,0,0,1-12.89-13.56c.13-2.5,3.4-62.29,29.43-153.89a12.91,12.91,0,0,1,24.84,7.06c-18.12,63.77-24.9,112.24-27.28,134.58H1338.35Z"/><path class="cls-5" d="M1338.35,453.13C1285.86,320.58,1228,277.7,1189.7,249.27c-9.09-6.75-16.95-12.57-23.63-18.74-18.69-17.26-43.08-68.75-72.5-153.06a11.49,11.49,0,0,0-20-3.14l-60.88,104.74a25.18,25.18,0,0,1-26.18,12.11c-13.31-2.42-39.62-6-66.22-2.92-36.76,4.26-70,21.65-70.33,21.83a12.91,12.91,0,0,1-18.09-6.8L800.17,120.4a11.49,11.49,0,0,0-19.86-.64c-17.6,28.24-41.38,69-70.7,121-40.25,71.51-74,169-94.92,274.5-22.42,112.89-28.78,225.48-18.37,325.61,7.14,68.77.86,151.55-18.69,246a12.91,12.91,0,1,1-25.28-5.23c19-91.89,25.16-172,18.29-238.14C560,740.91,566.45,625.65,589.37,510.27,610.84,402.15,645.55,302,687.11,228.13c29.5-52.41,53.49-93.47,71.28-122a37.31,37.31,0,0,1,65.2,3.41c.17.34.32.69.45,1l27,70.53c14.48-6.23,39.3-15.37,66.28-18.49,29.58-3.43,58.41.41,73.29,3.08l60.94-104.86c.18-.3.37-.6.57-.89a37.31,37.31,0,0,1,65.85,9c26.82,76.87,50.74,128.84,65.63,142.59,5.67,5.23,13,10.68,21.5,17C1243.52,257,1307.84,304.75,1363.27,446a12.91,12.91,0,0,1,.89,4.72Z"/><path class="cls-5" d="M997.58,167.87c-32.2-4.74-66.33-2.61-98.21,3-44.64,7.88-81.41,34.23-116.51,61.3-5.17,4-7.55,11.45-.81,15,7.14,3.75,17.58-.79,23.26-5.16,29.15-22.49,58.63-44.28,95.81-50.4,25.78-4.24,53.34-5.52,78.89-1.76,7.87,1.16,17.83-2.33,22.7-8.8,4.32-5.73,2.34-12.09-5.11-13.19Z"/><g class="cls-25"><path class="cls-26" d="M1123.65,622.94s112.09,7.08,82.1,133.42-149.68,54.5-149.68,54.5"/></g><path class="cls-4" d="M1062.08,589.9s125.08-21.16,125.08,123.43-150.33,97.54-150.33,97.54"/><path class="cls-5" d="M1066.83,604.22c3.72-.62-5.8.51-.73.11,3.2-.25,6.39-.5,9.61-.57,4.5-.1,9,.07,13.48.38,2.39.16,3.69.51.26,0,1.34.2,2.7.33,4,.53q4.52.66,9,1.65,4.16.93,8.24,2.15c1.49.45,5,1.71,1.46.4,1.89.7,3.76,1.42,5.61,2.22q4.29,1.84,8.39,4.09c1.5.82,3,1.7,4.41,2.58,2,1.23-2.2-1.54-.24-.16.9.63,1.8,1.25,2.69,1.91,12.71,9.38,21.07,20.58,26.93,35,8.59,21.21,10.77,44.42,9.83,67.13-.78,18.86-5.07,37.78-14.5,52-1.08,1.62-2.22,3.19-3.4,4.74-.57.76-1.18,1.5-1.79,2.22.41-.49,1.93-2.07-.13.1a88.29,88.29,0,0,1-8.52,7.79c-.95.76-4,2.88-1.37,1.12q-2.18,1.45-4.45,2.75a92.78,92.78,0,0,1-10.46,5.07c-2.78,1.16,2.75-.73-1.31.44-1.63.47-3.24,1-4.88,1.5-3.45,1-7,1.76-10.49,2.39-1.65.29-3.3.54-5,.78,3.95-.57,0,0-1.6.11-3.44.31-6.88.49-10.33.56-6.86.14-13.65-.3-20.48-.82,1.61.12,2.39.31-1.09-.15-1.62-.22-3.23-.43-4.84-.67q-3.93-.59-7.84-1.33a146.23,146.23,0,0,1-16.11-3.83c-8-2.5-18.6,2.55-21,10.68-2.73,9.08,4.37,15.74,12.25,18.19,48.25,15,112,12,146.65-28.92,30.43-35.95,30.59-94,18.42-137.09-10.68-37.81-37.46-66.3-74.66-78.63a139.28,139.28,0,0,0-65.52-5.08c-8.19,1.37-14.41,10.49-11.79,18.49,3,9,13,11.54,21.3,10.15Z"/><path class="cls-4" d="M605.07,624.9s-84.34,27.32-66.27,121.7c16.93,88.41,64.26,71.57,64.26,71.57"/><path class="cls-5" d="M596,617.69c-29.52,9.67-56.76,33.88-68.77,62.44-12.13,28.86-9.05,61,.12,90.24,6.83,21.75,18.45,43.93,40.54,53.25,13.62,5.74,30.28,6.66,44.33,1.77,5.63-2,11-7.42,5.46-12.58s-17.18-4.12-23.7-1.85c-2.24.78,5.28-1.47,2.33-.66-4.93,1.35,2.74-.12-.46.14-2.09.17-4.11-1,.92.12a13.1,13.1,0,0,0-3-.23c-1.42.07,3.74.86-.43-.17s.86.68-1.86-.58c-1.44-.67-2.89-1.28-4.27-2.06,2,1.15-1.41-1-2.07-1.51a44.87,44.87,0,0,1-8.88-8.79c-7.31-9.55-12.23-21-15.63-32.45-7.68-25.88-10.85-54.56-.63-80.18,6.42-16.1,19.27-31.5,31.54-40.18q4.63-3.28,9.55-6.12,2.11-1.21,4.27-2.34c1.57-.82,4.64-2.22,1.09-.62a78.17,78.17,0,0,1,7.79-3.2c5.7-1.87,10.92-7.47,5.46-12.58-5.7-5.33-17.09-4-23.7-1.85Z"/></svg>