<svg id="Layer_1" data-name="Layer 1" xmlns="http://www.w3.org/2000/svg" viewBox="0 0 850 650"><defs><style>.cls-1{fill:#fffffb;}.cls-2{fill:#2a2a2b;}</style></defs><title>media_txt</title><path class="cls-1" d="M381.65,135.88c-4.94,0-9.82.08-14.68.19L321.59,21.81,272.23,146.1C119.29,176.37,29.34,270.54,29.34,382c0,135.95,220.72,246.15,439.33,246.15S821,518,821,382,600.25,135.88,381.65,135.88Z"/><path class="cls-2" d="M468.66,643.19c-109.24,0-221.79-26.93-308.77-73.9C66,518.62,14.32,452.11,14.32,382c0-59.61,23.7-114.62,68.54-159.08,43.47-43.11,105-74.11,178.41-89.91L307.64,16.27a15,15,0,0,1,27.9,0L377.1,120.89l4.55,0c109.24,0,221.79,26.93,308.77,73.9C784.29,245.45,836,312,836,382c0,72.62-35.63,138.73-100.31,186.16C668.75,617.26,576.42,643.19,468.66,643.19ZM321.59,62.48l-35.41,89.16a15,15,0,0,1-11,9.19C204,174.9,144.85,203.76,104,244.27,65,283,44.35,330.61,44.35,382c0,57.68,47.31,116.31,129.81,160.85,82.74,44.67,190.09,70.29,294.51,70.29,101.33,0,187.52-23.93,249.26-69.19,56.78-41.63,88-99.14,88-161.95,0-57.68-47.31-116.31-129.81-160.85-82.74-44.67-190.09-70.29-294.51-70.29-4.32,0-8.87.06-14.33.18a15,15,0,0,1-14.3-9.47Z"/><path class="cls-2" d="M124.53,473.62c-10.31-6.47-18.6-17.18-25.08-30.05s-9.36-24.05-8.63-35.19L97,315.21c.74-11.25,5.09-22,13.27-33.93S128,259.87,139,254.87s20.22-3.87,27.26,4.76,10,22,8.91,38.55l-1.89,28.61c-10.41.77-15.58,1.19-25.83,2.13l1.75-26.5c.36-5.47-.74-9.84-3.3-12.87s-5.84-3.84-9.82-2.61-7.36,4.07-10.33,8.33a26,26,0,0,0-4.92,13.43l-7.15,108.43A25.63,25.63,0,0,0,116.76,431c2.39,4.56,5.43,7.81,9.16,9.51s7.14,1.36,10.07-1.28,4.6-6.81,5-12.28l2.95-44.67c-5.42-.77-8.12-1.16-13.48-1.94l2.12-32.13c15.52-.2,23.39-.25,39.32-.26l-5.78,87.61c-1.1,16.69-5.84,29.59-14,37S134.67,480,124.53,473.62Z"/><path class="cls-2" d="M242.13,218.58c11.58-3,21,1.92,28.21,15.26S280.42,265,279,286.22l-11.53,174.9c-1.41,21.33-6.62,38.64-15.53,50.85S233.07,527.75,222,523.31s-19.84-15.43-26.59-31.5a108.36,108.36,0,0,1-8.36-50.24L196.74,295a107.45,107.45,0,0,1,15-48.82C220.67,231.17,230.8,221.47,242.13,218.58Zm9.57,69c.49-7.37-.55-13.46-3.1-18.12s-5.92-6.59-10.1-5.91-7.79,3.73-11,9a39.19,39.19,0,0,0-5.54,18.25L211.57,448a39.24,39.24,0,0,0,3.1,18.73c2.52,5.72,5.76,9.26,9.75,10.46s7.64-.29,10.79-4.64,5-10.22,5.44-17.48Z"/><path class="cls-2" d="M327,258c-11.31.57-17,1-28.21,1.89l3.27-49.58c27.86-3.57,55.35-5.75,83.43-6.61L382,256.93c-11.33-.12-17-.1-28.3.14L334.26,552c-10.54-2-15.79-3.14-26.25-5.61Z"/><path class="cls-2" d="M440.94,567.68c-11.82-.21-21.23-9.18-28.44-26.12-8.3-19.52-8.47-40.28-8.36-61.15L417,285.07c2.66-20.75,5.58-41.33,16.43-59.62,9.44-15.91,19.91-23.6,31.53-22.27s21,11.34,28.16,28.79c7.29,17.86,10.17,41.63,8.28,60.83l-2.62,39.77c-11-1.13-16.51-1.66-27.55-2.63L474,288.62q.84-12.8-3.06-22.32c-2.6-6.35-6-9.76-10.3-10.19s-8,2.28-11.36,8.09-5.35,13-5.92,21.63L430.42,481.54q-.85,12.9,3,22.12t10.21,9.41c4.28.14,8.13-2.75,11.54-8.64s5.39-13.09,6-21.63l3.21-48.69c11.07.52,16.61.75,27.65,1.14l-3.2,48.56c-.63,19.29-6.62,42.62-16.35,59.31C463,559.31,452.56,567.89,440.94,567.68Z"/><path class="cls-2" d="M541.56,417l-9.32,141.35c-10.67,1.34-16,1.9-26.71,2.79l22.62-343c10.49,2.28,15.72,3.54,26.12,6.27l-9.36,141.9c12.62,1.2,18.9,1.82,31.39,3.12l9-136c10.27,3.27,15.37,5,25.51,8.73L590.59,548.2c-10.54,2.35-15.83,3.41-26.44,5.31L573.09,418C560.54,417.68,554.23,417.48,541.56,417Z"/><path class="cls-2" d="M650.22,471.37q-5.24,31.85-10.38,63.71c-10.78,3.35-16.2,4.9-27.09,7.75q22.82-140.27,47.19-280.27c13.56,6.33,20.27,9.7,33.5,16.87,3.27,77.09,7.08,154.14,12.07,231.14-10.52,4.62-15.82,6.8-26.49,10.91-.95-21.24-1.4-32.12-2.29-54.36C666.19,469,660.89,469.81,650.22,471.37Zm22.54-141.6q-8.17,51-16.07,102c7.51-.25,11.25-.39,18.68-.71Q673.92,380.42,672.76,329.77Z"/><path class="cls-2" d="M728.52,415.38l7.3-110.76c9.23,6,13.8,9.1,22.81,15.54l-6.27,95.13c-1.56,13.14-2.34,19.79-3.92,33.25-8.2,2-12.33,2.9-20.66,4.68C728.07,438.24,728.22,430.67,728.52,415.38Zm-5.76,87.3,2-29.86c9.83-3.11,14.71-4.75,24.37-8.19l-1.69,25.65C737.64,495.47,732.71,498,722.77,502.69Z"/></svg>