<svg id="TEL_mobile" data-name="TEL/mobile" xmlns="http://www.w3.org/2000/svg" viewBox="0 0 30 30"><defs><style>.cls-1{fill:#2a2a2b;}</style></defs><title>tel_30icon</title><path class="cls-1" d="M10.92,7.6c.88-.17,1.45.82,1.89,1.5a3,3,0,0,1,.74,2.3c-.12.48-.55.75-.88,1s-.82.54-.94,1a2.46,2.46,0,0,0,.5,1.86,10.66,10.66,0,0,0,2.27,2.56,2.29,2.29,0,0,0,1.71.74c.94-.19,1.19-1.35,2.21-1.5a2.75,2.75,0,0,1,2.18,1c.53.46,1.38,1,1.33,1.83a1.58,1.58,0,0,1-.71,1,9.33,9.33,0,0,1-.91.79,4.71,4.71,0,0,1-2.77.71,5.86,5.86,0,0,1-2.65-.8,13.77,13.77,0,0,1-3.77-3.15A13,13,0,0,1,8.45,14.2a5.43,5.43,0,0,1,.8-5.33A7.84,7.84,0,0,1,10,8.19,2,2,0,0,1,10.92,7.6Z"/><path class="cls-1" d="M15,.5A14.5,14.5,0,1,0,29.5,15,14.5,14.5,0,0,0,15,.5Zm0,27A12.5,12.5,0,1,1,27.5,15,12.51,12.51,0,0,1,15,27.5Z"/></svg>